<?xml version="1.0" encoding="UTF-8" standalone="no"?>
<svg
   version="1.1"
   width="13.27cm"
   height="14.76449cm"
   viewBox="0 0 13.27 14.764489"
   id="svg249"
   sodipodi:docname="usb_udb_clone.svg"
   xmlns:inkscape="http://www.inkscape.org/namespaces/inkscape"
   xmlns:sodipodi="http://sodipodi.sourceforge.net/DTD/sodipodi-0.dtd"
   xmlns="http://www.w3.org/2000/svg"
   xmlns:svg="http://www.w3.org/2000/svg">
  <defs
     id="defs249" />
  <sodipodi:namedview
     id="namedview249"
     pagecolor="#ffffff"
     bordercolor="#cccccc"
     borderopacity="1"
     inkscape:showpageshadow="0"
     inkscape:pageopacity="1"
     inkscape:pagecheckerboard="0"
     inkscape:deskcolor="#d1d1d1"
     inkscape:document-units="cm" />
  <title
     id="title1">SVG Image created as usb_udb_clone.svg date 2025/04/08 21:05:45 </title>
  <desc
     id="desc1">Image generated by PCBNEW </desc>
  <g
     style="fill:#000000;fill-opacity:1;stroke:#000000;stroke-linecap:round;stroke-linejoin:round;stroke-opacity:1"
     id="g1"
     transform="translate(-7.0669,-1.9882)" />
  <g
     style="fill:none;stroke:#c83434;stroke-width:1;stroke-linecap:round;stroke-linejoin:round;stroke-opacity:1"
     id="g4"
     transform="translate(-7.0669,-1.9882)">
    <path
       d="M 7.5669,4.5983 V 5.1982"
       id="path1" />
    <path
       d="m 7.5669,8.5282 v 1.1"
       id="path2" />
    <path
       d="M 16.2069,4.5983 V 5.1982"
       id="path3" />
    <path
       d="m 16.2069,8.5282 v 1.1"
       id="path4" />
  </g>
  <g
     style="fill:#c83434;fill-opacity:1;stroke:none"
     id="g5"
     transform="translate(-7.0669,-1.9882)">
    <circle
       cx="11.8869"
       cy="13.3483"
       r="0.22499999"
       id="circle4" />
  </g>
  <g
     style="fill:#c83434;fill-opacity:1;stroke:none"
     id="g6"
     transform="translate(-7.0669,-1.9882)">
    <circle
       cx="9.4369001"
       cy="11.3392"
       r="0.22499999"
       id="circle5" />
  </g>
  <g
     style="fill:#c83434;fill-opacity:1;stroke:none"
     id="g7"
     transform="translate(-7.0669,-1.9882)">
    <circle
       cx="14.3369"
       cy="11.3392"
       r="0.22499999"
       id="circle6" />
  </g>
  <g
     style="fill:#c83434;fill-opacity:1;stroke:none"
     id="g8"
     transform="translate(-7.0669,-1.9882)">
    <circle
       cx="12.3869"
       cy="14.6482"
       r="0.22499999"
       id="circle7" />
  </g>
  <g
     style="fill:#c83434;fill-opacity:1;stroke:none"
     id="g9"
     transform="translate(-7.0669,-1.9882)">
    <circle
       cx="10.6169"
       cy="12.9902"
       r="0.22499999"
       id="circle8" />
  </g>
  <g
     style="fill:#c83434;fill-opacity:1;stroke:none"
     id="g10"
     transform="translate(-7.0669,-1.9882)">
    <circle
       cx="11.3869"
       cy="14.6482"
       r="0.22499999"
       id="circle9" />
  </g>
  <g
     style="fill:#c83434;fill-opacity:1;stroke:none"
     id="g11"
     transform="translate(-7.0669,-1.9882)">
    <circle
       cx="13.1569"
       cy="12.9902"
       r="0.22499999"
       id="circle10" />
  </g>
  <g
     style="fill:none;stroke:#c83434;stroke-width:0.508;stroke-linecap:round;stroke-linejoin:round;stroke-opacity:1"
     id="g12"
     transform="translate(-7.0669,-1.9882)">
    <path
       d="m 14.3369,11.3392 h -4.9"
       id="path11" />
  </g>
  <g
     style="fill:none;stroke:#c83434;stroke-width:0.1524;stroke-linecap:round;stroke-linejoin:round;stroke-opacity:1"
     id="g19"
     transform="translate(-7.0669,-1.9882)">
    <path
       d="m 10.6169,12.9902 v 1.5983"
       id="path12" />
    <path
       d="m 11.1789,15.1504 h 0.7058"
       id="path13" />
    <path
       d="m 10.6169,14.5885 0.562,0.5619"
       id="path14" />
    <path
       d="m 11.8847,15.1504 0.5022,-0.5022"
       id="path15" />
    <path
       d="m 13.1569,12.9902 v 0.381"
       id="path16" />
    <path
       d="m 12.4099,13.6252 -1.023,1.023"
       id="path17" />
    <path
       d="m 13.1569,13.3712 -0.254,0.254"
       id="path18" />
    <path
       d="m 12.9029,13.6252 h -0.493"
       id="path19" />
  </g>
  <g
     style="fill:#ffffff;fill-opacity:1;stroke:none"
     id="g20"
     transform="translate(-7.0669,-1.9882)">
    <circle
       cx="11.8869"
       cy="13.3483"
       r="0.1524"
       id="circle19" />
  </g>
  <g
     style="fill:#ffffff;fill-opacity:1;stroke:none"
     id="g21"
     transform="translate(-7.0669,-1.9882)">
    <circle
       cx="9.4369001"
       cy="11.3392"
       r="0.1524"
       id="circle20" />
  </g>
  <g
     style="fill:#ffffff;fill-opacity:1;stroke:none"
     id="g22"
     transform="translate(-7.0669,-1.9882)">
    <circle
       cx="14.3369"
       cy="11.3392"
       r="0.1524"
       id="circle21" />
  </g>
  <g
     style="fill:#ffffff;fill-opacity:1;stroke:none"
     id="g23"
     transform="translate(-7.0669,-1.9882)">
    <circle
       cx="12.3869"
       cy="14.6482"
       r="0.1524"
       id="circle22" />
  </g>
  <g
     style="fill:#ffffff;fill-opacity:1;stroke:none"
     id="g24"
     transform="translate(-7.0669,-1.9882)">
    <circle
       cx="10.6169"
       cy="12.9902"
       r="0.1524"
       id="circle23" />
  </g>
  <g
     style="fill:#ffffff;fill-opacity:1;stroke:none"
     id="g25"
     transform="translate(-7.0669,-1.9882)">
    <circle
       cx="11.3869"
       cy="14.6482"
       r="0.1524"
       id="circle24" />
  </g>
  <g
     style="fill:#ffffff;fill-opacity:1;stroke:none"
     id="g26"
     transform="translate(-7.0669,-1.9882)">
    <circle
       cx="13.1569"
       cy="12.9902"
       r="0.1524"
       id="circle25" />
  </g>
  <g
     style="fill:#ffffff;fill-opacity:1;stroke:none"
     id="g27"
     transform="translate(-7.0669,-1.9882)">
    <circle
       cx="8.9968996"
       cy="8.5481997"
       r="0.32499999"
       id="circle26" />
  </g>
  <g
     style="fill:#ffffff;fill-opacity:1;stroke:none"
     id="g28"
     transform="translate(-7.0669,-1.9882)">
    <circle
       cx="14.7769"
       cy="8.5481997"
       r="0.32499999"
       id="circle27" />
  </g>
  <g
     style="fill:none;stroke:#ffffff;stroke-width:0.6;stroke-linecap:round;stroke-linejoin:round;stroke-opacity:1"
     id="g59"
     transform="translate(-7.0669,-1.9882)">
    <path
       d="M 7.5669,4.5983 V 5.1982"
       id="path28" />
    <path
       d="m 7.5669,8.5282 v 1.1"
       id="path29" />
    <path
       d="M 16.2069,4.5983 V 5.1982"
       id="path30" />
    <path
       d="m 16.2069,8.5282 v 1.1"
       id="path31" />
    <path
       style="fill:#4d7fc4;fill-opacity:1;fill-rule:evenodd;stroke:none"
       d="m 13.0369,12.7116 -0.0057,0.0288 -0.0163,0.0243 -0.0243,0.0162 -0.0287,0.0057 h -0.15 l -0.0287,-0.0057 -0.0243,-0.0162 -0.0163,-0.0243 -0.0057,-0.0288 v -0.3999 l 0.0057,-0.0288 0.0163,-0.0243 0.0243,-0.0162 0.0287,-0.0058 h 0.15 l 0.0287,0.0058 0.0243,0.0162 0.0163,0.0243 0.0057,0.0288 z"
       id="path32" />
    <path
       style="fill:#4d7fc4;fill-opacity:1;fill-rule:evenodd;stroke:none"
       d="m 12.5369,12.7116 -0.0057,0.0288 -0.0163,0.0243 -0.0243,0.0162 -0.0287,0.0057 h -0.15 l -0.0287,-0.0057 -0.0243,-0.0162 -0.0163,-0.0243 -0.0057,-0.0288 v -0.3999 l 0.0057,-0.0288 0.0163,-0.0243 0.0243,-0.0162 0.0287,-0.0058 h 0.15 l 0.0287,0.0058 0.0243,0.0162 0.0163,0.0243 0.0057,0.0288 z"
       id="path33" />
    <path
       style="fill:#4d7fc4;fill-opacity:1;fill-rule:evenodd;stroke:none"
       d="m 12.0369,12.7116 -0.0057,0.0288 -0.0163,0.0243 -0.0243,0.0162 -0.0287,0.0057 h -0.15 l -0.0287,-0.0057 -0.0243,-0.0162 -0.0163,-0.0243 -0.0057,-0.0288 v -0.3999 l 0.0057,-0.0288 0.0163,-0.0243 0.0243,-0.0162 0.0287,-0.0058 h 0.15 l 0.0287,0.0058 0.0243,0.0162 0.0163,0.0243 0.0057,0.0288 z"
       id="path34" />
    <path
       style="fill:#4d7fc4;fill-opacity:1;fill-rule:evenodd;stroke:none"
       d="m 11.5369,12.7116 -0.0057,0.0288 -0.0163,0.0243 -0.0243,0.0162 -0.0287,0.0057 h -0.15 l -0.0287,-0.0057 -0.0243,-0.0162 -0.0163,-0.0243 -0.0057,-0.0288 v -0.3999 l 0.0057,-0.0288 0.0163,-0.0243 0.0243,-0.0162 0.0287,-0.0058 h 0.15 l 0.0287,0.0058 0.0243,0.0162 0.0163,0.0243 0.0057,0.0288 z"
       id="path35" />
    <path
       style="fill:#4d7fc4;fill-opacity:1;fill-rule:evenodd;stroke:none"
       d="m 11.0369,12.7116 -0.0057,0.0288 -0.0163,0.0243 -0.0243,0.0162 -0.0287,0.0057 h -0.15 l -0.0287,-0.0057 -0.0243,-0.0162 -0.0163,-0.0243 -0.0057,-0.0288 v -0.3999 l 0.0057,-0.0288 0.0163,-0.0243 0.0243,-0.0162 0.0287,-0.0058 h 0.15 l 0.0287,0.0058 0.0243,0.0162 0.0163,0.0243 0.0057,0.0288 z"
       id="path36" />
    <path
       style="fill:#4d7fc4;fill-opacity:1;fill-rule:evenodd;stroke:none"
       d="m 11.0369,11.9416 -0.0057,0.0288 -0.0163,0.0243 -0.0243,0.0162 -0.0287,0.0058 h -0.15 l -0.0287,-0.0058 -0.0243,-0.0162 -0.0163,-0.0243 -0.0057,-0.0288 v -0.4 l 0.0057,-0.0287 0.0163,-0.0243 0.0243,-0.0162 0.0287,-0.0058 h 0.15 l 0.0287,0.0058 0.0243,0.0162 0.0163,0.0243 0.0057,0.0287 z"
       id="path37" />
    <path
       style="fill:#4d7fc4;fill-opacity:1;fill-rule:evenodd;stroke:none"
       d="m 11.5369,11.9416 -0.0057,0.0288 -0.0163,0.0243 -0.0243,0.0162 -0.0287,0.0058 h -0.15 l -0.0287,-0.0058 -0.0243,-0.0162 -0.0163,-0.0243 -0.0057,-0.0288 v -0.4 l 0.0057,-0.0287 0.0163,-0.0243 0.0243,-0.0162 0.0287,-0.0058 h 0.15 l 0.0287,0.0058 0.0243,0.0162 0.0163,0.0243 0.0057,0.0287 z"
       id="path38" />
    <path
       style="fill:#4d7fc4;fill-opacity:1;fill-rule:evenodd;stroke:none"
       d="m 12.0369,11.9416 -0.0057,0.0288 -0.0163,0.0243 -0.0243,0.0162 -0.0287,0.0058 h -0.15 l -0.0287,-0.0058 -0.0243,-0.0162 -0.0163,-0.0243 -0.0057,-0.0288 v -0.4 l 0.0057,-0.0287 0.0163,-0.0243 0.0243,-0.0162 0.0287,-0.0058 h 0.15 l 0.0287,0.0058 0.0243,0.0162 0.0163,0.0243 0.0057,0.0287 z"
       id="path39" />
    <path
       style="fill:#4d7fc4;fill-opacity:1;fill-rule:evenodd;stroke:none"
       d="m 12.5369,11.9416 -0.0057,0.0288 -0.0163,0.0243 -0.0243,0.0162 -0.0287,0.0058 h -0.15 l -0.0287,-0.0058 -0.0243,-0.0162 -0.0163,-0.0243 -0.0057,-0.0288 v -0.4 l 0.0057,-0.0287 0.0163,-0.0243 0.0243,-0.0162 0.0287,-0.0058 h 0.15 l 0.0287,0.0058 0.0243,0.0162 0.0163,0.0243 0.0057,0.0287 z"
       id="path40" />
    <path
       style="fill:#4d7fc4;fill-opacity:1;fill-rule:evenodd;stroke:none"
       d="m 13.0369,11.9416 -0.0057,0.0288 -0.0163,0.0243 -0.0243,0.0162 -0.0287,0.0058 h -0.15 l -0.0287,-0.0058 -0.0243,-0.0162 -0.0163,-0.0243 -0.0057,-0.0288 v -0.4 l 0.0057,-0.0287 0.0163,-0.0243 0.0243,-0.0162 0.0287,-0.0058 h 0.15 l 0.0287,0.0058 0.0243,0.0162 0.0163,0.0243 0.0057,0.0287 z"
       id="path41" />
    <path
       style="fill:#4d7fc4;fill-opacity:1;fill-rule:evenodd;stroke:none"
       d="m 9.1139,12.0042 0.0765,0.0153 0.0649,0.0433 0.0434,0.0649 0.0152,0.0766 v 0.3999 L 9.2987,12.6808 9.2553,12.7457 9.1904,12.789 9.1139,12.8042 h -0.55 L 8.4874,12.789 8.4225,12.7457 8.3791,12.6808 8.3639,12.6042 v -0.3999 l 0.0152,-0.0766 0.0434,-0.0649 0.0649,-0.0433 0.0765,-0.0153 z"
       id="path42" />
    <path
       style="fill:#4d7fc4;fill-opacity:1;fill-rule:evenodd;stroke:none"
       d="m 9.1139,13.6542 0.0765,0.0153 0.0649,0.0433 0.0434,0.0649 0.0152,0.0765 v 0.4 L 9.2987,14.3308 9.2553,14.3957 9.1904,14.439 9.1139,14.4543 h -0.55 L 8.4874,14.439 8.4225,14.3957 8.3791,14.3308 8.3639,14.2542 v -0.4 l 0.0152,-0.0765 0.0434,-0.0649 0.0649,-0.0433 0.0765,-0.0153 z"
       id="path43" />
    <path
       style="fill:#4d7fc4;fill-opacity:1;fill-rule:evenodd;stroke:none"
       d="M 8.3369,10.7182 V 9.2683 h 0.6 v 1.4499 z"
       id="path44" />
    <path
       style="fill:#4d7fc4;fill-opacity:1;fill-rule:evenodd;stroke:none"
       d="M 9.1369,10.7182 V 9.2683 h 0.6 v 1.4499 z"
       id="path45" />
    <path
       style="fill:#4d7fc4;fill-opacity:1;fill-rule:evenodd;stroke:none"
       d="M 10.4869,10.7182 V 9.2683 h 0.3 v 1.4499 z"
       id="path46" />
    <path
       style="fill:#4d7fc4;fill-opacity:1;fill-rule:evenodd;stroke:none"
       d="M 11.4869,10.7182 V 9.2683 h 0.3 v 1.4499 z"
       id="path47" />
    <path
       style="fill:#4d7fc4;fill-opacity:1;fill-rule:evenodd;stroke:none"
       d="M 11.9869,10.7182 V 9.2683 h 0.3 v 1.4499 z"
       id="path48" />
    <path
       style="fill:#4d7fc4;fill-opacity:1;fill-rule:evenodd;stroke:none"
       d="M 12.9869,10.7182 V 9.2683 h 0.3 v 1.4499 z"
       id="path49" />
    <path
       style="fill:#4d7fc4;fill-opacity:1;fill-rule:evenodd;stroke:none"
       d="M 14.0369,10.7182 V 9.2683 h 0.6 v 1.4499 z"
       id="path50" />
    <path
       style="fill:#4d7fc4;fill-opacity:1;fill-rule:evenodd;stroke:none"
       d="M 14.8369,10.7182 V 9.2683 h 0.6 v 1.4499 z"
       id="path51" />
    <path
       style="fill:#4d7fc4;fill-opacity:1;fill-rule:evenodd;stroke:none"
       d="M 14.8369,10.7182 V 9.2683 h 0.6 v 1.4499 z"
       id="path52" />
    <path
       style="fill:#4d7fc4;fill-opacity:1;fill-rule:evenodd;stroke:none"
       d="M 14.0369,10.7182 V 9.2683 h 0.6 v 1.4499 z"
       id="path53" />
    <path
       style="fill:#4d7fc4;fill-opacity:1;fill-rule:evenodd;stroke:none"
       d="M 13.4869,10.7182 V 9.2683 h 0.3 v 1.4499 z"
       id="path54" />
    <path
       style="fill:#4d7fc4;fill-opacity:1;fill-rule:evenodd;stroke:none"
       d="M 12.4869,10.7182 V 9.2683 h 0.3 v 1.4499 z"
       id="path55" />
    <path
       style="fill:#4d7fc4;fill-opacity:1;fill-rule:evenodd;stroke:none"
       d="M 10.9869,10.7182 V 9.2683 h 0.3 v 1.4499 z"
       id="path56" />
    <path
       style="fill:#4d7fc4;fill-opacity:1;fill-rule:evenodd;stroke:none"
       d="M 9.9869,10.7182 V 9.2683 h 0.3 v 1.4499 z"
       id="path57" />
    <path
       style="fill:#4d7fc4;fill-opacity:1;fill-rule:evenodd;stroke:none"
       d="M 9.1369,10.7182 V 9.2683 h 0.6 v 1.4499 z"
       id="path58" />
    <path
       style="fill:#4d7fc4;fill-opacity:1;fill-rule:evenodd;stroke:none"
       d="M 8.3369,10.7182 V 9.2683 h 0.6 v 1.4499 z"
       id="path59" />
  </g>
  <g
     style="fill:none;stroke:#4d7fc4;stroke-width:1;stroke-linecap:round;stroke-linejoin:round;stroke-opacity:1"
     id="g69"
     transform="translate(-7.0669,-1.9882)">
    <path
       d="M 7.5669,4.5983 V 5.1982"
       id="path60" />
    <path
       d="m 7.5669,8.5282 v 1.1"
       id="path61" />
    <path
       d="M 16.2069,4.5983 V 5.1982"
       id="path62" />
    <path
       d="m 16.2069,8.5282 v 1.1"
       id="path63" />
    <path
       style="fill:#4d7fc4;fill-opacity:1;fill-rule:evenodd;stroke:none"
       d="m 15.2099,12.0042 0.0765,0.0153 0.0649,0.0433 0.0434,0.0649 0.0152,0.0766 v 0.3999 l -0.0152,0.0766 -0.0434,0.0649 -0.0649,0.0433 -0.0765,0.0152 h -0.55 L 14.5834,12.789 14.5185,12.7457 14.4751,12.6808 14.4599,12.6042 v -0.3999 l 0.0152,-0.0766 0.0434,-0.0649 0.0649,-0.0433 0.0765,-0.0153 z"
       id="path64" />
    <path
       style="fill:#4d7fc4;fill-opacity:1;fill-rule:evenodd;stroke:none"
       d="m 15.2099,13.6542 0.0765,0.0153 0.0649,0.0433 0.0434,0.0649 0.0152,0.0765 v 0.4 l -0.0152,0.0766 -0.0434,0.0649 -0.0649,0.0433 -0.0765,0.0153 h -0.55 L 14.5834,14.439 14.5185,14.3957 14.4751,14.3308 14.4599,14.2542 v -0.4 l 0.0152,-0.0765 0.0434,-0.0649 0.0649,-0.0433 0.0765,-0.0153 z"
       id="path65" />
    <path
       style="fill:#4d7fc4;fill-opacity:1;fill-rule:evenodd;stroke:none"
       d="m 19.6239,7.2822 0.0957,0.0191 0.0811,0.0542 0.0542,0.0811 0.019,0.0956 v 0.75 l -0.019,0.0957 -0.0542,0.0811 -0.0811,0.0542 -0.0957,0.019 h -1.25 L 18.2782,8.5132 18.1971,8.459 18.1429,8.3779 18.1239,8.2822 v -0.75 l 0.019,-0.0956 0.0542,-0.0811 0.0811,-0.0542 0.0957,-0.0191 z"
       id="path66" />
    <path
       style="fill:#4d7fc4;fill-opacity:1;fill-rule:evenodd;stroke:none"
       d="m 19.6239,10.0823 0.0957,0.019 0.0811,0.0542 0.0542,0.0811 0.019,0.0957 v 0.75 l -0.019,0.0956 -0.0542,0.0811 -0.0811,0.0542 -0.0957,0.0191 h -1.25 l -0.0957,-0.0191 -0.0811,-0.0542 -0.0542,-0.0811 -0.019,-0.0956 v -0.75 l 0.019,-0.0957 0.0542,-0.0811 0.0811,-0.0542 0.0957,-0.019 z"
       id="path67" />
    <path
       style="fill:#4d7fc4;fill-opacity:1;fill-rule:evenodd;stroke:none"
       d="m 16.1369,12.6152 0.0171,-0.0861 0.0488,-0.0729 0.073,-0.0488 0.0861,-0.0172 h 0.45 l 0.0861,0.0172 0.073,0.0488 0.0488,0.0729 0.0171,0.0861 v 0.75 l -0.0171,0.0862 -0.0488,0.0729 -0.073,0.0488 -0.0861,0.0171 h -0.45 l -0.0861,-0.0171 -0.073,-0.0488 -0.0488,-0.0729 -0.0171,-0.0862 z"
       id="path68" />
    <path
       style="fill:#4d7fc4;fill-opacity:1;fill-rule:evenodd;stroke:none"
       d="m 19.4369,12.6152 0.0171,-0.0861 0.0488,-0.0729 0.073,-0.0488 0.0861,-0.0172 h 0.45 l 0.0861,0.0172 0.073,0.0488 0.0488,0.0729 0.0171,0.0861 v 0.75 l -0.0171,0.0862 -0.0488,0.0729 -0.073,0.0488 -0.0861,0.0171 h -0.45 l -0.0861,-0.0171 -0.073,-0.0488 -0.0488,-0.0729 -0.0171,-0.0862 z"
       id="path69" />
  </g>
  <g
     style="fill:#4d7fc4;fill-opacity:1;stroke:none"
     id="g70"
     transform="translate(-7.0669,-1.9882)">
    <circle
       cx="11.8869"
       cy="13.3483"
       r="0.22499999"
       id="circle69" />
  </g>
  <g
     style="fill:#4d7fc4;fill-opacity:1;stroke:none"
     id="g71"
     transform="translate(-7.0669,-1.9882)">
    <circle
       cx="9.4369001"
       cy="11.3392"
       r="0.22499999"
       id="circle70" />
  </g>
  <g
     style="fill:#4d7fc4;fill-opacity:1;stroke:none"
     id="g72"
     transform="translate(-7.0669,-1.9882)">
    <circle
       cx="14.3369"
       cy="11.3392"
       r="0.22499999"
       id="circle71" />
  </g>
  <g
     style="fill:#4d7fc4;fill-opacity:1;stroke:none"
     id="g73"
     transform="translate(-7.0669,-1.9882)">
    <circle
       cx="12.3869"
       cy="14.6482"
       r="0.22499999"
       id="circle72" />
  </g>
  <g
     style="fill:#4d7fc4;fill-opacity:1;stroke:none"
     id="g74"
     transform="translate(-7.0669,-1.9882)">
    <circle
       cx="10.6169"
       cy="12.9902"
       r="0.22499999"
       id="circle73" />
  </g>
  <g
     style="fill:#4d7fc4;fill-opacity:1;stroke:none"
     id="g75"
     transform="translate(-7.0669,-1.9882)">
    <circle
       cx="11.3869"
       cy="14.6482"
       r="0.22499999"
       id="circle74" />
  </g>
  <g
     style="fill:#4d7fc4;fill-opacity:1;stroke:none"
     id="g76"
     transform="translate(-7.0669,-1.9882)">
    <circle
       cx="13.1569"
       cy="12.9902"
       r="0.22499999"
       id="circle75" />
  </g>
  <g
     style="fill:none;stroke:#4d7fc4;stroke-width:0.508;stroke-linecap:round;stroke-linejoin:round;stroke-opacity:1"
     id="g82"
     transform="translate(-7.0669,-1.9882)">
    <path
       d="m 19.8869,11.5953 -0.888,-0.888"
       id="path76" />
    <path
       d="m 14.4159,15.1492 h 2.409"
       id="path77" />
    <path
       d="M 19.8869,12.9902 V 11.5953"
       id="path78" />
    <path
       d="m 19.4694,14.3157 0.4175,-0.4175"
       id="path79" />
    <path
       d="m 19.8869,13.8982 v -0.908"
       id="path80" />
    <path
       d="m 17.6584,14.3157 h 1.811"
       id="path81" />
    <path
       d="m 16.8249,15.1492 0.8335,-0.8335"
       id="path82" />
  </g>
  <g
     style="fill:none;stroke:#4d7fc4;stroke-width:0.254;stroke-linecap:round;stroke-linejoin:round;stroke-opacity:1"
     id="g83"
     transform="translate(-7.0669,-1.9882)">
    <path
       d="m 11.8869,11.7416 v 1.6067"
       id="path83" />
  </g>
  <g
     style="fill:none;stroke:#4d7fc4;stroke-width:0.508;stroke-linecap:round;stroke-linejoin:round;stroke-opacity:1"
     id="g90"
     transform="translate(-7.0669,-1.9882)">
    <path
       d="m 14.3369,9.6682 v 1.671"
       id="path84" />
    <path
       d="M 17.2119,10.2849 V 8.4603"
       id="path85" />
    <path
       d="m 14.3369,11.3392 h 1.8207"
       id="path86" />
    <path
       d="m 9.4369,9.6682 v 1.671"
       id="path87" />
    <path
       d="m 17.2119,8.4603 0.553,-0.5531"
       id="path88" />
    <path
       d="m 16.1576,11.3392 1.0543,-1.0543"
       id="path89" />
    <path
       d="m 17.7649,7.9072 h 1.234"
       id="path90" />
  </g>
  <g
     style="fill:none;stroke:#4d7fc4;stroke-width:0.254;stroke-linecap:round;stroke-linejoin:round;stroke-opacity:1"
     id="g91"
     transform="translate(-7.0669,-1.9882)">
    <path
       d="M 12.1369,11.0983 V 9.9932"
       id="path91" />
  </g>
  <g
     style="fill:none;stroke:#4d7fc4;stroke-width:0.1524;stroke-linecap:round;stroke-linejoin:round;stroke-opacity:1"
     id="g92"
     transform="translate(-7.0669,-1.9882)">
    <path
       d="M 11.1369,10.9391 V 9.9932"
       id="path92" />
  </g>
  <g
     style="fill:none;stroke:#4d7fc4;stroke-width:0.254;stroke-linecap:round;stroke-linejoin:round;stroke-opacity:1"
     id="g93"
     transform="translate(-7.0669,-1.9882)">
    <path
       d="m 10.8869,12.5116 v 0.2087"
       id="path93" />
  </g>
  <g
     style="fill:none;stroke:#4d7fc4;stroke-width:0.1524;stroke-linecap:round;stroke-linejoin:round;stroke-opacity:1"
     id="g94"
     transform="translate(-7.0669,-1.9882)">
    <path
       d="m 10.8869,11.1891 0.25,-0.25"
       id="path94" />
  </g>
  <g
     style="fill:none;stroke:#4d7fc4;stroke-width:0.254;stroke-linecap:round;stroke-linejoin:round;stroke-opacity:1"
     id="g95"
     transform="translate(-7.0669,-1.9882)">
    <path
       d="M 12.3869,14.6482 V 11.3483"
       id="path95" />
  </g>
  <g
     style="fill:none;stroke:#4d7fc4;stroke-width:0.1524;stroke-linecap:round;stroke-linejoin:round;stroke-opacity:1"
     id="g96"
     transform="translate(-7.0669,-1.9882)">
    <path
       d="M 10.8869,12.5116 V 11.1891"
       id="path96" />
  </g>
  <g
     style="fill:none;stroke:#4d7fc4;stroke-width:0.254;stroke-linecap:round;stroke-linejoin:round;stroke-opacity:1"
     id="g99"
     transform="translate(-7.0669,-1.9882)">
    <path
       d="m 12.3869,11.3483 -0.25,-0.25"
       id="path97" />
    <path
       d="m 10.8869,12.7203 -0.27,0.2699"
       id="path98" />
    <path
       d="m 11.3869,11.3483 0.25,-0.25"
       id="path99" />
  </g>
  <g
     style="fill:none;stroke:#4d7fc4;stroke-width:0.1524;stroke-linecap:round;stroke-linejoin:round;stroke-opacity:1"
     id="g100"
     transform="translate(-7.0669,-1.9882)">
    <path
       d="m 12.8869,11.1891 -0.25,-0.25"
       id="path100" />
  </g>
  <g
     style="fill:none;stroke:#4d7fc4;stroke-width:0.254;stroke-linecap:round;stroke-linejoin:round;stroke-opacity:1"
     id="g102"
     transform="translate(-7.0669,-1.9882)">
    <path
       d="M 11.6369,11.0983 V 9.9932"
       id="path101" />
    <path
       d="m 12.8869,12.5116 v 0.2087"
       id="path102" />
  </g>
  <g
     style="fill:none;stroke:#4d7fc4;stroke-width:0.1524;stroke-linecap:round;stroke-linejoin:round;stroke-opacity:1"
     id="g104"
     transform="translate(-7.0669,-1.9882)">
    <path
       d="M 12.8869,12.5116 V 11.1891"
       id="path103" />
    <path
       d="M 12.6369,10.9391 V 9.9932"
       id="path104" />
  </g>
  <g
     style="fill:none;stroke:#4d7fc4;stroke-width:0.254;stroke-linecap:round;stroke-linejoin:round;stroke-opacity:1"
     id="g114"
     transform="translate(-7.0669,-1.9882)">
    <path
       d="M 11.3869,14.6482 V 11.3483"
       id="path105" />
    <path
       d="m 12.8869,12.7203 0.27,0.2699"
       id="path106" />
    <path
       d="m 10.6369,9.9932 v 0.8742"
       id="path107" />
    <path
       d="m 10.6369,10.8674 -0.472,0.472"
       id="path108" />
    <path
       d="m 10.1649,11.9202 -0.484,0.484"
       id="path109" />
    <path
       d="M 9.6809,12.4042 H 8.8389"
       id="path110" />
    <path
       d="m 10.1649,11.3394 v 0.5808"
       id="path111" />
    <path
       d="m 14.0429,12.4042 -0.406,-0.406"
       id="path112" />
    <path
       d="M 13.6369,11.9982 V 9.9932"
       id="path113" />
    <path
       d="m 14.9349,12.4042 h -0.892"
       id="path114" />
  </g>
  <g
     style="fill:#ffffff;fill-opacity:1;stroke:none"
     id="g115"
     transform="translate(-7.0669,-1.9882)">
    <circle
       cx="11.8869"
       cy="13.3483"
       r="0.1524"
       id="circle114" />
  </g>
  <g
     style="fill:#ffffff;fill-opacity:1;stroke:none"
     id="g116"
     transform="translate(-7.0669,-1.9882)">
    <circle
       cx="9.4369001"
       cy="11.3392"
       r="0.1524"
       id="circle115" />
  </g>
  <g
     style="fill:#ffffff;fill-opacity:1;stroke:none"
     id="g117"
     transform="translate(-7.0669,-1.9882)">
    <circle
       cx="14.3369"
       cy="11.3392"
       r="0.1524"
       id="circle116" />
  </g>
  <g
     style="fill:#ffffff;fill-opacity:1;stroke:none"
     id="g118"
     transform="translate(-7.0669,-1.9882)">
    <circle
       cx="12.3869"
       cy="14.6482"
       r="0.1524"
       id="circle117" />
  </g>
  <g
     style="fill:#ffffff;fill-opacity:1;stroke:none"
     id="g119"
     transform="translate(-7.0669,-1.9882)">
    <circle
       cx="10.6169"
       cy="12.9902"
       r="0.1524"
       id="circle118" />
  </g>
  <g
     style="fill:#ffffff;fill-opacity:1;stroke:none"
     id="g120"
     transform="translate(-7.0669,-1.9882)">
    <circle
       cx="11.3869"
       cy="14.6482"
       r="0.1524"
       id="circle119" />
  </g>
  <g
     style="fill:#ffffff;fill-opacity:1;stroke:none"
     id="g121"
     transform="translate(-7.0669,-1.9882)">
    <circle
       cx="13.1569"
       cy="12.9902"
       r="0.1524"
       id="circle120" />
  </g>
  <g
     style="fill:#ffffff;fill-opacity:1;stroke:none"
     id="g122"
     transform="translate(-7.0669,-1.9882)">
    <circle
       cx="8.9968996"
       cy="8.5481997"
       r="0.32499999"
       id="circle121" />
  </g>
  <g
     style="fill:#ffffff;fill-opacity:1;stroke:none"
     id="g123"
     transform="translate(-7.0669,-1.9882)">
    <circle
       cx="14.7769"
       cy="8.5481997"
       r="0.32499999"
       id="circle122" />
  </g>
  <g
     style="fill:none;stroke:#ffffff;stroke-width:0.6;stroke-linecap:round;stroke-linejoin:round;stroke-opacity:1"
     id="g126"
     transform="translate(-7.0669,-1.9882)">
    <path
       d="M 7.5669,4.5983 V 5.1982"
       id="path123" />
    <path
       d="m 7.5669,8.5282 v 1.1"
       id="path124" />
    <path
       d="M 16.2069,4.5983 V 5.1982"
       id="path125" />
    <path
       d="m 16.2069,8.5282 v 1.1"
       id="path126" />
  </g>
  <g
     style="fill:#000000;fill-opacity:1;stroke:none"
     id="g127"
     transform="translate(-7.0669,-1.9882)">
    <circle
       cx="8.9968996"
       cy="8.5481997"
       r="0.32499999"
       id="circle126" />
  </g>
  <g
     style="fill:#000000;fill-opacity:1;stroke:none"
     id="g128"
     transform="translate(-7.0669,-1.9882)">
    <circle
       cx="14.7769"
       cy="8.5481997"
       r="0.32499999"
       id="circle127" />
  </g>
  <g
     style="fill:none;stroke:#000000;stroke-width:0.6;stroke-linecap:round;stroke-linejoin:round;stroke-opacity:1"
     id="g131"
     transform="translate(-7.0669,-1.9882)">
    <path
       d="M 7.5669,4.5983 V 5.1982"
       id="path128" />
    <path
       d="m 7.5669,8.5282 v 1.1"
       id="path129" />
    <path
       d="M 16.2069,4.5983 V 5.1982"
       id="path130" />
    <path
       d="m 16.2069,8.5282 v 1.1"
       id="path131" />
  </g>
  <g
     style="fill:none;stroke:#e8b2a7;stroke-width:0.15;stroke-linecap:round;stroke-linejoin:round;stroke-opacity:1"
     id="g218"
     transform="translate(-7.0669,-1.9882)">
    <g
       transform="rotate(-90,13.3869,14.1266)"
       id="g132">
      <text
         x="13.3869"
         y="14.6266"
         transform="matrix(-1,0,0,1,26.773812,0)"
         textLength="2.25"
         font-size="1.3333px"
         lengthAdjust="spacingAndGlyphs"
         text-anchor="middle"
         opacity="0"
         stroke-opacity="0"
         id="text131">U1</text>
    </g>
    <g
       class="stroked-text"
       id="g145">
      <desc
         id="desc132">U1</desc>
      <path
         d="m 12.8417,13.3647 h 0.8095"
         id="path132" />
      <path
         d="m 13.6512,13.3647 0.0953,0.0477"
         id="path133" />
      <path
         d="M 13.7465,13.4124 13.7941,13.46"
         id="path134" />
      <path
         d="m 13.7941,13.46 0.0476,0.0952"
         id="path135" />
      <path
         d="m 13.8417,13.5552 v 0.1905"
         id="path136" />
      <path
         d="m 13.8417,13.7457 -0.0476,0.0952"
         id="path137" />
      <path
         d="m 13.7941,13.8409 -0.0476,0.0477"
         id="path138" />
      <path
         d="m 13.7465,13.8886 -0.0953,0.0476"
         id="path139" />
      <path
         d="M 13.6512,13.9362 H 12.8417"
         id="path140" />
      <path
         d="M 13.8417,14.9362 V 14.3647"
         id="path141" />
      <path
         d="m 13.8417,14.6505 h -1"
         id="path142" />
      <path
         d="m 12.8417,14.6505 0.1429,-0.0953"
         id="path143" />
      <path
         d="M 12.9846,14.5552 13.0798,14.46"
         id="path144" />
      <path
         d="m 13.0798,14.46 0.0476,-0.0953"
         id="path145" />
    </g>
    <g
       transform="rotate(-90,8.8389,15.7292)"
       id="g146">
      <text
         x="8.8388996"
         y="16.2293"
         transform="matrix(-1,0,0,1,17.677812,0)"
         textLength="2.2024"
         font-size="1.3333px"
         lengthAdjust="spacingAndGlyphs"
         text-anchor="middle"
         opacity="0"
         stroke-opacity="0"
         id="text145">R1</text>
    </g>
    <g
       class="stroked-text"
       id="g161">
      <desc
         id="desc146">R1</desc>
      <path
         d="M 9.2937,15.5626 8.8175,15.2292"
         id="path146" />
      <path
         d="m 9.2937,14.9912 h -1"
         id="path147" />
      <path
         d="m 8.2937,14.9912 v 0.3809"
         id="path148" />
      <path
         d="m 8.2937,15.3721 0.0476,0.0952"
         id="path149" />
      <path
         d="M 8.3413,15.4673 8.389,15.515"
         id="path150" />
      <path
         d="m 8.389,15.515 0.0952,0.0476"
         id="path151" />
      <path
         d="M 8.4842,15.5626 H 8.6271"
         id="path152" />
      <path
         d="M 8.6271,15.5626 8.7223,15.515"
         id="path153" />
      <path
         d="M 8.7223,15.515 8.7699,15.4673"
         id="path154" />
      <path
         d="M 8.7699,15.4673 8.8175,15.3721"
         id="path155" />
      <path
         d="M 8.8175,15.3721 V 14.9912"
         id="path156" />
      <path
         d="M 9.2937,16.515 V 15.9435"
         id="path157" />
      <path
         d="m 9.2937,16.2293 h -1"
         id="path158" />
      <path
         d="M 8.2937,16.2293 8.4366,16.134"
         id="path159" />
      <path
         d="M 8.4366,16.134 8.5318,16.0388"
         id="path160" />
      <path
         d="M 8.5318,16.0388 8.5794,15.9435"
         id="path161" />
    </g>
    <text
       x="11.8869"
       y="6.4482002"
       transform="matrix(-1,0,0,1,23.773812,0)"
       textLength="1.9643"
       font-size="1.3333px"
       lengthAdjust="spacingAndGlyphs"
       text-anchor="middle"
       opacity="0"
       stroke-opacity="0"
       id="text161">J1</text>
    <g
       class="stroked-text"
       id="g171">
      <desc
         id="desc161">J1</desc>
      <path
         d="M 12.2202,5.4031 V 6.1174"
         id="path162" />
      <path
         d="m 12.2202,6.1174 0.0477,0.1428"
         id="path163" />
      <path
         d="m 12.2679,6.2602 0.0952,0.0952"
         id="path164" />
      <path
         d="M 12.3631,6.3554 12.506,6.4031"
         id="path165" />
      <path
         d="m 12.506,6.4031 h 0.0952"
         id="path166" />
      <path
         d="m 11.2202,6.4031 h 0.5715"
         id="path167" />
      <path
         d="m 11.506,6.4031 v -1"
         id="path168" />
      <path
         d="m 11.506,5.4031 0.0952,0.1428"
         id="path169" />
      <path
         d="m 11.6012,5.5459 0.0952,0.0953"
         id="path170" />
      <path
         d="m 11.6964,5.6412 0.0953,0.0476"
         id="path171" />
    </g>
    <g
       transform="rotate(-90,14.9349,15.7292)"
       id="g172">
      <text
         x="14.9349"
         y="16.2293"
         transform="matrix(-1,0,0,1,29.869812,0)"
         textLength="2.2024"
         font-size="1.3333px"
         lengthAdjust="spacingAndGlyphs"
         text-anchor="middle"
         opacity="0"
         stroke-opacity="0"
         id="text171">R2</text>
    </g>
    <g
       class="stroked-text"
       id="g192">
      <desc
         id="desc172">R2</desc>
      <path
         d="M 15.3897,15.5626 14.9135,15.2292"
         id="path172" />
      <path
         d="m 15.3897,14.9912 h -1"
         id="path173" />
      <path
         d="m 14.3897,14.9912 v 0.3809"
         id="path174" />
      <path
         d="m 14.3897,15.3721 0.0476,0.0952"
         id="path175" />
      <path
         d="M 14.4373,15.4673 14.485,15.515"
         id="path176" />
      <path
         d="m 14.485,15.515 0.0952,0.0476"
         id="path177" />
      <path
         d="m 14.5802,15.5626 h 0.1429"
         id="path178" />
      <path
         d="M 14.7231,15.5626 14.8183,15.515"
         id="path179" />
      <path
         d="m 14.8183,15.515 0.0476,-0.0477"
         id="path180" />
      <path
         d="m 14.8659,15.4673 0.0476,-0.0952"
         id="path181" />
      <path
         d="M 14.9135,15.3721 V 14.9912"
         id="path182" />
      <path
         d="m 14.485,15.9435 -0.0477,0.0477"
         id="path183" />
      <path
         d="m 14.4373,15.9912 -0.0476,0.0952"
         id="path184" />
      <path
         d="m 14.3897,16.0864 v 0.2381"
         id="path185" />
      <path
         d="m 14.3897,16.3245 0.0476,0.0952"
         id="path186" />
      <path
         d="m 14.4373,16.4197 0.0477,0.0476"
         id="path187" />
      <path
         d="m 14.485,16.4673 0.0952,0.0477"
         id="path188" />
      <path
         d="m 14.5802,16.515 h 0.0952"
         id="path189" />
      <path
         d="m 14.6754,16.515 0.1429,-0.0477"
         id="path190" />
      <path
         d="m 14.8183,16.4673 0.5714,-0.5714"
         id="path191" />
      <path
         d="M 15.3897,15.8959 V 16.515"
         id="path192" />
    </g>
    <g
       transform="rotate(-90,18.9989,9.3072)"
       id="g193">
      <text
         x="18.998899"
         y="9.8072004"
         transform="matrix(-1,0,0,1,37.997812,0)"
         textLength="2.0595"
         font-size="1.3333px"
         lengthAdjust="spacingAndGlyphs"
         text-anchor="middle"
         opacity="0"
         stroke-opacity="0"
         id="text192">F1</text>
    </g>
    <g
       class="stroked-text"
       id="g200">
      <desc
         id="desc193">F1</desc>
      <path
         d="M 18.9299,8.9739 V 8.6406"
         id="path193" />
      <path
         d="m 19.4537,8.6406 h -1"
         id="path194" />
      <path
         d="M 18.4537,8.6406 V 9.1168"
         id="path195" />
      <path
         d="M 19.4537,10.0215 V 9.4501"
         id="path196" />
      <path
         d="m 19.4537,9.7358 h -1"
         id="path197" />
      <path
         d="M 18.4537,9.7358 18.5966,9.6406"
         id="path198" />
      <path
         d="M 18.5966,9.6406 18.6918,9.5453"
         id="path199" />
      <path
         d="M 18.6918,9.5453 18.7394,9.4501"
         id="path200" />
    </g>
    <text
       x="18.2369"
       y="13.4902"
       transform="matrix(-1,0,0,1,36.473812,0)"
       textLength="2.2024"
       font-size="1.3333px"
       lengthAdjust="spacingAndGlyphs"
       text-anchor="middle"
       opacity="0"
       stroke-opacity="0"
       id="text200">D1</text>
    <g
       class="stroked-text"
       id="g217">
      <desc
         id="desc200">D1</desc>
      <path
         d="m 18.975,13.4451 v -1"
         id="path201" />
      <path
         d="M 18.975,12.4451 H 18.7369"
         id="path202" />
      <path
         d="M 18.7369,12.4451 18.594,12.4927"
         id="path203" />
      <path
         d="m 18.594,12.4927 -0.0952,0.0952"
         id="path204" />
      <path
         d="m 18.4988,12.5879 -0.0476,0.0953"
         id="path205" />
      <path
         d="m 18.4512,12.6832 -0.0476,0.1904"
         id="path206" />
      <path
         d="m 18.4036,12.8736 v 0.1429"
         id="path207" />
      <path
         d="m 18.4036,13.0165 0.0476,0.1905"
         id="path208" />
      <path
         d="m 18.4512,13.207 0.0476,0.0952"
         id="path209" />
      <path
         d="m 18.4988,13.3022 0.0952,0.0952"
         id="path210" />
      <path
         d="m 18.594,13.3974 0.1429,0.0477"
         id="path211" />
      <path
         d="M 18.7369,13.4451 H 18.975"
         id="path212" />
      <path
         d="m 17.4512,13.4451 h 0.5714"
         id="path213" />
      <path
         d="m 17.7369,13.4451 v -1"
         id="path214" />
      <path
         d="m 17.7369,12.4451 0.0952,0.1428"
         id="path215" />
      <path
         d="m 17.8321,12.5879 0.0953,0.0953"
         id="path216" />
      <path
         d="m 17.9274,12.6832 0.0952,0.0476"
         id="path217" />
    </g>
  </g>
  <g
     style="fill:none;stroke:#e8b2a7;stroke-width:0.12;stroke-linecap:round;stroke-linejoin:round;stroke-opacity:1"
     id="g220"
     transform="translate(-7.0669,-1.9882)">
    <path
       d="m 10.4769,11.6266 v 1"
       id="path218" />
    <path
       d="m 13.2969,11.6266 v 0.79"
       id="path219" />
    <path
       style="fill:#e8b2a7;fill-opacity:1;fill-rule:evenodd;stroke:#e8b2a7;stroke-width:0.12;stroke-linecap:round;stroke-linejoin:round;stroke-opacity:1"
       d="m 13.2969,13.0267 v -0.2801 h 0.28 z"
       id="path220" />
  </g>
  <g
     style="fill:none;stroke:#e8b2a7;stroke-width:0.12;stroke-linecap:round;stroke-linejoin:round;stroke-opacity:1"
     id="g234"
     transform="translate(-7.0669,-1.9882)">
    <path
       d="m 8.3164,12.992 v 0.4745"
       id="path221" />
    <path
       d="m 9.3614,12.992 v 0.4745"
       id="path222" />
    <path
       d="m 7.1869,2.0482 h 9.4"
       id="path223" />
    <path
       d="m 7.1869,3.9482 v -1.9"
       id="path224" />
    <path
       d="M 7.1869,7.8482 V 5.8483"
       id="path225" />
    <path
       d="m 16.5869,3.9482 v -1.9"
       id="path226" />
    <path
       d="M 16.5869,7.8482 V 5.8483"
       id="path227" />
    <path
       d="m 14.4124,12.992 v 0.4745"
       id="path228" />
    <path
       d="m 15.4574,12.992 v 0.4745"
       id="path229" />
    <path
       d="M 18.0889,8.7052 V 9.9093"
       id="path230" />
    <path
       d="M 19.9089,8.7052 V 9.9093"
       id="path231" />
    <path
       d="m 15.8769,11.9902 h 4.01"
       id="path232" />
    <path
       d="m 15.8769,13.9902 v -2"
       id="path233" />
    <path
       d="m 15.8769,13.9902 h 4.01"
       id="path234" />
  </g>
  <g
     style="fill:#e8b2a7;fill-opacity:1;stroke:none"
     id="g235"
     transform="translate(-7.0669,-1.9882)">
    <circle
       cx="8.9968996"
       cy="8.5481997"
       r="0.32499999"
       id="circle234" />
  </g>
  <g
     style="fill:#e8b2a7;fill-opacity:1;stroke:none"
     id="g236"
     transform="translate(-7.0669,-1.9882)">
    <circle
       cx="14.7769"
       cy="8.5481997"
       r="0.32499999"
       id="circle235" />
  </g>
  <g
     style="fill:none;stroke:#e8b2a7;stroke-width:0.6;stroke-linecap:round;stroke-linejoin:round;stroke-opacity:1"
     id="g239"
     transform="translate(-7.0669,-1.9882)">
    <path
       d="M 7.5669,4.5983 V 5.1982"
       id="path236" />
    <path
       d="m 7.5669,8.5282 v 1.1"
       id="path237" />
    <path
       d="M 16.2069,4.5983 V 5.1982"
       id="path238" />
    <path
       d="m 16.2069,8.5282 v 1.1"
       id="path239" />
  </g>
  <g
     style="fill:#000000;fill-opacity:1;stroke:none"
     id="g240"
     transform="translate(-7.0669,-1.9882)">
    <circle
       cx="8.9968996"
       cy="8.5481997"
       r="0.32499999"
       id="circle239" />
  </g>
  <g
     style="fill:#000000;fill-opacity:1;stroke:none"
     id="g241"
     transform="translate(-7.0669,-1.9882)">
    <circle
       cx="14.7769"
       cy="8.5481997"
       r="0.32499999"
       id="circle240" />
  </g>
  <g
     style="fill:none;stroke:#000000;stroke-width:0.6;stroke-linecap:round;stroke-linejoin:round;stroke-opacity:1"
     id="g244"
     transform="translate(-7.0669,-1.9882)">
    <path
       d="M 7.5669,4.5983 V 5.1982"
       id="path241" />
    <path
       d="m 7.5669,8.5282 v 1.1"
       id="path242" />
    <path
       d="M 16.2069,4.5983 V 5.1982"
       id="path243" />
    <path
       d="m 16.2069,8.5282 v 1.1"
       id="path244" />
  </g>
  <g
     style="fill:#ffffff;fill-opacity:1;stroke:none"
     id="g245"
     transform="translate(-7.0669,-1.9882)">
    <circle
       cx="8.9968996"
       cy="8.5481997"
       r="0.32499999"
       id="circle244" />
  </g>
  <g
     style="fill:#ffffff;fill-opacity:1;stroke:none"
     id="g246"
     transform="translate(-7.0669,-1.9882)">
    <circle
       cx="14.7769"
       cy="8.5481997"
       r="0.32499999"
       id="circle245" />
  </g>
  <g
     style="fill:none;stroke:#ffffff;stroke-width:0.6;stroke-linecap:round;stroke-linejoin:round;stroke-opacity:1"
     id="g249"
     transform="translate(-7.0669,-1.9882)">
    <path
       d="M 7.5669,4.5983 V 5.1982"
       id="path246" />
    <path
       d="m 7.5669,8.5282 v 1.1"
       id="path247" />
    <path
       d="M 16.2069,4.5983 V 5.1982"
       id="path248" />
    <path
       d="m 16.2069,8.5282 v 1.1"
       id="path249" />
  </g>
</svg>
