<?xml version="1.0" encoding="UTF-8" standalone="no"?>
<svg
   version="1.1"
   width="13.27cm"
   height="14.754807cm"
   viewBox="0 0 13.27 14.754807"
   id="svg249"
   sodipodi:docname="usb_udb_clone.svg"
   xmlns:inkscape="http://www.inkscape.org/namespaces/inkscape"
   xmlns:sodipodi="http://sodipodi.sourceforge.net/DTD/sodipodi-0.dtd"
   xmlns="http://www.w3.org/2000/svg"
   xmlns:svg="http://www.w3.org/2000/svg">
  <defs
     id="defs249" />
  <sodipodi:namedview
     id="namedview249"
     pagecolor="#ffffff"
     bordercolor="#cccccc"
     borderopacity="1"
     inkscape:showpageshadow="0"
     inkscape:pageopacity="1"
     inkscape:pagecheckerboard="0"
     inkscape:deskcolor="#d1d1d1"
     inkscape:document-units="cm" />
  <title
     id="title1">SVG Image created as usb_udb_clone.svg date 2025/04/08 19:27:59 </title>
  <desc
     id="desc1">Image generated by PCBNEW </desc>
  <g
     style="fill:#000000;fill-opacity:1;stroke:#000000;stroke-linecap:round;stroke-linejoin:round;stroke-opacity:1"
     id="g32"
     transform="translate(-3.4369,-1.9882)">
    <path
       style="fill:#c83434;fill-opacity:1;fill-rule:evenodd;stroke:none"
       d="m 5.3999,7.2822 0.0957,0.0191 0.0811,0.0542 0.0542,0.0811 0.019,0.0956 v 0.75 L 5.6309,8.3779 5.5767,8.459 5.4956,8.5132 5.3999,8.5322 h -1.25 L 4.0542,8.5132 3.9731,8.459 3.9189,8.3779 3.8999,8.2822 v -0.75 L 3.9189,7.4366 3.9731,7.3555 4.0542,7.3013 4.1499,7.2822 Z"
       id="path1" />
    <path
       style="fill:#c83434;fill-opacity:1;fill-rule:evenodd;stroke:none"
       d="m 5.3999,10.0823 0.0957,0.019 0.0811,0.0542 0.0542,0.0811 0.019,0.0957 v 0.75 l -0.019,0.0956 -0.0542,0.0811 -0.0811,0.0542 -0.0957,0.0191 h -1.25 L 4.0542,11.3132 3.9731,11.259 3.9189,11.1779 3.8999,11.0823 v -0.75 l 0.019,-0.0957 0.0542,-0.0811 0.0811,-0.0542 0.0957,-0.019 z"
       id="path2" />
    <path
       style="fill:#c83434;fill-opacity:1;fill-rule:evenodd;stroke:none"
       d="m 15.2099,12.0042 0.0765,0.0153 0.0649,0.0433 0.0434,0.0649 0.0152,0.0766 v 0.3999 l -0.0152,0.0766 -0.0434,0.0649 -0.0649,0.0433 -0.0765,0.0152 h -0.55 L 14.5834,12.789 14.5185,12.7457 14.4751,12.6808 14.4599,12.6042 v -0.3999 l 0.0152,-0.0766 0.0434,-0.0649 0.0649,-0.0433 0.0765,-0.0153 z"
       id="path3" />
    <path
       style="fill:#c83434;fill-opacity:1;fill-rule:evenodd;stroke:none"
       d="m 15.2099,13.6542 0.0765,0.0153 0.0649,0.0433 0.0434,0.0649 0.0152,0.0765 v 0.4 l -0.0152,0.0766 -0.0434,0.0649 -0.0649,0.0433 -0.0765,0.0153 h -0.55 L 14.5834,14.439 14.5185,14.3957 14.4751,14.3308 14.4599,14.2542 v -0.4 l 0.0152,-0.0765 0.0434,-0.0649 0.0649,-0.0433 0.0765,-0.0153 z"
       id="path4" />
    <path
       style="fill:#c83434;fill-opacity:1;fill-rule:evenodd;stroke:none"
       d="m 10.7369,12.3117 0.0057,-0.0288 0.0163,-0.0243 0.0243,-0.0162 0.0287,-0.0058 h 0.15 l 0.0287,0.0058 0.0243,0.0162 0.0163,0.0243 0.0057,0.0288 v 0.3999 l -0.0057,0.0288 -0.0163,0.0243 -0.0243,0.0162 -0.0287,0.0057 h -0.15 l -0.0287,-0.0057 -0.0243,-0.0162 -0.0163,-0.0243 -0.0057,-0.0288 z"
       id="path5" />
    <path
       style="fill:#c83434;fill-opacity:1;fill-rule:evenodd;stroke:none"
       d="m 11.2369,12.3117 0.0057,-0.0288 0.0163,-0.0243 0.0243,-0.0162 0.0287,-0.0058 h 0.15 l 0.0287,0.0058 0.0243,0.0162 0.0163,0.0243 0.0057,0.0288 v 0.3999 l -0.0057,0.0288 -0.0163,0.0243 -0.0243,0.0162 -0.0287,0.0057 h -0.15 l -0.0287,-0.0057 -0.0243,-0.0162 -0.0163,-0.0243 -0.0057,-0.0288 z"
       id="path6" />
    <path
       style="fill:#c83434;fill-opacity:1;fill-rule:evenodd;stroke:none"
       d="m 11.7369,12.3117 0.0057,-0.0288 0.0163,-0.0243 0.0243,-0.0162 0.0287,-0.0058 h 0.15 l 0.0287,0.0058 0.0243,0.0162 0.0163,0.0243 0.0057,0.0288 v 0.3999 l -0.0057,0.0288 -0.0163,0.0243 -0.0243,0.0162 -0.0287,0.0057 h -0.15 l -0.0287,-0.0057 -0.0243,-0.0162 -0.0163,-0.0243 -0.0057,-0.0288 z"
       id="path7" />
    <path
       style="fill:#c83434;fill-opacity:1;fill-rule:evenodd;stroke:none"
       d="m 12.2369,12.3117 0.0057,-0.0288 0.0163,-0.0243 0.0243,-0.0162 0.0287,-0.0058 h 0.15 l 0.0287,0.0058 0.0243,0.0162 0.0163,0.0243 0.0057,0.0288 v 0.3999 l -0.0057,0.0288 -0.0163,0.0243 -0.0243,0.0162 -0.0287,0.0057 h -0.15 l -0.0287,-0.0057 -0.0243,-0.0162 -0.0163,-0.0243 -0.0057,-0.0288 z"
       id="path8" />
    <path
       style="fill:#c83434;fill-opacity:1;fill-rule:evenodd;stroke:none"
       d="m 12.7369,12.3117 0.0057,-0.0288 0.0163,-0.0243 0.0243,-0.0162 0.0287,-0.0058 h 0.15 l 0.0287,0.0058 0.0243,0.0162 0.0163,0.0243 0.0057,0.0288 v 0.3999 l -0.0057,0.0288 -0.0163,0.0243 -0.0243,0.0162 -0.0287,0.0057 h -0.15 l -0.0287,-0.0057 -0.0243,-0.0162 -0.0163,-0.0243 -0.0057,-0.0288 z"
       id="path9" />
    <path
       style="fill:#c83434;fill-opacity:1;fill-rule:evenodd;stroke:none"
       d="m 12.7369,11.5416 0.0057,-0.0287 0.0163,-0.0243 0.0243,-0.0162 0.0287,-0.0058 h 0.15 l 0.0287,0.0058 0.0243,0.0162 0.0163,0.0243 0.0057,0.0287 v 0.4 l -0.0057,0.0288 -0.0163,0.0243 -0.0243,0.0162 -0.0287,0.0058 h -0.15 l -0.0287,-0.0058 -0.0243,-0.0162 -0.0163,-0.0243 -0.0057,-0.0288 z"
       id="path10" />
    <path
       style="fill:#c83434;fill-opacity:1;fill-rule:evenodd;stroke:none"
       d="m 12.2369,11.5416 0.0057,-0.0287 0.0163,-0.0243 0.0243,-0.0162 0.0287,-0.0058 h 0.15 l 0.0287,0.0058 0.0243,0.0162 0.0163,0.0243 0.0057,0.0287 v 0.4 l -0.0057,0.0288 -0.0163,0.0243 -0.0243,0.0162 -0.0287,0.0058 h -0.15 l -0.0287,-0.0058 -0.0243,-0.0162 -0.0163,-0.0243 -0.0057,-0.0288 z"
       id="path11" />
    <path
       style="fill:#c83434;fill-opacity:1;fill-rule:evenodd;stroke:none"
       d="m 11.7369,11.5416 0.0057,-0.0287 0.0163,-0.0243 0.0243,-0.0162 0.0287,-0.0058 h 0.15 l 0.0287,0.0058 0.0243,0.0162 0.0163,0.0243 0.0057,0.0287 v 0.4 l -0.0057,0.0288 -0.0163,0.0243 -0.0243,0.0162 -0.0287,0.0058 h -0.15 l -0.0287,-0.0058 -0.0243,-0.0162 -0.0163,-0.0243 -0.0057,-0.0288 z"
       id="path12" />
    <path
       style="fill:#c83434;fill-opacity:1;fill-rule:evenodd;stroke:none"
       d="m 11.2369,11.5416 0.0057,-0.0287 0.0163,-0.0243 0.0243,-0.0162 0.0287,-0.0058 h 0.15 l 0.0287,0.0058 0.0243,0.0162 0.0163,0.0243 0.0057,0.0287 v 0.4 l -0.0057,0.0288 -0.0163,0.0243 -0.0243,0.0162 -0.0287,0.0058 h -0.15 l -0.0287,-0.0058 -0.0243,-0.0162 -0.0163,-0.0243 -0.0057,-0.0288 z"
       id="path13" />
    <path
       style="fill:#c83434;fill-opacity:1;fill-rule:evenodd;stroke:none"
       d="m 10.7369,11.5416 0.0057,-0.0287 0.0163,-0.0243 0.0243,-0.0162 0.0287,-0.0058 h 0.15 l 0.0287,0.0058 0.0243,0.0162 0.0163,0.0243 0.0057,0.0287 v 0.4 l -0.0057,0.0288 -0.0163,0.0243 -0.0243,0.0162 -0.0287,0.0058 h -0.15 l -0.0287,-0.0058 -0.0243,-0.0162 -0.0163,-0.0243 -0.0057,-0.0288 z"
       id="path14" />
    <path
       style="fill:#c83434;fill-opacity:1;fill-rule:evenodd;stroke:none"
       d="M 7.6369,13.3652 7.6198,13.4514 7.571,13.5243 7.498,13.5731 7.4119,13.5902 h -0.45 L 6.8758,13.5731 6.8028,13.5243 6.754,13.4514 6.7369,13.3652 v -0.75 l 0.0171,-0.0861 0.0488,-0.0729 0.073,-0.0488 0.0861,-0.0172 h 0.45 l 0.0861,0.0172 0.073,0.0488 0.0488,0.0729 0.0171,0.0861 z"
       id="path15" />
    <path
       style="fill:#c83434;fill-opacity:1;fill-rule:evenodd;stroke:none"
       d="M 4.3369,13.3652 4.3198,13.4514 4.271,13.5243 4.198,13.5731 4.1119,13.5902 h -0.45 L 3.5758,13.5731 3.5028,13.5243 3.454,13.4514 3.4369,13.3652 v -0.75 l 0.0171,-0.0861 0.0488,-0.0729 0.073,-0.0488 0.0861,-0.0172 h 0.45 l 0.0861,0.0172 0.073,0.0488 0.0488,0.0729 0.0171,0.0861 z"
       id="path16" />
    <path
       style="fill:#c83434;fill-opacity:1;fill-rule:evenodd;stroke:none"
       d="m 15.4369,9.2683 v 1.4499 h -0.6 V 9.2683 Z"
       id="path17" />
    <path
       style="fill:#c83434;fill-opacity:1;fill-rule:evenodd;stroke:none"
       d="m 14.6369,9.2683 v 1.4499 h -0.6 V 9.2683 Z"
       id="path18" />
    <path
       style="fill:#c83434;fill-opacity:1;fill-rule:evenodd;stroke:none"
       d="m 13.2869,9.2683 v 1.4499 h -0.3 V 9.2683 Z"
       id="path19" />
    <path
       style="fill:#c83434;fill-opacity:1;fill-rule:evenodd;stroke:none"
       d="m 12.2869,9.2683 v 1.4499 h -0.3 V 9.2683 Z"
       id="path20" />
    <path
       style="fill:#c83434;fill-opacity:1;fill-rule:evenodd;stroke:none"
       d="m 11.7869,9.2683 v 1.4499 h -0.3 V 9.2683 Z"
       id="path21" />
    <path
       style="fill:#c83434;fill-opacity:1;fill-rule:evenodd;stroke:none"
       d="m 10.7869,9.2683 v 1.4499 h -0.3 V 9.2683 Z"
       id="path22" />
    <path
       style="fill:#c83434;fill-opacity:1;fill-rule:evenodd;stroke:none"
       d="m 9.7369,9.2683 v 1.4499 h -0.6 V 9.2683 Z"
       id="path23" />
    <path
       style="fill:#c83434;fill-opacity:1;fill-rule:evenodd;stroke:none"
       d="m 8.9369,9.2683 v 1.4499 h -0.6 V 9.2683 Z"
       id="path24" />
    <path
       style="fill:#c83434;fill-opacity:1;fill-rule:evenodd;stroke:none"
       d="m 8.9369,9.2683 v 1.4499 h -0.6 V 9.2683 Z"
       id="path25" />
    <path
       style="fill:#c83434;fill-opacity:1;fill-rule:evenodd;stroke:none"
       d="m 9.7369,9.2683 v 1.4499 h -0.6 V 9.2683 Z"
       id="path26" />
    <path
       style="fill:#c83434;fill-opacity:1;fill-rule:evenodd;stroke:none"
       d="m 10.2869,9.2683 v 1.4499 h -0.3 V 9.2683 Z"
       id="path27" />
    <path
       style="fill:#c83434;fill-opacity:1;fill-rule:evenodd;stroke:none"
       d="m 11.2869,9.2683 v 1.4499 h -0.3 V 9.2683 Z"
       id="path28" />
    <path
       style="fill:#c83434;fill-opacity:1;fill-rule:evenodd;stroke:none"
       d="m 12.7869,9.2683 v 1.4499 h -0.3 V 9.2683 Z"
       id="path29" />
    <path
       style="fill:#c83434;fill-opacity:1;fill-rule:evenodd;stroke:none"
       d="m 13.7869,9.2683 v 1.4499 h -0.3 V 9.2683 Z"
       id="path30" />
    <path
       style="fill:#c83434;fill-opacity:1;fill-rule:evenodd;stroke:none"
       d="m 14.6369,9.2683 v 1.4499 h -0.6 V 9.2683 Z"
       id="path31" />
    <path
       style="fill:#c83434;fill-opacity:1;fill-rule:evenodd;stroke:none"
       d="m 15.4369,9.2683 v 1.4499 h -0.6 V 9.2683 Z"
       id="path32" />
  </g>
  <g
     style="fill:none;stroke:#c83434;stroke-width:1;stroke-linecap:round;stroke-linejoin:round;stroke-opacity:1"
     id="g38"
     transform="translate(-3.4369,-1.9882)">
    <path
       d="m 16.2069,9.6282 v -1.1"
       id="path33" />
    <path
       d="M 16.2069,5.1982 V 4.5983"
       id="path34" />
    <path
       d="m 7.5669,9.6282 v -1.1"
       id="path35" />
    <path
       d="M 7.5669,5.1982 V 4.5983"
       id="path36" />
    <path
       style="fill:#c83434;fill-opacity:1;fill-rule:evenodd;stroke:none"
       d="m 9.1139,12.0042 0.0765,0.0153 0.0649,0.0433 0.0434,0.0649 0.0152,0.0766 v 0.3999 L 9.2987,12.6808 9.2553,12.7457 9.1904,12.789 9.1139,12.8042 h -0.55 L 8.4874,12.789 8.4225,12.7457 8.3791,12.6808 8.3639,12.6042 v -0.3999 l 0.0152,-0.0766 0.0434,-0.0649 0.0649,-0.0433 0.0765,-0.0153 z"
       id="path37" />
    <path
       style="fill:#c83434;fill-opacity:1;fill-rule:evenodd;stroke:none"
       d="m 9.1139,13.6542 0.0765,0.0153 0.0649,0.0433 0.0434,0.0649 0.0152,0.0765 v 0.4 L 9.2987,14.3308 9.2553,14.3957 9.1904,14.439 9.1139,14.4543 h -0.55 L 8.4874,14.439 8.4225,14.3957 8.3791,14.3308 8.3639,14.2542 v -0.4 l 0.0152,-0.0765 0.0434,-0.0649 0.0649,-0.0433 0.0765,-0.0153 z"
       id="path38" />
  </g>
  <g
     style="fill:#c83434;fill-opacity:1;stroke:none"
     id="g39"
     transform="translate(-3.4369,-1.9882)">
    <circle
       cx="11.8869"
       cy="13.3483"
       r="0.22499999"
       id="circle38" />
  </g>
  <g
     style="fill:#c83434;fill-opacity:1;stroke:none"
     id="g40"
     transform="translate(-3.4369,-1.9882)">
    <circle
       cx="9.4369001"
       cy="11.3392"
       r="0.22499999"
       id="circle39" />
  </g>
  <g
     style="fill:#c83434;fill-opacity:1;stroke:none"
     id="g41"
     transform="translate(-3.4369,-1.9882)">
    <circle
       cx="14.3369"
       cy="11.3392"
       r="0.22499999"
       id="circle40" />
  </g>
  <g
     style="fill:#c83434;fill-opacity:1;stroke:none"
     id="g42"
     transform="translate(-3.4369,-1.9882)">
    <circle
       cx="11.3869"
       cy="14.6482"
       r="0.22499999"
       id="circle41" />
  </g>
  <g
     style="fill:#c83434;fill-opacity:1;stroke:none"
     id="g43"
     transform="translate(-3.4369,-1.9882)">
    <circle
       cx="13.1569"
       cy="12.9902"
       r="0.22499999"
       id="circle42" />
  </g>
  <g
     style="fill:#c83434;fill-opacity:1;stroke:none"
     id="g44"
     transform="translate(-3.4369,-1.9882)">
    <circle
       cx="12.3869"
       cy="14.6482"
       r="0.22499999"
       id="circle43" />
  </g>
  <g
     style="fill:#c83434;fill-opacity:1;stroke:none"
     id="g45"
     transform="translate(-3.4369,-1.9882)">
    <circle
       cx="10.6169"
       cy="12.9902"
       r="0.22499999"
       id="circle44" />
  </g>
  <g
     style="fill:none;stroke:#c83434;stroke-width:0.508;stroke-linecap:round;stroke-linejoin:round;stroke-opacity:1"
     id="g51"
     transform="translate(-3.4369,-1.9882)">
    <path
       d="M 3.8869,12.9902 V 11.5953"
       id="path45" />
    <path
       d="M 6.9489,15.1492 6.1154,14.3157"
       id="path46" />
    <path
       d="M 9.3579,15.1492 H 6.9489"
       id="path47" />
    <path
       d="M 4.3044,14.3157 3.8869,13.8982"
       id="path48" />
    <path
       d="M 6.1154,14.3157 H 4.3044"
       id="path49" />
    <path
       d="m 3.8869,11.5953 0.888,-0.888"
       id="path50" />
    <path
       d="m 3.8869,13.8982 v -0.908"
       id="path51" />
  </g>
  <g
     style="fill:none;stroke:#c83434;stroke-width:0.254;stroke-linecap:round;stroke-linejoin:round;stroke-opacity:1"
     id="g52"
     transform="translate(-3.4369,-1.9882)">
    <path
       d="m 11.8869,11.7416 v 1.6067"
       id="path52" />
  </g>
  <g
     style="fill:none;stroke:#c83434;stroke-width:0.508;stroke-linecap:round;stroke-linejoin:round;stroke-opacity:1"
     id="g59"
     transform="translate(-3.4369,-1.9882)">
    <path
       d="m 9.4369,9.6682 v 1.671"
       id="path53" />
    <path
       d="M 9.4369,11.3392 H 7.6163"
       id="path54" />
    <path
       d="M 6.0089,7.9072 H 4.7749"
       id="path55" />
    <path
       d="M 7.6163,11.3392 6.5619,10.2849"
       id="path56" />
    <path
       d="m 14.3369,9.6682 v 1.671"
       id="path57" />
    <path
       d="M 6.5619,8.4603 6.0089,7.9072"
       id="path58" />
    <path
       d="M 6.5619,10.2849 V 8.4603"
       id="path59" />
  </g>
  <g
     style="fill:none;stroke:#c83434;stroke-width:0.254;stroke-linecap:round;stroke-linejoin:round;stroke-opacity:1"
     id="g62"
     transform="translate(-3.4369,-1.9882)">
    <path
       d="m 12.8869,12.5116 v 0.2087"
       id="path60" />
    <path
       d="m 12.8869,12.7203 0.27,0.2699"
       id="path61" />
    <path
       d="m 11.3869,11.3483 0.25,-0.25"
       id="path62" />
  </g>
  <g
     style="fill:none;stroke:#c83434;stroke-width:0.1524;stroke-linecap:round;stroke-linejoin:round;stroke-opacity:1"
     id="g64"
     transform="translate(-3.4369,-1.9882)">
    <path
       d="M 12.6369,10.9391 V 9.9932"
       id="path63" />
    <path
       d="m 12.8869,11.1891 -0.25,-0.25"
       id="path64" />
  </g>
  <g
     style="fill:none;stroke:#c83434;stroke-width:0.254;stroke-linecap:round;stroke-linejoin:round;stroke-opacity:1"
     id="g66"
     transform="translate(-3.4369,-1.9882)">
    <path
       d="M 11.6369,11.0983 V 9.9932"
       id="path65" />
    <path
       d="M 11.3869,14.6482 V 11.3483"
       id="path66" />
  </g>
  <g
     style="fill:none;stroke:#c83434;stroke-width:0.1524;stroke-linecap:round;stroke-linejoin:round;stroke-opacity:1"
     id="g67"
     transform="translate(-3.4369,-1.9882)">
    <path
       d="M 12.8869,12.5116 V 11.1891"
       id="path67" />
  </g>
  <g
     style="fill:none;stroke:#c83434;stroke-width:0.254;stroke-linecap:round;stroke-linejoin:round;stroke-opacity:1"
     id="g69"
     transform="translate(-3.4369,-1.9882)">
    <path
       d="M 12.3869,14.6482 V 11.3483"
       id="path68" />
    <path
       d="M 12.1369,11.0983 V 9.9932"
       id="path69" />
  </g>
  <g
     style="fill:none;stroke:#c83434;stroke-width:0.1524;stroke-linecap:round;stroke-linejoin:round;stroke-opacity:1"
     id="g70"
     transform="translate(-3.4369,-1.9882)">
    <path
       d="M 10.8869,12.5116 V 11.1891"
       id="path70" />
  </g>
  <g
     style="fill:none;stroke:#c83434;stroke-width:0.254;stroke-linecap:round;stroke-linejoin:round;stroke-opacity:1"
     id="g71"
     transform="translate(-3.4369,-1.9882)">
    <path
       d="m 10.8869,12.5116 v 0.2087"
       id="path71" />
  </g>
  <g
     style="fill:none;stroke:#c83434;stroke-width:0.1524;stroke-linecap:round;stroke-linejoin:round;stroke-opacity:1"
     id="g72"
     transform="translate(-3.4369,-1.9882)">
    <path
       d="M 11.1369,10.9391 V 9.9932"
       id="path72" />
  </g>
  <g
     style="fill:none;stroke:#c83434;stroke-width:0.254;stroke-linecap:round;stroke-linejoin:round;stroke-opacity:1"
     id="g73"
     transform="translate(-3.4369,-1.9882)">
    <path
       d="m 12.3869,11.3483 -0.25,-0.25"
       id="path73" />
  </g>
  <g
     style="fill:none;stroke:#c83434;stroke-width:0.1524;stroke-linecap:round;stroke-linejoin:round;stroke-opacity:1"
     id="g74"
     transform="translate(-3.4369,-1.9882)">
    <path
       d="m 10.8869,11.1891 0.25,-0.25"
       id="path74" />
  </g>
  <g
     style="fill:none;stroke:#c83434;stroke-width:0.254;stroke-linecap:round;stroke-linejoin:round;stroke-opacity:1"
     id="g83"
     transform="translate(-3.4369,-1.9882)">
    <path
       d="m 10.8869,12.7203 -0.27,0.2699"
       id="path75" />
    <path
       d="m 13.1369,10.8674 0.472,0.472"
       id="path76" />
    <path
       d="m 13.6089,11.3394 v 0.5808"
       id="path77" />
    <path
       d="m 14.0929,12.4042 h 0.842"
       id="path78" />
    <path
       d="m 13.6089,11.9202 0.484,0.484"
       id="path79" />
    <path
       d="m 13.1369,9.9932 v 0.8742"
       id="path80" />
    <path
       d="M 10.1369,11.9982 V 9.9932"
       id="path81" />
    <path
       d="m 9.7309,12.4042 0.406,-0.406"
       id="path82" />
    <path
       d="m 8.8389,12.4042 h 0.892"
       id="path83" />
  </g>
  <g
     style="fill:#ffffff;fill-opacity:1;stroke:none"
     id="g84"
     transform="translate(-3.4369,-1.9882)">
    <circle
       cx="11.8869"
       cy="13.3483"
       r="0.1524"
       id="circle83" />
  </g>
  <g
     style="fill:#ffffff;fill-opacity:1;stroke:none"
     id="g85"
     transform="translate(-3.4369,-1.9882)">
    <circle
       cx="9.4369001"
       cy="11.3392"
       r="0.1524"
       id="circle84" />
  </g>
  <g
     style="fill:#ffffff;fill-opacity:1;stroke:none"
     id="g86"
     transform="translate(-3.4369,-1.9882)">
    <circle
       cx="14.3369"
       cy="11.3392"
       r="0.1524"
       id="circle85" />
  </g>
  <g
     style="fill:#ffffff;fill-opacity:1;stroke:none"
     id="g87"
     transform="translate(-3.4369,-1.9882)">
    <circle
       cx="11.3869"
       cy="14.6482"
       r="0.1524"
       id="circle86" />
  </g>
  <g
     style="fill:#ffffff;fill-opacity:1;stroke:none"
     id="g88"
     transform="translate(-3.4369,-1.9882)">
    <circle
       cx="13.1569"
       cy="12.9902"
       r="0.1524"
       id="circle87" />
  </g>
  <g
     style="fill:#ffffff;fill-opacity:1;stroke:none"
     id="g89"
     transform="translate(-3.4369,-1.9882)">
    <circle
       cx="12.3869"
       cy="14.6482"
       r="0.1524"
       id="circle88" />
  </g>
  <g
     style="fill:#ffffff;fill-opacity:1;stroke:none"
     id="g90"
     transform="translate(-3.4369,-1.9882)">
    <circle
       cx="10.6169"
       cy="12.9902"
       r="0.1524"
       id="circle89" />
  </g>
  <g
     style="fill:#ffffff;fill-opacity:1;stroke:none"
     id="g91"
     transform="translate(-3.4369,-1.9882)">
    <circle
       cx="14.7769"
       cy="8.5481997"
       r="0.32499999"
       id="circle90" />
  </g>
  <g
     style="fill:#ffffff;fill-opacity:1;stroke:none"
     id="g92"
     transform="translate(-3.4369,-1.9882)">
    <circle
       cx="8.9968996"
       cy="8.5481997"
       r="0.32499999"
       id="circle91" />
  </g>
  <g
     style="fill:none;stroke:#ffffff;stroke-width:0.6;stroke-linecap:round;stroke-linejoin:round;stroke-opacity:1"
     id="g95"
     transform="translate(-3.4369,-1.9882)">
    <path
       d="m 16.2069,9.6282 v -1.1"
       id="path92" />
    <path
       d="M 16.2069,5.1982 V 4.5983"
       id="path93" />
    <path
       d="m 7.5669,9.6282 v -1.1"
       id="path94" />
    <path
       d="M 7.5669,5.1982 V 4.5983"
       id="path95" />
  </g>
  <g
     style="fill:none;stroke:#4d7fc4;stroke-width:1;stroke-linecap:round;stroke-linejoin:round;stroke-opacity:1"
     id="g99"
     transform="translate(-3.4369,-1.9882)">
    <path
       d="m 16.2069,9.6282 v -1.1"
       id="path96" />
    <path
       d="M 16.2069,5.1982 V 4.5983"
       id="path97" />
    <path
       d="m 7.5669,9.6282 v -1.1"
       id="path98" />
    <path
       d="M 7.5669,5.1982 V 4.5983"
       id="path99" />
  </g>
  <g
     style="fill:#4d7fc4;fill-opacity:1;stroke:none"
     id="g100"
     transform="translate(-3.4369,-1.9882)">
    <circle
       cx="11.8869"
       cy="13.3483"
       r="0.22499999"
       id="circle99" />
  </g>
  <g
     style="fill:#4d7fc4;fill-opacity:1;stroke:none"
     id="g101"
     transform="translate(-3.4369,-1.9882)">
    <circle
       cx="9.4369001"
       cy="11.3392"
       r="0.22499999"
       id="circle100" />
  </g>
  <g
     style="fill:#4d7fc4;fill-opacity:1;stroke:none"
     id="g102"
     transform="translate(-3.4369,-1.9882)">
    <circle
       cx="14.3369"
       cy="11.3392"
       r="0.22499999"
       id="circle101" />
  </g>
  <g
     style="fill:#4d7fc4;fill-opacity:1;stroke:none"
     id="g103"
     transform="translate(-3.4369,-1.9882)">
    <circle
       cx="11.3869"
       cy="14.6482"
       r="0.22499999"
       id="circle102" />
  </g>
  <g
     style="fill:#4d7fc4;fill-opacity:1;stroke:none"
     id="g104"
     transform="translate(-3.4369,-1.9882)">
    <circle
       cx="13.1569"
       cy="12.9902"
       r="0.22499999"
       id="circle103" />
  </g>
  <g
     style="fill:#4d7fc4;fill-opacity:1;stroke:none"
     id="g105"
     transform="translate(-3.4369,-1.9882)">
    <circle
       cx="12.3869"
       cy="14.6482"
       r="0.22499999"
       id="circle104" />
  </g>
  <g
     style="fill:#4d7fc4;fill-opacity:1;stroke:none"
     id="g106"
     transform="translate(-3.4369,-1.9882)">
    <circle
       cx="10.6169"
       cy="12.9902"
       r="0.22499999"
       id="circle105" />
  </g>
  <g
     style="fill:none;stroke:#4d7fc4;stroke-width:0.508;stroke-linecap:round;stroke-linejoin:round;stroke-opacity:1"
     id="g107"
     transform="translate(-3.4369,-1.9882)">
    <path
       d="m 9.4369,11.3392 h 4.9"
       id="path106" />
  </g>
  <g
     style="fill:none;stroke:#4d7fc4;stroke-width:0.1524;stroke-linecap:round;stroke-linejoin:round;stroke-opacity:1"
     id="g114"
     transform="translate(-3.4369,-1.9882)">
    <path
       d="m 13.1569,14.5885 -0.562,0.5619"
       id="path107" />
    <path
       d="M 11.8891,15.1504 11.3869,14.6482"
       id="path108" />
    <path
       d="m 13.1569,12.9902 v 1.5983"
       id="path109" />
    <path
       d="M 12.5949,15.1504 H 11.8891"
       id="path110" />
    <path
       d="m 10.8709,13.6252 h 0.493"
       id="path111" />
    <path
       d="m 10.6169,12.9902 v 0.381"
       id="path112" />
    <path
       d="m 10.6169,13.3712 0.254,0.254"
       id="path113" />
    <path
       d="m 11.3639,13.6252 1.023,1.023"
       id="path114" />
  </g>
  <g
     style="fill:#ffffff;fill-opacity:1;stroke:none"
     id="g115"
     transform="translate(-3.4369,-1.9882)">
    <circle
       cx="11.8869"
       cy="13.3483"
       r="0.1524"
       id="circle114" />
  </g>
  <g
     style="fill:#ffffff;fill-opacity:1;stroke:none"
     id="g116"
     transform="translate(-3.4369,-1.9882)">
    <circle
       cx="9.4369001"
       cy="11.3392"
       r="0.1524"
       id="circle115" />
  </g>
  <g
     style="fill:#ffffff;fill-opacity:1;stroke:none"
     id="g117"
     transform="translate(-3.4369,-1.9882)">
    <circle
       cx="14.3369"
       cy="11.3392"
       r="0.1524"
       id="circle116" />
  </g>
  <g
     style="fill:#ffffff;fill-opacity:1;stroke:none"
     id="g118"
     transform="translate(-3.4369,-1.9882)">
    <circle
       cx="11.3869"
       cy="14.6482"
       r="0.1524"
       id="circle117" />
  </g>
  <g
     style="fill:#ffffff;fill-opacity:1;stroke:none"
     id="g119"
     transform="translate(-3.4369,-1.9882)">
    <circle
       cx="13.1569"
       cy="12.9902"
       r="0.1524"
       id="circle118" />
  </g>
  <g
     style="fill:#ffffff;fill-opacity:1;stroke:none"
     id="g120"
     transform="translate(-3.4369,-1.9882)">
    <circle
       cx="12.3869"
       cy="14.6482"
       r="0.1524"
       id="circle119" />
  </g>
  <g
     style="fill:#ffffff;fill-opacity:1;stroke:none"
     id="g121"
     transform="translate(-3.4369,-1.9882)">
    <circle
       cx="10.6169"
       cy="12.9902"
       r="0.1524"
       id="circle120" />
  </g>
  <g
     style="fill:#ffffff;fill-opacity:1;stroke:none"
     id="g122"
     transform="translate(-3.4369,-1.9882)">
    <circle
       cx="14.7769"
       cy="8.5481997"
       r="0.32499999"
       id="circle121" />
  </g>
  <g
     style="fill:#ffffff;fill-opacity:1;stroke:none"
     id="g123"
     transform="translate(-3.4369,-1.9882)">
    <circle
       cx="8.9968996"
       cy="8.5481997"
       r="0.32499999"
       id="circle122" />
  </g>
  <g
     style="fill:none;stroke:#ffffff;stroke-width:0.6;stroke-linecap:round;stroke-linejoin:round;stroke-opacity:1"
     id="g126"
     transform="translate(-3.4369,-1.9882)">
    <path
       d="m 16.2069,9.6282 v -1.1"
       id="path123" />
    <path
       d="M 16.2069,5.1982 V 4.5983"
       id="path124" />
    <path
       d="m 7.5669,9.6282 v -1.1"
       id="path125" />
    <path
       d="M 7.5669,5.1982 V 4.5983"
       id="path126" />
  </g>
  <g
     style="fill:none;stroke:#f2eda1;stroke-width:0.15;stroke-linecap:round;stroke-linejoin:round;stroke-opacity:1"
     id="g213"
     transform="translate(-3.4369,-1.9882)">
    <g
       transform="rotate(-90,4.7749,9.3072)"
       id="g127">
      <text
         x="4.7749"
         y="9.8072004"
         textLength="2.0595"
         font-size="1.3333px"
         lengthAdjust="spacingAndGlyphs"
         text-anchor="middle"
         opacity="0"
         stroke-opacity="0"
         id="text126">F1</text>
    </g>
    <g
       class="stroked-text"
       id="g134">
      <desc
         id="desc127">F1</desc>
      <path
         d="M 4.7059,9.6406 V 9.9739"
         id="path127" />
      <path
         d="m 5.2297,9.9739 h -1"
         id="path128" />
      <path
         d="M 4.2297,9.9739 V 9.4977"
         id="path129" />
      <path
         d="M 5.2297,8.593 V 9.1644"
         id="path130" />
      <path
         d="m 5.2297,8.8787 h -1"
         id="path131" />
      <path
         d="M 4.2297,8.8787 4.3726,8.9739"
         id="path132" />
      <path
         d="M 4.3726,8.9739 4.4678,9.0692"
         id="path133" />
      <path
         d="M 4.4678,9.0692 4.5154,9.1644"
         id="path134" />
    </g>
    <g
       transform="rotate(-90,14.9349,15.7292)"
       id="g135">
      <text
         x="14.9349"
         y="16.2293"
         textLength="2.2024"
         font-size="1.3333px"
         lengthAdjust="spacingAndGlyphs"
         text-anchor="middle"
         opacity="0"
         stroke-opacity="0"
         id="text134">R1</text>
    </g>
    <g
       class="stroked-text"
       id="g150">
      <desc
         id="desc135">R1</desc>
      <path
         d="m 15.3897,15.8959 -0.4762,0.3333"
         id="path135" />
      <path
         d="m 15.3897,16.4673 h -1"
         id="path136" />
      <path
         d="M 14.3897,16.4673 V 16.0864"
         id="path137" />
      <path
         d="m 14.3897,16.0864 0.0476,-0.0952"
         id="path138" />
      <path
         d="M 14.4373,15.9912 14.485,15.9435"
         id="path139" />
      <path
         d="m 14.485,15.9435 0.0952,-0.0476"
         id="path140" />
      <path
         d="m 14.5802,15.8959 h 0.1429"
         id="path141" />
      <path
         d="m 14.7231,15.8959 0.0952,0.0476"
         id="path142" />
      <path
         d="m 14.8183,15.9435 0.0476,0.0477"
         id="path143" />
      <path
         d="m 14.8659,15.9912 0.0476,0.0952"
         id="path144" />
      <path
         d="m 14.9135,16.0864 v 0.3809"
         id="path145" />
      <path
         d="M 15.3897,14.9435 V 15.515"
         id="path146" />
      <path
         d="m 15.3897,15.2292 h -1"
         id="path147" />
      <path
         d="m 14.3897,15.2292 0.1429,0.0953"
         id="path148" />
      <path
         d="m 14.5326,15.3245 0.0952,0.0952"
         id="path149" />
      <path
         d="m 14.6278,15.4197 0.0476,0.0953"
         id="path150" />
    </g>
    <g
       transform="rotate(-90,10.3869,14.1266)"
       id="g151">
      <text
         x="10.3869"
         y="14.6266"
         textLength="2.25"
         font-size="1.3333px"
         lengthAdjust="spacingAndGlyphs"
         text-anchor="middle"
         opacity="0"
         stroke-opacity="0"
         id="text150">U1</text>
    </g>
    <g
       class="stroked-text"
       id="g164">
      <desc
         id="desc151">U1</desc>
      <path
         d="m 9.8417,14.8886 h 0.8095"
         id="path151" />
      <path
         d="m 10.6512,14.8886 0.0953,-0.0477"
         id="path152" />
      <path
         d="m 10.7465,14.8409 0.0476,-0.0476"
         id="path153" />
      <path
         d="m 10.7941,14.7933 0.0476,-0.0952"
         id="path154" />
      <path
         d="M 10.8417,14.6981 V 14.5076"
         id="path155" />
      <path
         d="M 10.8417,14.5076 10.7941,14.4124"
         id="path156" />
      <path
         d="M 10.7941,14.4124 10.7465,14.3647"
         id="path157" />
      <path
         d="M 10.7465,14.3647 10.6512,14.3171"
         id="path158" />
      <path
         d="M 10.6512,14.3171 H 9.8417"
         id="path159" />
      <path
         d="m 10.8417,13.3171 v 0.5715"
         id="path160" />
      <path
         d="m 10.8417,13.6028 h -1"
         id="path161" />
      <path
         d="m 9.8417,13.6028 0.1429,0.0953"
         id="path162" />
      <path
         d="m 9.9846,13.6981 0.0952,0.0952"
         id="path163" />
      <path
         d="m 10.0798,13.7933 0.0476,0.0953"
         id="path164" />
    </g>
    <text
       x="5.5369"
       y="13.4902"
       textLength="2.2024"
       font-size="1.3333px"
       lengthAdjust="spacingAndGlyphs"
       text-anchor="middle"
       opacity="0"
       stroke-opacity="0"
       id="text164">D1</text>
    <g
       class="stroked-text"
       id="g181">
      <desc
         id="desc164">D1</desc>
      <path
         d="m 4.7988,13.4451 v -1"
         id="path165" />
      <path
         d="M 4.7988,12.4451 H 5.0369"
         id="path166" />
      <path
         d="m 5.0369,12.4451 0.1429,0.0476"
         id="path167" />
      <path
         d="M 5.1798,12.4927 5.275,12.5879"
         id="path168" />
      <path
         d="m 5.275,12.5879 0.0476,0.0953"
         id="path169" />
      <path
         d="m 5.3226,12.6832 0.0476,0.1904"
         id="path170" />
      <path
         d="m 5.3702,12.8736 v 0.1429"
         id="path171" />
      <path
         d="M 5.3702,13.0165 5.3226,13.207"
         id="path172" />
      <path
         d="M 5.3226,13.207 5.275,13.3022"
         id="path173" />
      <path
         d="M 5.275,13.3022 5.1798,13.3974"
         id="path174" />
      <path
         d="M 5.1798,13.3974 5.0369,13.4451"
         id="path175" />
      <path
         d="M 5.0369,13.4451 H 4.7988"
         id="path176" />
      <path
         d="M 6.3226,13.4451 H 5.7512"
         id="path177" />
      <path
         d="m 6.0369,13.4451 v -1"
         id="path178" />
      <path
         d="M 6.0369,12.4451 5.9417,12.5879"
         id="path179" />
      <path
         d="M 5.9417,12.5879 5.8464,12.6832"
         id="path180" />
      <path
         d="M 5.8464,12.6832 5.7512,12.7308"
         id="path181" />
    </g>
    <text
       x="11.8869"
       y="6.4482002"
       textLength="1.9643"
       font-size="1.3333px"
       lengthAdjust="spacingAndGlyphs"
       text-anchor="middle"
       opacity="0"
       stroke-opacity="0"
       id="text181">J1</text>
    <g
       class="stroked-text"
       id="g191">
      <desc
         id="desc181">J1</desc>
      <path
         d="M 11.5536,5.4031 V 6.1174"
         id="path182" />
      <path
         d="M 11.5536,6.1174 11.506,6.2602"
         id="path183" />
      <path
         d="M 11.506,6.2602 11.4107,6.3554"
         id="path184" />
      <path
         d="M 11.4107,6.3554 11.2679,6.4031"
         id="path185" />
      <path
         d="M 11.2679,6.4031 H 11.1726"
         id="path186" />
      <path
         d="M 12.5536,6.4031 H 11.9821"
         id="path187" />
      <path
         d="m 12.2679,6.4031 v -1"
         id="path188" />
      <path
         d="M 12.2679,5.4031 12.1726,5.5459"
         id="path189" />
      <path
         d="M 12.1726,5.5459 12.0774,5.6412"
         id="path190" />
      <path
         d="M 12.0774,5.6412 11.9821,5.6888"
         id="path191" />
    </g>
    <g
       transform="rotate(-90,8.8389,15.7292)"
       id="g192">
      <text
         x="8.8388996"
         y="16.2293"
         textLength="2.2024"
         font-size="1.3333px"
         lengthAdjust="spacingAndGlyphs"
         text-anchor="middle"
         opacity="0"
         stroke-opacity="0"
         id="text191">R2</text>
    </g>
    <g
       class="stroked-text"
       id="g212">
      <desc
         id="desc192">R2</desc>
      <path
         d="M 9.2937,15.8959 8.8175,16.2292"
         id="path192" />
      <path
         d="m 9.2937,16.4673 h -1"
         id="path193" />
      <path
         d="M 8.2937,16.4673 V 16.0864"
         id="path194" />
      <path
         d="M 8.2937,16.0864 8.3413,15.9912"
         id="path195" />
      <path
         d="M 8.3413,15.9912 8.389,15.9435"
         id="path196" />
      <path
         d="M 8.389,15.9435 8.4842,15.8959"
         id="path197" />
      <path
         d="M 8.4842,15.8959 H 8.6271"
         id="path198" />
      <path
         d="m 8.6271,15.8959 0.0952,0.0476"
         id="path199" />
      <path
         d="m 8.7223,15.9435 0.0476,0.0477"
         id="path200" />
      <path
         d="m 8.7699,15.9912 0.0476,0.0952"
         id="path201" />
      <path
         d="m 8.8175,16.0864 v 0.3809"
         id="path202" />
      <path
         d="M 8.389,15.515 8.3413,15.4673"
         id="path203" />
      <path
         d="M 8.3413,15.4673 8.2937,15.3721"
         id="path204" />
      <path
         d="M 8.2937,15.3721 V 15.134"
         id="path205" />
      <path
         d="M 8.2937,15.134 8.3413,15.0388"
         id="path206" />
      <path
         d="M 8.3413,15.0388 8.389,14.9912"
         id="path207" />
      <path
         d="M 8.389,14.9912 8.4842,14.9435"
         id="path208" />
      <path
         d="M 8.4842,14.9435 H 8.5794"
         id="path209" />
      <path
         d="m 8.5794,14.9435 0.1429,0.0477"
         id="path210" />
      <path
         d="m 8.7223,14.9912 0.5714,0.5714"
         id="path211" />
      <path
         d="M 9.2937,15.5626 V 14.9435"
         id="path212" />
    </g>
  </g>
  <g
     style="fill:none;stroke:#f2eda1;stroke-width:0.12;stroke-linecap:round;stroke-linejoin:round;stroke-opacity:1"
     id="g219"
     transform="translate(-3.4369,-1.9882)">
    <path
       d="M 3.8649,8.7052 V 9.9093"
       id="path213" />
    <path
       d="M 5.6849,8.7052 V 9.9093"
       id="path214" />
    <path
       d="m 14.4124,12.992 v 0.4745"
       id="path215" />
    <path
       d="m 15.4574,12.992 v 0.4745"
       id="path216" />
    <path
       d="m 10.4769,11.6266 v 0.79"
       id="path217" />
    <path
       d="m 13.2969,11.6266 v 1"
       id="path218" />
    <path
       style="fill:#f2eda1;fill-opacity:1;fill-rule:evenodd;stroke:#f2eda1;stroke-width:0.12;stroke-linecap:round;stroke-linejoin:round;stroke-opacity:1"
       d="m 10.4769,13.0267 -0.28,-0.2801 h 0.28 z"
       id="path219" />
  </g>
  <g
     style="fill:none;stroke:#f2eda1;stroke-width:0.12;stroke-linecap:round;stroke-linejoin:round;stroke-opacity:1"
     id="g229"
     transform="translate(-3.4369,-1.9882)">
    <path
       d="m 7.8969,11.9902 h -4.01"
       id="path220" />
    <path
       d="m 7.8969,13.9902 h -4.01"
       id="path221" />
    <path
       d="m 7.8969,13.9902 v -2"
       id="path222" />
    <path
       d="m 7.1869,3.9482 v -1.9"
       id="path223" />
    <path
       d="M 7.1869,7.8482 V 5.8483"
       id="path224" />
    <path
       d="m 16.5869,2.0482 h -9.4"
       id="path225" />
    <path
       d="m 16.5869,3.9482 v -1.9"
       id="path226" />
    <path
       d="M 16.5869,7.8482 V 5.8483"
       id="path227" />
    <path
       d="m 8.3164,12.992 v 0.4745"
       id="path228" />
    <path
       d="m 9.3614,12.992 v 0.4745"
       id="path229" />
  </g>
  <g
     style="fill:#f2eda1;fill-opacity:1;stroke:none"
     id="g230"
     transform="translate(-3.4369,-1.9882)">
    <circle
       cx="14.7769"
       cy="8.5481997"
       r="0.32499999"
       id="circle229" />
  </g>
  <g
     style="fill:#f2eda1;fill-opacity:1;stroke:none"
     id="g231"
     transform="translate(-3.4369,-1.9882)">
    <circle
       cx="8.9968996"
       cy="8.5481997"
       r="0.32499999"
       id="circle230" />
  </g>
  <g
     style="fill:none;stroke:#f2eda1;stroke-width:0.6;stroke-linecap:round;stroke-linejoin:round;stroke-opacity:1"
     id="g234"
     transform="translate(-3.4369,-1.9882)">
    <path
       d="m 16.2069,9.6282 v -1.1"
       id="path231" />
    <path
       d="M 16.2069,5.1982 V 4.5983"
       id="path232" />
    <path
       d="m 7.5669,9.6282 v -1.1"
       id="path233" />
    <path
       d="M 7.5669,5.1982 V 4.5983"
       id="path234" />
  </g>
  <g
     style="fill:#000000;fill-opacity:1;stroke:none"
     id="g235"
     transform="translate(-3.4369,-1.9882)">
    <circle
       cx="14.7769"
       cy="8.5481997"
       r="0.32499999"
       id="circle234" />
  </g>
  <g
     style="fill:#000000;fill-opacity:1;stroke:none"
     id="g236"
     transform="translate(-3.4369,-1.9882)">
    <circle
       cx="8.9968996"
       cy="8.5481997"
       r="0.32499999"
       id="circle235" />
  </g>
  <g
     style="fill:none;stroke:#000000;stroke-width:0.6;stroke-linecap:round;stroke-linejoin:round;stroke-opacity:1"
     id="g239"
     transform="translate(-3.4369,-1.9882)">
    <path
       d="m 16.2069,9.6282 v -1.1"
       id="path236" />
    <path
       d="M 16.2069,5.1982 V 4.5983"
       id="path237" />
    <path
       d="m 7.5669,9.6282 v -1.1"
       id="path238" />
    <path
       d="M 7.5669,5.1982 V 4.5983"
       id="path239" />
  </g>
  <g
     style="fill:#000000;fill-opacity:1;stroke:none"
     id="g240"
     transform="translate(-3.4369,-1.9882)">
    <circle
       cx="14.7769"
       cy="8.5481997"
       r="0.32499999"
       id="circle239" />
  </g>
  <g
     style="fill:#000000;fill-opacity:1;stroke:none"
     id="g241"
     transform="translate(-3.4369,-1.9882)">
    <circle
       cx="8.9968996"
       cy="8.5481997"
       r="0.32499999"
       id="circle240" />
  </g>
  <g
     style="fill:none;stroke:#000000;stroke-width:0.6;stroke-linecap:round;stroke-linejoin:round;stroke-opacity:1"
     id="g244"
     transform="translate(-3.4369,-1.9882)">
    <path
       d="m 16.2069,9.6282 v -1.1"
       id="path241" />
    <path
       d="M 16.2069,5.1982 V 4.5983"
       id="path242" />
    <path
       d="m 7.5669,9.6282 v -1.1"
       id="path243" />
    <path
       d="M 7.5669,5.1982 V 4.5983"
       id="path244" />
  </g>
  <g
     style="fill:#ffffff;fill-opacity:1;stroke:none"
     id="g245"
     transform="translate(-3.4369,-1.9882)">
    <circle
       cx="14.7769"
       cy="8.5481997"
       r="0.32499999"
       id="circle244" />
  </g>
  <g
     style="fill:#ffffff;fill-opacity:1;stroke:none"
     id="g246"
     transform="translate(-3.4369,-1.9882)">
    <circle
       cx="8.9968996"
       cy="8.5481997"
       r="0.32499999"
       id="circle245" />
  </g>
  <g
     style="fill:none;stroke:#ffffff;stroke-width:0.6;stroke-linecap:round;stroke-linejoin:round;stroke-opacity:1"
     id="g249"
     transform="translate(-3.4369,-1.9882)">
    <path
       d="m 16.2069,9.6282 v -1.1"
       id="path246" />
    <path
       d="M 16.2069,5.1982 V 4.5983"
       id="path247" />
    <path
       d="m 7.5669,9.6282 v -1.1"
       id="path248" />
    <path
       d="M 7.5669,5.1982 V 4.5983"
       id="path249" />
  </g>
</svg>
