%TF.GenerationSoftware,KiCad,Pcbnew,8.0.4*%
%TF.CreationDate,2024-09-01T17:17:33+02:00*%
%TF.ProjectId,atmega32u4_au_v1_devboard,61746d65-6761-4333-9275-345f61755f76,rev?*%
%TF.SameCoordinates,Original*%
%TF.FileFunction,Copper,L2,Bot*%
%TF.FilePolarity,Positive*%
%FSLAX46Y46*%
G04 Gerber Fmt 4.6, Leading zero omitted, Abs format (unit mm)*
G04 Created by KiCad (PCBNEW 8.0.4) date 2024-09-01 17:17:33*
%MOMM*%
%LPD*%
G01*
G04 APERTURE LIST*
G04 Aperture macros list*
%AMRoundRect*
0 Rectangle with rounded corners*
0 $1 Rounding radius*
0 $2 $3 $4 $5 $6 $7 $8 $9 X,Y pos of 4 corners*
0 Add a 4 corners polygon primitive as box body*
4,1,4,$2,$3,$4,$5,$6,$7,$8,$9,$2,$3,0*
0 Add four circle primitives for the rounded corners*
1,1,$1+$1,$2,$3*
1,1,$1+$1,$4,$5*
1,1,$1+$1,$6,$7*
1,1,$1+$1,$8,$9*
0 Add four rect primitives between the rounded corners*
20,1,$1+$1,$2,$3,$4,$5,0*
20,1,$1+$1,$4,$5,$6,$7,0*
20,1,$1+$1,$6,$7,$8,$9,0*
20,1,$1+$1,$8,$9,$2,$3,0*%
G04 Aperture macros list end*
%TA.AperFunction,SMDPad,CuDef*%
%ADD10RoundRect,0.200000X-0.200000X-0.275000X0.200000X-0.275000X0.200000X0.275000X-0.200000X0.275000X0*%
%TD*%
%TA.AperFunction,SMDPad,CuDef*%
%ADD11RoundRect,0.150000X-0.512500X-0.150000X0.512500X-0.150000X0.512500X0.150000X-0.512500X0.150000X0*%
%TD*%
%TA.AperFunction,SMDPad,CuDef*%
%ADD12RoundRect,0.225000X0.250000X-0.225000X0.250000X0.225000X-0.250000X0.225000X-0.250000X-0.225000X0*%
%TD*%
%TA.AperFunction,SMDPad,CuDef*%
%ADD13RoundRect,0.225000X-0.225000X-0.250000X0.225000X-0.250000X0.225000X0.250000X-0.225000X0.250000X0*%
%TD*%
%TA.AperFunction,SMDPad,CuDef*%
%ADD14RoundRect,0.225000X0.225000X0.250000X-0.225000X0.250000X-0.225000X-0.250000X0.225000X-0.250000X0*%
%TD*%
%TA.AperFunction,ComponentPad*%
%ADD15R,1.700000X1.700000*%
%TD*%
%TA.AperFunction,ComponentPad*%
%ADD16O,1.700000X1.700000*%
%TD*%
%TA.AperFunction,SMDPad,CuDef*%
%ADD17RoundRect,0.200000X-0.275000X0.200000X-0.275000X-0.200000X0.275000X-0.200000X0.275000X0.200000X0*%
%TD*%
%TA.AperFunction,SMDPad,CuDef*%
%ADD18RoundRect,0.062500X0.062500X-0.475000X0.062500X0.475000X-0.062500X0.475000X-0.062500X-0.475000X0*%
%TD*%
%TA.AperFunction,SMDPad,CuDef*%
%ADD19RoundRect,0.062500X0.475000X-0.062500X0.475000X0.062500X-0.475000X0.062500X-0.475000X-0.062500X0*%
%TD*%
%TA.AperFunction,HeatsinkPad*%
%ADD20R,5.200000X5.200000*%
%TD*%
%TA.AperFunction,SMDPad,CuDef*%
%ADD21R,1.200000X1.400000*%
%TD*%
%TA.AperFunction,SMDPad,CuDef*%
%ADD22R,1.700000X1.000000*%
%TD*%
%TA.AperFunction,SMDPad,CuDef*%
%ADD23RoundRect,0.150000X-0.150000X-0.425000X0.150000X-0.425000X0.150000X0.425000X-0.150000X0.425000X0*%
%TD*%
%TA.AperFunction,SMDPad,CuDef*%
%ADD24RoundRect,0.075000X-0.075000X-0.500000X0.075000X-0.500000X0.075000X0.500000X-0.075000X0.500000X0*%
%TD*%
%TA.AperFunction,ComponentPad*%
%ADD25O,1.000000X1.800000*%
%TD*%
%TA.AperFunction,ComponentPad*%
%ADD26O,1.000000X2.100000*%
%TD*%
%TA.AperFunction,SMDPad,CuDef*%
%ADD27RoundRect,0.225000X-0.250000X0.225000X-0.250000X-0.225000X0.250000X-0.225000X0.250000X0.225000X0*%
%TD*%
%TA.AperFunction,ViaPad*%
%ADD28C,0.600000*%
%TD*%
%TA.AperFunction,ViaPad*%
%ADD29C,0.800000*%
%TD*%
%TA.AperFunction,Conductor*%
%ADD30C,0.400000*%
%TD*%
%TA.AperFunction,Conductor*%
%ADD31C,0.200000*%
%TD*%
G04 APERTURE END LIST*
D10*
%TO.P,R2,1*%
%TO.N,mcu/D+*%
X16810500Y-5863350D03*
%TO.P,R2,2*%
%TO.N,u2/D+*%
X18460500Y-5863350D03*
%TD*%
D11*
%TO.P,U2,1*%
%TO.N,u2/D-*%
X23349000Y-2235000D03*
%TO.P,U2,2*%
%TO.N,GND*%
X23349000Y-1285000D03*
%TO.P,U2,3*%
%TO.N,usb/D-*%
X23349000Y-335000D03*
%TO.P,U2,4*%
%TO.N,usb/D+*%
X25624000Y-335000D03*
%TO.P,U2,5*%
%TO.N,VCC*%
X25624000Y-1285000D03*
%TO.P,U2,6*%
%TO.N,u2/D+*%
X25624000Y-2235000D03*
%TD*%
D12*
%TO.P,C4,1*%
%TO.N,VCC*%
X5509500Y-3550000D03*
%TO.P,C4,2*%
%TO.N,GND*%
X5509500Y-2000000D03*
%TD*%
D13*
%TO.P,C7,1*%
%TO.N,VCC*%
X-1488500Y-5857000D03*
%TO.P,C7,2*%
%TO.N,GND*%
X61500Y-5857000D03*
%TD*%
D14*
%TO.P,C3,1*%
%TO.N,VCC*%
X-5145500Y-3952000D03*
%TO.P,C3,2*%
%TO.N,GND*%
X-6695500Y-3952000D03*
%TD*%
D15*
%TO.P,J3,1*%
%TO.N,GND*%
X29210000Y-3500000D03*
D16*
%TO.P,J3,2*%
%TO.N,VCC*%
X29210000Y-6040000D03*
%TD*%
D14*
%TO.P,C8,1*%
%TO.N,mcu/UCAP*%
X3275000Y-5863350D03*
%TO.P,C8,2*%
%TO.N,GND*%
X1725000Y-5863350D03*
%TD*%
D17*
%TO.P,R3,1*%
%TO.N,mcu/~{HWB}/PE2*%
X7414500Y4175500D03*
%TO.P,R3,2*%
%TO.N,GND*%
X7414500Y2525500D03*
%TD*%
D14*
%TO.P,C2,1*%
%TO.N,mcu/XTAL2*%
X-10860500Y-1600000D03*
%TO.P,C2,2*%
%TO.N,GND*%
X-12410500Y-1600000D03*
%TD*%
%TO.P,C5,1*%
%TO.N,VCC*%
X-3500000Y5446000D03*
%TO.P,C5,2*%
%TO.N,GND*%
X-5050000Y5446000D03*
%TD*%
%TO.P,C1,1*%
%TO.N,mcu/XTAL1*%
X-10860500Y600000D03*
%TO.P,C1,2*%
%TO.N,GND*%
X-12410500Y600000D03*
%TD*%
D18*
%TO.P,U1,1*%
%TO.N,N/C*%
X2500000Y-3337500D03*
%TO.P,U1,2*%
%TO.N,VCC*%
X2000000Y-3337500D03*
%TO.P,U1,3*%
%TO.N,mcu/D-*%
X1500000Y-3337500D03*
%TO.P,U1,4*%
%TO.N,mcu/D+*%
X1000000Y-3337500D03*
%TO.P,U1,5*%
%TO.N,GND*%
X500000Y-3337500D03*
%TO.P,U1,6*%
%TO.N,mcu/UCAP*%
X0Y-3337500D03*
%TO.P,U1,7*%
%TO.N,VCC*%
X-500000Y-3337500D03*
%TO.P,U1,8*%
%TO.N,io0*%
X-1000000Y-3337500D03*
%TO.P,U1,9*%
%TO.N,io1*%
X-1500000Y-3337500D03*
%TO.P,U1,10*%
%TO.N,io2*%
X-2000000Y-3337500D03*
%TO.P,U1,11*%
%TO.N,io3*%
X-2500000Y-3337500D03*
D19*
%TO.P,U1,12*%
%TO.N,io7*%
X-3337500Y-2500000D03*
%TO.P,U1,13*%
%TO.N,mcu/~{RESET}*%
X-3337500Y-2000000D03*
%TO.P,U1,14*%
%TO.N,VCC*%
X-3337500Y-1500000D03*
%TO.P,U1,15*%
%TO.N,GND*%
X-3337500Y-1000000D03*
%TO.P,U1,16*%
%TO.N,mcu/XTAL2*%
X-3337500Y-500000D03*
%TO.P,U1,17*%
%TO.N,mcu/XTAL1*%
X-3337500Y0D03*
%TO.P,U1,18*%
%TO.N,io10*%
X-3337500Y500000D03*
%TO.P,U1,19*%
%TO.N,io11*%
X-3337500Y1000000D03*
%TO.P,U1,20*%
%TO.N,io12*%
X-3337500Y1500000D03*
%TO.P,U1,21*%
%TO.N,io13*%
X-3337500Y2000000D03*
%TO.P,U1,22*%
%TO.N,io15*%
X-3337500Y2500000D03*
D18*
%TO.P,U1,23*%
%TO.N,GND*%
X-2500000Y3337500D03*
%TO.P,U1,24*%
%TO.N,VCC*%
X-2000000Y3337500D03*
%TO.P,U1,25*%
%TO.N,io14*%
X-1500000Y3337500D03*
%TO.P,U1,26*%
%TO.N,io16*%
X-1000000Y3337500D03*
%TO.P,U1,27*%
%TO.N,io17*%
X-500000Y3337500D03*
%TO.P,U1,28*%
%TO.N,io4*%
X0Y3337500D03*
%TO.P,U1,29*%
%TO.N,io5*%
X500000Y3337500D03*
%TO.P,U1,30*%
%TO.N,io6*%
X1000000Y3337500D03*
%TO.P,U1,31*%
%TO.N,io8*%
X1500000Y3337500D03*
%TO.P,U1,32*%
%TO.N,io9*%
X2000000Y3337500D03*
%TO.P,U1,33*%
%TO.N,mcu/~{HWB}/PE2*%
X2500000Y3337500D03*
D19*
%TO.P,U1,34*%
%TO.N,VCC*%
X3337500Y2500000D03*
%TO.P,U1,35*%
%TO.N,GND*%
X3337500Y2000000D03*
%TO.P,U1,36*%
%TO.N,io23*%
X3337500Y1500000D03*
%TO.P,U1,37*%
%TO.N,io22*%
X3337500Y1000000D03*
%TO.P,U1,38*%
%TO.N,io21*%
X3337500Y500000D03*
%TO.P,U1,39*%
%TO.N,io20*%
X3337500Y0D03*
%TO.P,U1,40*%
%TO.N,io19*%
X3337500Y-500000D03*
%TO.P,U1,41*%
%TO.N,io18*%
X3337500Y-1000000D03*
%TO.P,U1,42*%
%TO.N,N/C*%
X3337500Y-1500000D03*
%TO.P,U1,43*%
%TO.N,GND*%
X3337500Y-2000000D03*
%TO.P,U1,44*%
%TO.N,VCC*%
X3337500Y-2500000D03*
D20*
%TO.P,U1,45*%
%TO.N,GND*%
X0Y0D03*
%TD*%
D21*
%TO.P,Y1,1*%
%TO.N,mcu/XTAL1*%
X-7102500Y600000D03*
%TO.P,Y1,2*%
%TO.N,GND*%
X-7102500Y-1600000D03*
%TO.P,Y1,3*%
%TO.N,mcu/XTAL2*%
X-8802500Y-1600000D03*
%TO.P,Y1,4*%
%TO.N,GND*%
X-8802500Y600000D03*
%TD*%
D22*
%TO.P,RST,1*%
%TO.N,GND*%
X-17377250Y1900000D03*
X-23677250Y1900000D03*
%TO.P,RST,2*%
%TO.N,mcu/~{RESET}*%
X-17377250Y-1900000D03*
X-23677250Y-1900000D03*
%TD*%
D10*
%TO.P,R4,1*%
%TO.N,mcu/~{RESET}*%
X-6745500Y-5857000D03*
%TO.P,R4,2*%
%TO.N,VCC*%
X-5095500Y-5857000D03*
%TD*%
%TO.P,R1,1*%
%TO.N,mcu/D-*%
X16810500Y-3952000D03*
%TO.P,R1,2*%
%TO.N,u2/D-*%
X18460500Y-3952000D03*
%TD*%
D15*
%TO.P,J2,1*%
%TO.N,io0*%
X29210000Y-11530000D03*
D16*
%TO.P,J2,2*%
%TO.N,io1*%
X26670000Y-11530000D03*
%TO.P,J2,3*%
%TO.N,io2*%
X24130000Y-11530000D03*
%TO.P,J2,4*%
%TO.N,io3*%
X21590000Y-11530000D03*
%TO.P,J2,5*%
%TO.N,io7*%
X19050000Y-11530000D03*
%TO.P,J2,6*%
%TO.N,io10*%
X16510000Y-11530000D03*
%TO.P,J2,7*%
%TO.N,io11*%
X13970000Y-11530000D03*
%TO.P,J2,8*%
%TO.N,io12*%
X11430000Y-11530000D03*
%TO.P,J2,9*%
%TO.N,io13*%
X8890000Y-11530000D03*
%TO.P,J2,10*%
%TO.N,io15*%
X6350000Y-11530000D03*
%TO.P,J2,11*%
%TO.N,io14*%
X3810000Y-11530000D03*
%TO.P,J2,12*%
%TO.N,io16*%
X1270000Y-11530000D03*
%TO.P,J2,13*%
%TO.N,io17*%
X-1270000Y-11530000D03*
%TO.P,J2,14*%
%TO.N,io4*%
X-3810000Y-11530000D03*
%TO.P,J2,15*%
%TO.N,io5*%
X-6350000Y-11530000D03*
%TO.P,J2,16*%
%TO.N,io6*%
X-8890000Y-11530000D03*
%TO.P,J2,17*%
%TO.N,io8*%
X-11430000Y-11530000D03*
%TO.P,J2,18*%
%TO.N,io9*%
X-13970000Y-11530000D03*
%TO.P,J2,19*%
%TO.N,io23*%
X-16510000Y-11530000D03*
%TO.P,J2,20*%
%TO.N,io22*%
X-19050000Y-11530000D03*
%TO.P,J2,21*%
%TO.N,io21*%
X-21590000Y-11530000D03*
%TO.P,J2,22*%
%TO.N,io20*%
X-24130000Y-11530000D03*
%TO.P,J2,23*%
%TO.N,io19*%
X-26670000Y-11530000D03*
%TO.P,J2,24*%
%TO.N,io18*%
X-29210000Y-11530000D03*
%TD*%
D23*
%TO.P,J1,A1*%
%TO.N,GND*%
X21286500Y2183350D03*
%TO.P,J1,A4*%
%TO.N,VCC*%
X22086500Y2183350D03*
D24*
%TO.P,J1,A5*%
%TO.N,N/C*%
X23236500Y2183350D03*
%TO.P,J1,A6*%
%TO.N,usb/D+*%
X24236500Y2183350D03*
%TO.P,J1,A7*%
%TO.N,usb/D-*%
X24736500Y2183350D03*
%TO.P,J1,A8*%
%TO.N,N/C*%
X25736500Y2183350D03*
D23*
%TO.P,J1,A9*%
%TO.N,VCC*%
X26886500Y2183350D03*
%TO.P,J1,A12*%
%TO.N,GND*%
X27686500Y2183350D03*
%TO.P,J1,B1*%
X27686500Y2183350D03*
%TO.P,J1,B4*%
%TO.N,VCC*%
X26886500Y2183350D03*
D24*
%TO.P,J1,B5*%
%TO.N,N/C*%
X26236500Y2183350D03*
%TO.P,J1,B6*%
%TO.N,usb/D+*%
X25236500Y2183350D03*
%TO.P,J1,B7*%
%TO.N,usb/D-*%
X23736500Y2183350D03*
%TO.P,J1,B8*%
%TO.N,N/C*%
X22736500Y2183350D03*
D23*
%TO.P,J1,B9*%
%TO.N,VCC*%
X22086500Y2183350D03*
%TO.P,J1,B12*%
%TO.N,GND*%
X21286500Y2183350D03*
D25*
%TO.P,J1,S1*%
X20166500Y6938350D03*
D26*
X20166500Y2758350D03*
D25*
X28806500Y6938350D03*
D26*
X28806500Y2758350D03*
%TD*%
D27*
%TO.P,C6,1*%
%TO.N,VCC*%
X5509500Y4125500D03*
%TO.P,C6,2*%
%TO.N,GND*%
X5509500Y2575500D03*
%TD*%
D28*
%TO.N,io21*%
X11200000Y3879150D03*
%TO.N,io22*%
X10600000Y3350000D03*
%TO.N,io23*%
X10000000Y3879150D03*
%TO.N,io10*%
X-10000000Y2260000D03*
%TO.N,io11*%
X-9470850Y2860000D03*
%TO.N,io12*%
X-10000000Y3460000D03*
%TO.N,io13*%
X-9470850Y4060000D03*
D29*
%TO.N,GND*%
X6462000Y2575500D03*
X-6280000Y5446000D03*
X6800000Y-2000000D03*
X893250Y-5863350D03*
X21286500Y850000D03*
X-11310500Y-500000D03*
D28*
%TO.N,io14*%
X-9470850Y5260000D03*
D29*
%TO.N,VCC*%
X-1488500Y-7080000D03*
X22086500Y250000D03*
X-5920500Y-4904500D03*
X6800000Y-3550000D03*
X4150000Y4125499D03*
X-2200000Y5446000D03*
D28*
%TO.N,io15*%
X-10000000Y4660000D03*
%TO.N,io16*%
X-10000000Y5860000D03*
%TO.N,io18*%
X13000000Y3350000D03*
%TO.N,io19*%
X12400000Y3879150D03*
%TO.N,io20*%
X11800000Y3350000D03*
%TD*%
D30*
%TO.N,GND*%
X29210000Y-3500000D02*
X28200000Y-3500000D01*
X28200000Y-3500000D02*
X27686500Y-2986500D01*
X27686500Y-2986500D02*
X27686500Y2183350D01*
%TO.N,VCC*%
X26436499Y-1285000D02*
X26875000Y-1723501D01*
X26875000Y-1723501D02*
X26875000Y-5200000D01*
X26875000Y-5200000D02*
X27715000Y-6040000D01*
X27715000Y-6040000D02*
X29210000Y-6040000D01*
X26886500Y-834999D02*
X26886500Y2183350D01*
D31*
%TO.N,io9*%
X2000000Y3337500D02*
X2000000Y6195752D01*
X2000000Y6195752D02*
X-825248Y9021000D01*
X-16400000Y-9100000D02*
X-13970000Y-11530000D01*
X-825248Y9021000D02*
X-23682430Y9021000D01*
X-23682430Y9021000D02*
X-27225000Y5478430D01*
X-27225000Y5478430D02*
X-27225000Y-5603430D01*
X-27225000Y-5603430D02*
X-23728430Y-9100000D01*
X-23728430Y-9100000D02*
X-16400000Y-9100000D01*
%TO.N,io8*%
X1500000Y3337500D02*
X1500000Y6130066D01*
X1500000Y6130066D02*
X-990934Y8621000D01*
X-990934Y8621000D02*
X-23516744Y8621000D01*
X-23516744Y8621000D02*
X-23751058Y8386685D01*
X-23751058Y8386685D02*
X-23962744Y8175000D01*
X-23562744Y-8700000D02*
X-14260000Y-8700000D01*
X-23962744Y8175000D02*
X-26825000Y5312744D01*
X-26825000Y5312744D02*
X-26825000Y-5437744D01*
X-26825000Y-5437744D02*
X-23562744Y-8700000D01*
X-14260000Y-8700000D02*
X-11430000Y-11530000D01*
%TO.N,io6*%
X1000000Y3337500D02*
X1000000Y6064380D01*
X-23397058Y-8300000D02*
X-12120000Y-8300000D01*
X1000000Y6064380D02*
X-1156620Y8221000D01*
X-26425000Y-5272058D02*
X-23397058Y-8300000D01*
X-1156620Y8221000D02*
X-23351058Y8221000D01*
X-23351058Y8221000D02*
X-26425000Y5147058D01*
X-26425000Y5147058D02*
X-26425000Y-5272058D01*
X-12120000Y-8300000D02*
X-8890000Y-11530000D01*
%TO.N,io5*%
X500000Y3337500D02*
X500000Y5998694D01*
X500000Y5998694D02*
X-1322306Y7821000D01*
X-1322306Y7821000D02*
X-23185372Y7821000D01*
X-23185372Y7821000D02*
X-26025000Y4981372D01*
X-26025000Y4981372D02*
X-26025000Y-5106372D01*
X-26025000Y-5106372D02*
X-23231372Y-7900000D01*
X-9980000Y-7900000D02*
X-6350000Y-11530000D01*
X-23231372Y-7900000D02*
X-9980000Y-7900000D01*
%TO.N,io4*%
X0Y3337500D02*
X0Y5933008D01*
X0Y5933008D02*
X-1487992Y7421000D01*
X-1487992Y7421000D02*
X-23019686Y7421000D01*
X-23019686Y7421000D02*
X-25625000Y4815686D01*
X-25625000Y4815686D02*
X-25625000Y-4940686D01*
X-25625000Y-4940686D02*
X-23065686Y-7500000D01*
X-7840000Y-7500000D02*
X-3810000Y-11530000D01*
X-23065686Y-7500000D02*
X-7840000Y-7500000D01*
%TO.N,io17*%
X-500000Y3337500D02*
X-500000Y5867322D01*
X-500000Y5867322D02*
X-1653678Y7021000D01*
X-1653678Y7021000D02*
X-22854000Y7021000D01*
X-22900000Y-7100000D02*
X-5700000Y-7100000D01*
X-22854000Y7021000D02*
X-25225000Y4650000D01*
X-25225000Y4650000D02*
X-25225000Y-4775000D01*
X-25225000Y-4775000D02*
X-22900000Y-7100000D01*
X-5700000Y-7100000D02*
X-1270000Y-11530000D01*
%TO.N,io16*%
X-1000000Y3337500D02*
X-1000000Y5801636D01*
X-1000000Y5801636D02*
X-1819364Y6621000D01*
X-1819364Y6621000D02*
X-6744686Y6621000D01*
X-6744686Y6621000D02*
X-7505686Y5860000D01*
X-7505686Y5860000D02*
X-10000000Y5860000D01*
%TO.N,io14*%
X-1500000Y3337500D02*
X-1500000Y5735950D01*
X-1500000Y5735950D02*
X-1985050Y6221000D01*
X-1985050Y6221000D02*
X-6579000Y6221000D01*
X-6579000Y6221000D02*
X-7540000Y5260000D01*
X-7540000Y5260000D02*
X-9470850Y5260000D01*
%TO.N,io15*%
X-3337500Y2500000D02*
X-4671570Y2500000D01*
X-4671570Y2500000D02*
X-6831570Y4660000D01*
X-6831570Y4660000D02*
X-10000000Y4660000D01*
%TO.N,io13*%
X-3337500Y2000000D02*
X-4737256Y2000000D01*
X-4737256Y2000000D02*
X-6797256Y4060000D01*
X-6797256Y4060000D02*
X-9470850Y4060000D01*
%TO.N,io12*%
X-3337500Y1500000D02*
X-4802942Y1500000D01*
X-4802942Y1500000D02*
X-6762942Y3460000D01*
X-6762942Y3460000D02*
X-10000000Y3460000D01*
%TO.N,io11*%
X-3337500Y1000000D02*
X-4868628Y1000000D01*
X-4868628Y1000000D02*
X-6728628Y2860000D01*
X-6728628Y2860000D02*
X-9470850Y2860000D01*
%TO.N,io10*%
X-3337500Y500000D02*
X-4934314Y500000D01*
X-4934314Y500000D02*
X-6694314Y2260000D01*
X-6694314Y2260000D02*
X-10000000Y2260000D01*
%TO.N,io23*%
X3337500Y1500000D02*
X9039999Y1500000D01*
X9039999Y1500000D02*
X10000000Y2460001D01*
X10000000Y2460001D02*
X10000000Y3879150D01*
%TO.N,io18*%
X3337500Y-1000000D02*
X9368429Y-1000000D01*
X9368429Y-1000000D02*
X13000000Y2631571D01*
X13000000Y2631571D02*
X13000000Y3350000D01*
%TO.N,io19*%
X3337500Y-500000D02*
X9302743Y-500000D01*
X12400000Y2597257D02*
X12400000Y3879150D01*
X9302743Y-500000D02*
X12400000Y2597257D01*
%TO.N,io20*%
X3337500Y0D02*
X9237057Y0D01*
X9237057Y0D02*
X11800000Y2562943D01*
X11800000Y2562943D02*
X11800000Y3350000D01*
%TO.N,io21*%
X3337500Y500000D02*
X9171371Y500000D01*
X9171371Y500000D02*
X11200000Y2528629D01*
X11200000Y2528629D02*
X11200000Y3879150D01*
%TO.N,io22*%
X3337500Y1000000D02*
X9105685Y1000000D01*
X9105685Y1000000D02*
X10600000Y2494315D01*
X10600000Y2494315D02*
X10600000Y3350000D01*
%TO.N,io7*%
X-3337500Y-2500000D02*
X-3925500Y-2500000D01*
X-3925500Y-2500000D02*
X-3995500Y-2570000D01*
X-3995500Y-2570000D02*
X-3995500Y-8107244D01*
X-3995500Y-8107244D02*
X-2722744Y-9380000D01*
X-2722744Y-9380000D02*
X16900000Y-9380000D01*
X16900000Y-9380000D02*
X19050000Y-11530000D01*
%TO.N,io3*%
X-2500000Y-3337500D02*
X-2500000Y-3947746D01*
X-2500000Y-3947746D02*
X-3595500Y-5043246D01*
X-3595500Y-5043246D02*
X-3595500Y-7941558D01*
X-3595500Y-7941558D02*
X-2557058Y-8980000D01*
X-2557058Y-8980000D02*
X19040000Y-8980000D01*
X19040000Y-8980000D02*
X21590000Y-11530000D01*
%TO.N,io2*%
X-2000000Y-3337500D02*
X-2000000Y-4013432D01*
X-2000000Y-4013432D02*
X-3195500Y-5208932D01*
X-3195500Y-5208932D02*
X-3195500Y-7775872D01*
X-3195500Y-7775872D02*
X-2391372Y-8580000D01*
X-2391372Y-8580000D02*
X21180000Y-8580000D01*
X21180000Y-8580000D02*
X24130000Y-11530000D01*
%TO.N,io1*%
X-1500000Y-3337500D02*
X-1500000Y-4079118D01*
X-1500000Y-4079118D02*
X-2795500Y-5374618D01*
X-2795500Y-5374618D02*
X-2795500Y-7610186D01*
X-2795500Y-7610186D02*
X-2225686Y-8180000D01*
X-2225686Y-8180000D02*
X23320000Y-8180000D01*
X23320000Y-8180000D02*
X26670000Y-11530000D01*
%TO.N,io0*%
X-2395500Y-7444500D02*
X-2060000Y-7780000D01*
X-2060000Y-7780000D02*
X25460000Y-7780000D01*
X25460000Y-7780000D02*
X29210000Y-11530000D01*
%TO.N,usb/D-*%
X23736500Y3018350D02*
X23736500Y2193350D01*
X23736500Y2193350D02*
X23736500Y836500D01*
X24736500Y2193350D02*
X24736500Y3018350D01*
X24736500Y3018350D02*
X24504850Y3250000D01*
X23349000Y449000D02*
X23349000Y-335000D01*
X23968150Y3250000D02*
X23736500Y3018350D01*
X24504850Y3250000D02*
X23968150Y3250000D01*
X23736500Y836500D02*
X23349000Y449000D01*
%TO.N,u2/D-*%
X19175676Y-3952000D02*
X19903676Y-4680000D01*
X22640000Y-4680000D02*
X23349000Y-3971000D01*
X23349000Y-3971000D02*
X23349000Y-2235000D01*
X19903676Y-4680000D02*
X22640000Y-4680000D01*
X18460500Y-3952000D02*
X19175676Y-3952000D01*
%TO.N,io0*%
X-1000000Y-4144803D02*
X-2395500Y-5540304D01*
X-1000000Y-3337500D02*
X-1000000Y-4144803D01*
X-2395500Y-5540304D02*
X-2395500Y-7444500D01*
%TO.N,mcu/UCAP*%
X-380846Y-6638350D02*
X-710000Y-6309196D01*
X3275000Y-5863350D02*
X2500000Y-6638350D01*
X2500000Y-6638350D02*
X-380846Y-6638350D01*
X0Y-4470000D02*
X0Y-3337500D01*
X-710000Y-6309196D02*
X-710000Y-5180000D01*
X-710000Y-5180000D02*
X0Y-4470000D01*
D30*
%TO.N,GND*%
X7780000Y-2000000D02*
X5509500Y-2000000D01*
X27836500Y2193350D02*
X28241500Y2193350D01*
D31*
X-11410500Y-2600000D02*
X-8002499Y-2600000D01*
X61500Y-5194186D02*
X61500Y-5857000D01*
X4934000Y2000000D02*
X5509500Y2575500D01*
X-5600000Y-1600000D02*
X-5000000Y-1000000D01*
X-2500000Y3900000D02*
X-2720000Y4120000D01*
D30*
X21286500Y-286500D02*
X21286500Y-288500D01*
X-17377250Y1900000D02*
X-13710500Y1900000D01*
X28241500Y2193350D02*
X28806500Y2758350D01*
X-23677250Y1900000D02*
X-17377250Y1900000D01*
X-9902500Y-500000D02*
X-11310500Y-500000D01*
X20166500Y6938350D02*
X28806500Y6938350D01*
X21286500Y-288500D02*
X19975000Y-1600000D01*
D31*
X-12410500Y-1600000D02*
X-11410500Y-2600000D01*
D30*
X22285000Y-1285000D02*
X21286500Y-286500D01*
X19975000Y-1600000D02*
X8180000Y-1600000D01*
D31*
X-8002499Y-2600000D02*
X-7102500Y-1700000D01*
X-2500000Y3337500D02*
X-2500000Y2500000D01*
X-4450000Y4120000D02*
X-5050000Y4720000D01*
X-6695500Y-3144500D02*
X-6695500Y-3952000D01*
X-7102500Y-1600000D02*
X-7102500Y-2737500D01*
X3337500Y-2000000D02*
X2000000Y-2000000D01*
X-2500000Y3337500D02*
X-2500000Y3900000D01*
D30*
X20166500Y6938350D02*
X20166500Y2758350D01*
X1725000Y-5863350D02*
X67850Y-5863350D01*
D31*
X-5050000Y4720000D02*
X-5050000Y5446000D01*
X500000Y-3337500D02*
X500000Y-4755686D01*
D30*
X8180000Y-1600000D02*
X7780000Y-2000000D01*
X20731500Y2193350D02*
X20166500Y2758350D01*
X-13710500Y1900000D02*
X-12410500Y600000D01*
X5509500Y2575500D02*
X7364500Y2575500D01*
X21286500Y-286500D02*
X21286500Y2193350D01*
X-11310500Y-500000D02*
X-12410500Y600000D01*
D31*
X-7102500Y-2737500D02*
X-6695500Y-3144500D01*
X-2720000Y4120000D02*
X-4450000Y4120000D01*
X3337500Y2000000D02*
X4934000Y2000000D01*
D30*
X23349000Y-1285000D02*
X22285000Y-1285000D01*
X21136500Y2193350D02*
X20731500Y2193350D01*
X-11310500Y-500000D02*
X-12410500Y-1600000D01*
X28806500Y6938350D02*
X28806500Y2758350D01*
X-8802500Y600000D02*
X-9902500Y-500000D01*
X-5050000Y5446000D02*
X-6280000Y5446000D01*
D31*
X500000Y-4755686D02*
X61500Y-5194186D01*
X-7102500Y-1600000D02*
X-5600000Y-1600000D01*
X500000Y-3337500D02*
X500000Y-500000D01*
X3337500Y2000000D02*
X2000000Y2000000D01*
X-3337500Y-1000000D02*
X-1000000Y-1000000D01*
X5509500Y-2000000D02*
X3337500Y-2000000D01*
X-3337500Y-1000000D02*
X-5000000Y-1000000D01*
%TO.N,VCC*%
X22236500Y2986500D02*
X23000000Y3750000D01*
D30*
X-2200000Y5446000D02*
X-3500000Y5446000D01*
X5509500Y-3550000D02*
X6800000Y-3550000D01*
D31*
X-500000Y-4210490D02*
X-1488500Y-5198990D01*
X-500000Y-3337500D02*
X-500000Y-4210490D01*
D30*
X26886500Y-834999D02*
X26886500Y2193350D01*
D31*
X-2230000Y4520000D02*
X-3320000Y4520000D01*
D30*
X-5920500Y-4904500D02*
X-5920500Y-5032000D01*
D31*
X4459500Y-2500000D02*
X5509500Y-3550000D01*
X-3320000Y4520000D02*
X-3500000Y4700000D01*
D30*
X-5920500Y-5032000D02*
X-5095500Y-5857000D01*
D31*
X-2000000Y4290000D02*
X-2230000Y4520000D01*
D30*
X-5920500Y-4904500D02*
X-5920500Y-4727000D01*
D31*
X-5145500Y-2145500D02*
X-4500000Y-1500000D01*
X4779500Y-4280000D02*
X5509500Y-3550000D01*
X3884000Y2500000D02*
X5509500Y4125498D01*
D30*
X-1488500Y-5857000D02*
X-1488500Y-7080000D01*
X22086500Y250000D02*
X22086500Y2193350D01*
D31*
X-5145500Y-3952000D02*
X-5145500Y-2145500D01*
X2192744Y-4280000D02*
X4779500Y-4280000D01*
X22236500Y2193350D02*
X22236500Y2986500D01*
X-2000000Y3337500D02*
X-2000000Y4290000D01*
X26736500Y3018350D02*
X26736500Y2193350D01*
X23000000Y3750000D02*
X26004850Y3750000D01*
D30*
X26436499Y-1285000D02*
X26886500Y-834999D01*
D31*
X26004850Y3750000D02*
X26736500Y3018350D01*
X-3500000Y4700000D02*
X-3500000Y5446000D01*
X-4500000Y-1500000D02*
X-3337500Y-1500000D01*
X2000000Y-4087256D02*
X2192744Y-4280000D01*
X2000000Y-3337500D02*
X2000000Y-4087256D01*
X3337500Y-2500000D02*
X4459500Y-2500000D01*
D30*
X25624000Y-1285000D02*
X26436499Y-1285000D01*
X-5920500Y-4727000D02*
X-5145500Y-3952000D01*
X5509500Y4125498D02*
X4150000Y4125498D01*
D31*
X-1488500Y-5198990D02*
X-1488500Y-5857000D01*
X3337500Y2500000D02*
X3884000Y2500000D01*
%TO.N,mcu/XTAL2*%
X-10860500Y-1600000D02*
X-8802500Y-1600000D01*
X-7902500Y-500000D02*
X-8802500Y-1400000D01*
X-3337500Y-500000D02*
X-7902500Y-500000D01*
%TO.N,u2/D+*%
X19173001Y-5863350D02*
X19173001Y-5860675D01*
X18460500Y-5863350D02*
X19173001Y-5863350D01*
X19173001Y-5860675D02*
X19953676Y-5080000D01*
X19953676Y-5080000D02*
X24500000Y-5080000D01*
X24500000Y-5080000D02*
X25624000Y-3956000D01*
X25624000Y-3956000D02*
X25624000Y-2235000D01*
%TO.N,mcu/D-*%
X15320000Y-4680000D02*
X16047999Y-3952000D01*
X16047999Y-3952000D02*
X16810500Y-3952000D01*
X1500000Y-3337500D02*
X1500000Y-4152942D01*
X2027057Y-4680000D02*
X15320000Y-4680000D01*
X1500000Y-4152942D02*
X2027057Y-4680000D01*
%TO.N,mcu/~{RESET}*%
X-13650000Y-1900000D02*
X-12550000Y-3000000D01*
X-12550000Y-3000000D02*
X-8080000Y-3000000D01*
X-17377250Y-1900000D02*
X-13650000Y-1900000D01*
X-4130000Y-2000000D02*
X-4395500Y-2265500D01*
X-4395500Y-2265500D02*
X-4395500Y-6344648D01*
X-7620000Y-3460000D02*
X-7620000Y-4982500D01*
X-4750852Y-6700000D02*
X-5902500Y-6700000D01*
X-7620000Y-4982500D02*
X-6745500Y-5857000D01*
X-23677250Y-1900000D02*
X-17377250Y-1900000D01*
X-3337500Y-2000000D02*
X-4130000Y-2000000D01*
X-5902500Y-6700000D02*
X-6745500Y-5857000D01*
X-8080000Y-3000000D02*
X-7620000Y-3460000D01*
X-4395500Y-6344648D02*
X-4750852Y-6700000D01*
%TO.N,usb/D+*%
X25236500Y1368350D02*
X25236500Y2193350D01*
X24236500Y2193350D02*
X24236500Y1368350D01*
X24236500Y1368350D02*
X24404850Y1200000D01*
X25624000Y476000D02*
X25624000Y-335000D01*
X25236500Y863500D02*
X25624000Y476000D01*
X25068150Y1200000D02*
X25236500Y1368350D01*
X24404850Y1200000D02*
X25068150Y1200000D01*
X25236500Y2193350D02*
X25236500Y863500D01*
%TO.N,mcu/D+*%
X15330000Y-5080000D02*
X16113350Y-5863350D01*
X1000000Y-4218628D02*
X1861372Y-5080000D01*
X1000000Y-3337500D02*
X1000000Y-4218628D01*
X16113350Y-5863350D02*
X16810500Y-5863350D01*
X1861372Y-5080000D02*
X15330000Y-5080000D01*
%TO.N,mcu/XTAL1*%
X-7102500Y600000D02*
X-5600000Y600000D01*
X-8002499Y1600000D02*
X-7102500Y700000D01*
X-9860500Y1600000D02*
X-8002499Y1600000D01*
X-3337500Y0D02*
X-5000000Y0D01*
X-10860500Y600000D02*
X-9860500Y1600000D01*
X-5600000Y600000D02*
X-5000000Y0D01*
%TO.N,mcu/~{HWB}/PE2*%
X2500000Y4188748D02*
X3186750Y4875500D01*
X2500000Y3337500D02*
X2500000Y4188748D01*
X6714500Y4875500D02*
X7414500Y4175500D01*
X3186750Y4875500D02*
X6714500Y4875500D01*
%TD*%
M02*
