M48
; DRILL file {KiCad 8.0.4} date 2024-09-01T17:17:52+0200
; FORMAT={-:-/ absolute / inch / decimal}
; #@! TF.CreationDate,2024-09-01T17:17:52+02:00
; #@! TF.GenerationSoftware,Kicad,Pcbnew,8.0.4
; #@! TF.FileFunction,Plated,1,2,PTH
FMAT,2
INCH
; #@! TA.AperFunction,Plated,PTH,ViaDrill
T1C0.0118
; #@! TA.AperFunction,Plated,PTH,ViaDrill
T2C0.0157
; #@! TA.AperFunction,Plated,PTH,ComponentDrill
T3C0.0236
; #@! TA.AperFunction,Plated,PTH,ComponentDrill
T4C0.0394
%
G90
G05
T1
X-0.3937Y0.2307
X-0.3937Y0.1835
X-0.3937Y0.1362
X-0.3937Y0.089
X-0.3729Y0.2071
X-0.3729Y0.1598
X-0.3729Y0.1126
X0.3937Y0.1527
X0.4173Y0.1319
X0.4409Y0.1527
X0.4646Y0.1319
X0.4882Y0.1527
X0.5118Y0.1319
T2
X-0.4453Y-0.0197
X-0.2472Y0.2144
X-0.2331Y-0.1931
X-0.0866Y0.2144
X-0.0586Y-0.2787
X0.0352Y-0.2308
X0.1634Y0.1624
X0.2544Y0.1014
X0.2677Y-0.0787
X0.2677Y-0.1398
X0.8381Y0.0335
X0.8695Y0.0098
T4
X-1.15Y-0.4539
X-1.05Y-0.4539
X-0.95Y-0.4539
X-0.85Y-0.4539
X-0.75Y-0.4539
X-0.65Y-0.4539
X-0.55Y-0.4539
X-0.45Y-0.4539
X-0.35Y-0.4539
X-0.25Y-0.4539
X-0.15Y-0.4539
X-0.05Y-0.4539
X0.05Y-0.4539
X0.15Y-0.4539
X0.25Y-0.4539
X0.35Y-0.4539
X0.45Y-0.4539
X0.55Y-0.4539
X0.65Y-0.4539
X0.75Y-0.4539
X0.85Y-0.4539
X0.95Y-0.4539
X1.05Y-0.4539
X1.15Y-0.1378
X1.15Y-0.2378
X1.15Y-0.4539
T3
G00X0.794Y0.2889
M15
G01X0.794Y0.2574
M16
G05
G00X0.794Y0.1303
M15
G01X0.794Y0.0869
M16
G05
G00X1.1341Y0.2889
M15
G01X1.1341Y0.2574
M16
G05
G00X1.1341Y0.1303
M15
G01X1.1341Y0.0869
M16
G05
M30
