%TF.GenerationSoftware,KiCad,Pcbnew,8.0.4*%
%TF.CreationDate,2024-09-01T17:17:33+02:00*%
%TF.ProjectId,atmega32u4_au_v1_devboard,61746d65-6761-4333-9275-345f61755f76,rev?*%
%TF.SameCoordinates,Original*%
%TF.FileFunction,Paste,Bot*%
%TF.FilePolarity,Positive*%
%FSLAX46Y46*%
G04 Gerber Fmt 4.6, Leading zero omitted, Abs format (unit mm)*
G04 Created by KiCad (PCBNEW 8.0.4) date 2024-09-01 17:17:33*
%MOMM*%
%LPD*%
G01*
G04 APERTURE LIST*
G04 Aperture macros list*
%AMRoundRect*
0 Rectangle with rounded corners*
0 $1 Rounding radius*
0 $2 $3 $4 $5 $6 $7 $8 $9 X,Y pos of 4 corners*
0 Add a 4 corners polygon primitive as box body*
4,1,4,$2,$3,$4,$5,$6,$7,$8,$9,$2,$3,0*
0 Add four circle primitives for the rounded corners*
1,1,$1+$1,$2,$3*
1,1,$1+$1,$4,$5*
1,1,$1+$1,$6,$7*
1,1,$1+$1,$8,$9*
0 Add four rect primitives between the rounded corners*
20,1,$1+$1,$2,$3,$4,$5,0*
20,1,$1+$1,$4,$5,$6,$7,0*
20,1,$1+$1,$6,$7,$8,$9,0*
20,1,$1+$1,$8,$9,$2,$3,0*%
G04 Aperture macros list end*
%ADD10RoundRect,0.200000X-0.200000X-0.275000X0.200000X-0.275000X0.200000X0.275000X-0.200000X0.275000X0*%
%ADD11RoundRect,0.150000X-0.512500X-0.150000X0.512500X-0.150000X0.512500X0.150000X-0.512500X0.150000X0*%
%ADD12RoundRect,0.225000X0.250000X-0.225000X0.250000X0.225000X-0.250000X0.225000X-0.250000X-0.225000X0*%
%ADD13RoundRect,0.225000X-0.225000X-0.250000X0.225000X-0.250000X0.225000X0.250000X-0.225000X0.250000X0*%
%ADD14RoundRect,0.225000X0.225000X0.250000X-0.225000X0.250000X-0.225000X-0.250000X0.225000X-0.250000X0*%
%ADD15RoundRect,0.200000X-0.275000X0.200000X-0.275000X-0.200000X0.275000X-0.200000X0.275000X0.200000X0*%
%ADD16RoundRect,0.250000X0.275000X-0.275000X0.275000X0.275000X-0.275000X0.275000X-0.275000X-0.275000X0*%
%ADD17RoundRect,0.062500X0.062500X-0.475000X0.062500X0.475000X-0.062500X0.475000X-0.062500X-0.475000X0*%
%ADD18RoundRect,0.062500X0.475000X-0.062500X0.475000X0.062500X-0.475000X0.062500X-0.475000X-0.062500X0*%
%ADD19R,1.200000X1.400000*%
%ADD20R,1.700000X1.000000*%
%ADD21RoundRect,0.150000X-0.150000X-0.425000X0.150000X-0.425000X0.150000X0.425000X-0.150000X0.425000X0*%
%ADD22RoundRect,0.075000X-0.075000X-0.500000X0.075000X-0.500000X0.075000X0.500000X-0.075000X0.500000X0*%
%ADD23O,1.000000X1.800000*%
%ADD24O,1.000000X2.100000*%
%ADD25RoundRect,0.225000X-0.250000X0.225000X-0.250000X-0.225000X0.250000X-0.225000X0.250000X0.225000X0*%
G04 APERTURE END LIST*
D10*
%TO.C,R2*%
X16810500Y-5863350D03*
X18460500Y-5863350D03*
%TD*%
D11*
%TO.C,U2*%
X23349000Y-2235000D03*
X23349000Y-1285000D03*
X23349000Y-335000D03*
X25624000Y-335000D03*
X25624000Y-1285000D03*
X25624000Y-2235000D03*
%TD*%
D12*
%TO.C,C4*%
X5509500Y-3550000D03*
X5509500Y-2000000D03*
%TD*%
D13*
%TO.C,C7*%
X-1488500Y-5857000D03*
X61500Y-5857000D03*
%TD*%
D14*
%TO.C,C3*%
X-5145500Y-3952000D03*
X-6695500Y-3952000D03*
%TD*%
%TO.C,C8*%
X3275000Y-5863350D03*
X1725000Y-5863350D03*
%TD*%
D15*
%TO.C,R3*%
X7414500Y4175500D03*
X7414500Y2525500D03*
%TD*%
D14*
%TO.C,C2*%
X-10860500Y-1600000D03*
X-12410500Y-1600000D03*
%TD*%
%TO.C,C5*%
X-3500000Y5446000D03*
X-5050000Y5446000D03*
%TD*%
%TO.C,C1*%
X-10860500Y600000D03*
X-12410500Y600000D03*
%TD*%
D16*
%TO.C,U1*%
X-1950000Y-1950000D03*
X-650000Y-1950000D03*
X650000Y-1950000D03*
X1950000Y-1950000D03*
X-1950000Y-650000D03*
X-650000Y-650000D03*
X650000Y-650000D03*
X1950000Y-650000D03*
X-1950000Y650000D03*
X-650000Y650000D03*
X650000Y650000D03*
X1950000Y650000D03*
X-1950000Y1950000D03*
X-650000Y1950000D03*
X650000Y1950000D03*
X1950000Y1950000D03*
D17*
X2500000Y-3337500D03*
X2000000Y-3337500D03*
X1500000Y-3337500D03*
X1000000Y-3337500D03*
X500000Y-3337500D03*
X0Y-3337500D03*
X-500000Y-3337500D03*
X-1000000Y-3337500D03*
X-1500000Y-3337500D03*
X-2000000Y-3337500D03*
X-2500000Y-3337500D03*
D18*
X-3337500Y-2500000D03*
X-3337500Y-2000000D03*
X-3337500Y-1500000D03*
X-3337500Y-1000000D03*
X-3337500Y-500000D03*
X-3337500Y0D03*
X-3337500Y500000D03*
X-3337500Y1000000D03*
X-3337500Y1500000D03*
X-3337500Y2000000D03*
X-3337500Y2500000D03*
D17*
X-2500000Y3337500D03*
X-2000000Y3337500D03*
X-1500000Y3337500D03*
X-1000000Y3337500D03*
X-500000Y3337500D03*
X0Y3337500D03*
X500000Y3337500D03*
X1000000Y3337500D03*
X1500000Y3337500D03*
X2000000Y3337500D03*
X2500000Y3337500D03*
D18*
X3337500Y2500000D03*
X3337500Y2000000D03*
X3337500Y1500000D03*
X3337500Y1000000D03*
X3337500Y500000D03*
X3337500Y0D03*
X3337500Y-500000D03*
X3337500Y-1000000D03*
X3337500Y-1500000D03*
X3337500Y-2000000D03*
X3337500Y-2500000D03*
%TD*%
D19*
%TO.C,Y1*%
X-7102500Y600000D03*
X-7102500Y-1600000D03*
X-8802500Y-1600000D03*
X-8802500Y600000D03*
%TD*%
D20*
%TO.C,RST*%
X-17377250Y1900000D03*
X-23677250Y1900000D03*
X-17377250Y-1900000D03*
X-23677250Y-1900000D03*
%TD*%
D10*
%TO.C,R4*%
X-6745500Y-5857000D03*
X-5095500Y-5857000D03*
%TD*%
%TO.C,R1*%
X16810500Y-3952000D03*
X18460500Y-3952000D03*
%TD*%
D21*
%TO.C,J1*%
X21286500Y2183350D03*
X22086500Y2183350D03*
D22*
X23236500Y2183350D03*
X24236500Y2183350D03*
X24736500Y2183350D03*
X25736500Y2183350D03*
D21*
X26886500Y2183350D03*
X27686500Y2183350D03*
X27686500Y2183350D03*
X26886500Y2183350D03*
D22*
X26236500Y2183350D03*
X25236500Y2183350D03*
X23736500Y2183350D03*
X22736500Y2183350D03*
D21*
X22086500Y2183350D03*
X21286500Y2183350D03*
D23*
X20166500Y6938350D03*
D24*
X20166500Y2758350D03*
D23*
X28806500Y6938350D03*
D24*
X28806500Y2758350D03*
%TD*%
D25*
%TO.C,C6*%
X5509500Y4125500D03*
X5509500Y2575500D03*
%TD*%
M02*
