%TF.GenerationSoftware,KiCad,Pcbnew,8.0.4*%
%TF.CreationDate,2024-09-01T17:17:33+02:00*%
%TF.ProjectId,atmega32u4_au_v1_devboard,61746d65-6761-4333-9275-345f61755f76,rev?*%
%TF.SameCoordinates,Original*%
%TF.FileFunction,Legend,Bot*%
%TF.FilePolarity,Positive*%
%FSLAX46Y46*%
G04 Gerber Fmt 4.6, Leading zero omitted, Abs format (unit mm)*
G04 Created by KiCad (PCBNEW 8.0.4) date 2024-09-01 17:17:33*
%MOMM*%
%LPD*%
G01*
G04 APERTURE LIST*
%ADD10C,0.200000*%
%ADD11C,0.150000*%
%ADD12C,0.120000*%
G04 APERTURE END LIST*
D10*
X21487814Y-8122857D02*
X21559242Y-8337143D01*
X21559242Y-8337143D02*
X21630671Y-8408572D01*
X21630671Y-8408572D02*
X21773528Y-8480000D01*
X21773528Y-8480000D02*
X21987814Y-8480000D01*
X21987814Y-8480000D02*
X22130671Y-8408572D01*
X22130671Y-8408572D02*
X22202100Y-8337143D01*
X22202100Y-8337143D02*
X22273528Y-8194286D01*
X22273528Y-8194286D02*
X22273528Y-7622857D01*
X22273528Y-7622857D02*
X20773528Y-7622857D01*
X20773528Y-7622857D02*
X20773528Y-8122857D01*
X20773528Y-8122857D02*
X20844957Y-8265715D01*
X20844957Y-8265715D02*
X20916385Y-8337143D01*
X20916385Y-8337143D02*
X21059242Y-8408572D01*
X21059242Y-8408572D02*
X21202100Y-8408572D01*
X21202100Y-8408572D02*
X21344957Y-8337143D01*
X21344957Y-8337143D02*
X21416385Y-8265715D01*
X21416385Y-8265715D02*
X21487814Y-8122857D01*
X21487814Y-8122857D02*
X21487814Y-7622857D01*
X20773528Y-8980000D02*
X20773528Y-9908572D01*
X20773528Y-9908572D02*
X21344957Y-9408572D01*
X21344957Y-9408572D02*
X21344957Y-9622857D01*
X21344957Y-9622857D02*
X21416385Y-9765715D01*
X21416385Y-9765715D02*
X21487814Y-9837143D01*
X21487814Y-9837143D02*
X21630671Y-9908572D01*
X21630671Y-9908572D02*
X21987814Y-9908572D01*
X21987814Y-9908572D02*
X22130671Y-9837143D01*
X22130671Y-9837143D02*
X22202100Y-9765715D01*
X22202100Y-9765715D02*
X22273528Y-9622857D01*
X22273528Y-9622857D02*
X22273528Y-9194286D01*
X22273528Y-9194286D02*
X22202100Y-9051429D01*
X22202100Y-9051429D02*
X22130671Y-8980000D01*
X4493528Y-7622857D02*
X2993528Y-7622857D01*
X2993528Y-7622857D02*
X2993528Y-7980000D01*
X2993528Y-7980000D02*
X3064957Y-8194286D01*
X3064957Y-8194286D02*
X3207814Y-8337143D01*
X3207814Y-8337143D02*
X3350671Y-8408572D01*
X3350671Y-8408572D02*
X3636385Y-8480000D01*
X3636385Y-8480000D02*
X3850671Y-8480000D01*
X3850671Y-8480000D02*
X4136385Y-8408572D01*
X4136385Y-8408572D02*
X4279242Y-8337143D01*
X4279242Y-8337143D02*
X4422100Y-8194286D01*
X4422100Y-8194286D02*
X4493528Y-7980000D01*
X4493528Y-7980000D02*
X4493528Y-7622857D01*
X3493528Y-9765715D02*
X4493528Y-9765715D01*
X2922100Y-9408572D02*
X3993528Y-9051429D01*
X3993528Y-9051429D02*
X3993528Y-9980000D01*
X14653528Y-7622857D02*
X13153528Y-7622857D01*
X13153528Y-7622857D02*
X13153528Y-7980000D01*
X13153528Y-7980000D02*
X13224957Y-8194286D01*
X13224957Y-8194286D02*
X13367814Y-8337143D01*
X13367814Y-8337143D02*
X13510671Y-8408572D01*
X13510671Y-8408572D02*
X13796385Y-8480000D01*
X13796385Y-8480000D02*
X14010671Y-8480000D01*
X14010671Y-8480000D02*
X14296385Y-8408572D01*
X14296385Y-8408572D02*
X14439242Y-8337143D01*
X14439242Y-8337143D02*
X14582100Y-8194286D01*
X14582100Y-8194286D02*
X14653528Y-7980000D01*
X14653528Y-7980000D02*
X14653528Y-7622857D01*
X14653528Y-9908572D02*
X14653528Y-9051429D01*
X14653528Y-9480000D02*
X13153528Y-9480000D01*
X13153528Y-9480000D02*
X13367814Y-9337143D01*
X13367814Y-9337143D02*
X13510671Y-9194286D01*
X13510671Y-9194286D02*
X13582100Y-9051429D01*
X-586471Y-7622857D02*
X-2086471Y-7622857D01*
X-2086471Y-7622857D02*
X-2086471Y-7980000D01*
X-2086471Y-7980000D02*
X-2015042Y-8194286D01*
X-2015042Y-8194286D02*
X-1872185Y-8337143D01*
X-1872185Y-8337143D02*
X-1729328Y-8408572D01*
X-1729328Y-8408572D02*
X-1443614Y-8480000D01*
X-1443614Y-8480000D02*
X-1229328Y-8480000D01*
X-1229328Y-8480000D02*
X-943614Y-8408572D01*
X-943614Y-8408572D02*
X-800757Y-8337143D01*
X-800757Y-8337143D02*
X-657900Y-8194286D01*
X-657900Y-8194286D02*
X-586471Y-7980000D01*
X-586471Y-7980000D02*
X-586471Y-7622857D01*
X-2086471Y-8980000D02*
X-2086471Y-9980000D01*
X-2086471Y-9980000D02*
X-586471Y-9337143D01*
X17193528Y-7622857D02*
X15693528Y-7622857D01*
X15693528Y-7622857D02*
X15693528Y-7980000D01*
X15693528Y-7980000D02*
X15764957Y-8194286D01*
X15764957Y-8194286D02*
X15907814Y-8337143D01*
X15907814Y-8337143D02*
X16050671Y-8408572D01*
X16050671Y-8408572D02*
X16336385Y-8480000D01*
X16336385Y-8480000D02*
X16550671Y-8480000D01*
X16550671Y-8480000D02*
X16836385Y-8408572D01*
X16836385Y-8408572D02*
X16979242Y-8337143D01*
X16979242Y-8337143D02*
X17122100Y-8194286D01*
X17122100Y-8194286D02*
X17193528Y-7980000D01*
X17193528Y-7980000D02*
X17193528Y-7622857D01*
X15693528Y-9408572D02*
X15693528Y-9551429D01*
X15693528Y-9551429D02*
X15764957Y-9694286D01*
X15764957Y-9694286D02*
X15836385Y-9765715D01*
X15836385Y-9765715D02*
X15979242Y-9837143D01*
X15979242Y-9837143D02*
X16264957Y-9908572D01*
X16264957Y-9908572D02*
X16622100Y-9908572D01*
X16622100Y-9908572D02*
X16907814Y-9837143D01*
X16907814Y-9837143D02*
X17050671Y-9765715D01*
X17050671Y-9765715D02*
X17122100Y-9694286D01*
X17122100Y-9694286D02*
X17193528Y-9551429D01*
X17193528Y-9551429D02*
X17193528Y-9408572D01*
X17193528Y-9408572D02*
X17122100Y-9265715D01*
X17122100Y-9265715D02*
X17050671Y-9194286D01*
X17050671Y-9194286D02*
X16907814Y-9122857D01*
X16907814Y-9122857D02*
X16622100Y-9051429D01*
X16622100Y-9051429D02*
X16264957Y-9051429D01*
X16264957Y-9051429D02*
X15979242Y-9122857D01*
X15979242Y-9122857D02*
X15836385Y-9194286D01*
X15836385Y-9194286D02*
X15764957Y-9265715D01*
X15764957Y-9265715D02*
X15693528Y-9408572D01*
X18947814Y-8122857D02*
X19019242Y-8337143D01*
X19019242Y-8337143D02*
X19090671Y-8408572D01*
X19090671Y-8408572D02*
X19233528Y-8480000D01*
X19233528Y-8480000D02*
X19447814Y-8480000D01*
X19447814Y-8480000D02*
X19590671Y-8408572D01*
X19590671Y-8408572D02*
X19662100Y-8337143D01*
X19662100Y-8337143D02*
X19733528Y-8194286D01*
X19733528Y-8194286D02*
X19733528Y-7622857D01*
X19733528Y-7622857D02*
X18233528Y-7622857D01*
X18233528Y-7622857D02*
X18233528Y-8122857D01*
X18233528Y-8122857D02*
X18304957Y-8265715D01*
X18304957Y-8265715D02*
X18376385Y-8337143D01*
X18376385Y-8337143D02*
X18519242Y-8408572D01*
X18519242Y-8408572D02*
X18662100Y-8408572D01*
X18662100Y-8408572D02*
X18804957Y-8337143D01*
X18804957Y-8337143D02*
X18876385Y-8265715D01*
X18876385Y-8265715D02*
X18947814Y-8122857D01*
X18947814Y-8122857D02*
X18947814Y-7622857D01*
X18233528Y-8980000D02*
X18233528Y-9980000D01*
X18233528Y-9980000D02*
X19733528Y-9337143D01*
X9573528Y-7622857D02*
X8073528Y-7622857D01*
X8073528Y-7622857D02*
X8073528Y-7980000D01*
X8073528Y-7980000D02*
X8144957Y-8194286D01*
X8144957Y-8194286D02*
X8287814Y-8337143D01*
X8287814Y-8337143D02*
X8430671Y-8408572D01*
X8430671Y-8408572D02*
X8716385Y-8480000D01*
X8716385Y-8480000D02*
X8930671Y-8480000D01*
X8930671Y-8480000D02*
X9216385Y-8408572D01*
X9216385Y-8408572D02*
X9359242Y-8337143D01*
X9359242Y-8337143D02*
X9502100Y-8194286D01*
X9502100Y-8194286D02*
X9573528Y-7980000D01*
X9573528Y-7980000D02*
X9573528Y-7622857D01*
X8073528Y-8980000D02*
X8073528Y-9908572D01*
X8073528Y-9908572D02*
X8644957Y-9408572D01*
X8644957Y-9408572D02*
X8644957Y-9622857D01*
X8644957Y-9622857D02*
X8716385Y-9765715D01*
X8716385Y-9765715D02*
X8787814Y-9837143D01*
X8787814Y-9837143D02*
X8930671Y-9908572D01*
X8930671Y-9908572D02*
X9287814Y-9908572D01*
X9287814Y-9908572D02*
X9430671Y-9837143D01*
X9430671Y-9837143D02*
X9502100Y-9765715D01*
X9502100Y-9765715D02*
X9573528Y-9622857D01*
X9573528Y-9622857D02*
X9573528Y-9194286D01*
X9573528Y-9194286D02*
X9502100Y-9051429D01*
X9502100Y-9051429D02*
X9430671Y-8980000D01*
X29107814Y-8122857D02*
X29179242Y-8337143D01*
X29179242Y-8337143D02*
X29250671Y-8408572D01*
X29250671Y-8408572D02*
X29393528Y-8480000D01*
X29393528Y-8480000D02*
X29607814Y-8480000D01*
X29607814Y-8480000D02*
X29750671Y-8408572D01*
X29750671Y-8408572D02*
X29822100Y-8337143D01*
X29822100Y-8337143D02*
X29893528Y-8194286D01*
X29893528Y-8194286D02*
X29893528Y-7622857D01*
X29893528Y-7622857D02*
X28393528Y-7622857D01*
X28393528Y-7622857D02*
X28393528Y-8122857D01*
X28393528Y-8122857D02*
X28464957Y-8265715D01*
X28464957Y-8265715D02*
X28536385Y-8337143D01*
X28536385Y-8337143D02*
X28679242Y-8408572D01*
X28679242Y-8408572D02*
X28822100Y-8408572D01*
X28822100Y-8408572D02*
X28964957Y-8337143D01*
X28964957Y-8337143D02*
X29036385Y-8265715D01*
X29036385Y-8265715D02*
X29107814Y-8122857D01*
X29107814Y-8122857D02*
X29107814Y-7622857D01*
X28393528Y-9408572D02*
X28393528Y-9551429D01*
X28393528Y-9551429D02*
X28464957Y-9694286D01*
X28464957Y-9694286D02*
X28536385Y-9765715D01*
X28536385Y-9765715D02*
X28679242Y-9837143D01*
X28679242Y-9837143D02*
X28964957Y-9908572D01*
X28964957Y-9908572D02*
X29322100Y-9908572D01*
X29322100Y-9908572D02*
X29607814Y-9837143D01*
X29607814Y-9837143D02*
X29750671Y-9765715D01*
X29750671Y-9765715D02*
X29822100Y-9694286D01*
X29822100Y-9694286D02*
X29893528Y-9551429D01*
X29893528Y-9551429D02*
X29893528Y-9408572D01*
X29893528Y-9408572D02*
X29822100Y-9265715D01*
X29822100Y-9265715D02*
X29750671Y-9194286D01*
X29750671Y-9194286D02*
X29607814Y-9122857D01*
X29607814Y-9122857D02*
X29322100Y-9051429D01*
X29322100Y-9051429D02*
X28964957Y-9051429D01*
X28964957Y-9051429D02*
X28679242Y-9122857D01*
X28679242Y-9122857D02*
X28536385Y-9194286D01*
X28536385Y-9194286D02*
X28464957Y-9265715D01*
X28464957Y-9265715D02*
X28393528Y-9408572D01*
X24027814Y-8122857D02*
X24099242Y-8337143D01*
X24099242Y-8337143D02*
X24170671Y-8408572D01*
X24170671Y-8408572D02*
X24313528Y-8480000D01*
X24313528Y-8480000D02*
X24527814Y-8480000D01*
X24527814Y-8480000D02*
X24670671Y-8408572D01*
X24670671Y-8408572D02*
X24742100Y-8337143D01*
X24742100Y-8337143D02*
X24813528Y-8194286D01*
X24813528Y-8194286D02*
X24813528Y-7622857D01*
X24813528Y-7622857D02*
X23313528Y-7622857D01*
X23313528Y-7622857D02*
X23313528Y-8122857D01*
X23313528Y-8122857D02*
X23384957Y-8265715D01*
X23384957Y-8265715D02*
X23456385Y-8337143D01*
X23456385Y-8337143D02*
X23599242Y-8408572D01*
X23599242Y-8408572D02*
X23742100Y-8408572D01*
X23742100Y-8408572D02*
X23884957Y-8337143D01*
X23884957Y-8337143D02*
X23956385Y-8265715D01*
X23956385Y-8265715D02*
X24027814Y-8122857D01*
X24027814Y-8122857D02*
X24027814Y-7622857D01*
X23456385Y-9051429D02*
X23384957Y-9122857D01*
X23384957Y-9122857D02*
X23313528Y-9265715D01*
X23313528Y-9265715D02*
X23313528Y-9622857D01*
X23313528Y-9622857D02*
X23384957Y-9765715D01*
X23384957Y-9765715D02*
X23456385Y-9837143D01*
X23456385Y-9837143D02*
X23599242Y-9908572D01*
X23599242Y-9908572D02*
X23742100Y-9908572D01*
X23742100Y-9908572D02*
X23956385Y-9837143D01*
X23956385Y-9837143D02*
X24813528Y-8980000D01*
X24813528Y-8980000D02*
X24813528Y-9908572D01*
X-3912185Y-8122857D02*
X-3840757Y-8337143D01*
X-3840757Y-8337143D02*
X-3769328Y-8408572D01*
X-3769328Y-8408572D02*
X-3626471Y-8480000D01*
X-3626471Y-8480000D02*
X-3412185Y-8480000D01*
X-3412185Y-8480000D02*
X-3269328Y-8408572D01*
X-3269328Y-8408572D02*
X-3197900Y-8337143D01*
X-3197900Y-8337143D02*
X-3126471Y-8194286D01*
X-3126471Y-8194286D02*
X-3126471Y-7622857D01*
X-3126471Y-7622857D02*
X-4626471Y-7622857D01*
X-4626471Y-7622857D02*
X-4626471Y-8122857D01*
X-4626471Y-8122857D02*
X-4555042Y-8265715D01*
X-4555042Y-8265715D02*
X-4483614Y-8337143D01*
X-4483614Y-8337143D02*
X-4340757Y-8408572D01*
X-4340757Y-8408572D02*
X-4197900Y-8408572D01*
X-4197900Y-8408572D02*
X-4055042Y-8337143D01*
X-4055042Y-8337143D02*
X-3983614Y-8265715D01*
X-3983614Y-8265715D02*
X-3912185Y-8122857D01*
X-3912185Y-8122857D02*
X-3912185Y-7622857D01*
X-4126471Y-9765715D02*
X-3126471Y-9765715D01*
X-4697900Y-9408572D02*
X-3626471Y-9051429D01*
X-3626471Y-9051429D02*
X-3626471Y-9980000D01*
X12113528Y-7622857D02*
X10613528Y-7622857D01*
X10613528Y-7622857D02*
X10613528Y-7980000D01*
X10613528Y-7980000D02*
X10684957Y-8194286D01*
X10684957Y-8194286D02*
X10827814Y-8337143D01*
X10827814Y-8337143D02*
X10970671Y-8408572D01*
X10970671Y-8408572D02*
X11256385Y-8480000D01*
X11256385Y-8480000D02*
X11470671Y-8480000D01*
X11470671Y-8480000D02*
X11756385Y-8408572D01*
X11756385Y-8408572D02*
X11899242Y-8337143D01*
X11899242Y-8337143D02*
X12042100Y-8194286D01*
X12042100Y-8194286D02*
X12113528Y-7980000D01*
X12113528Y-7980000D02*
X12113528Y-7622857D01*
X10756385Y-9051429D02*
X10684957Y-9122857D01*
X10684957Y-9122857D02*
X10613528Y-9265715D01*
X10613528Y-9265715D02*
X10613528Y-9622857D01*
X10613528Y-9622857D02*
X10684957Y-9765715D01*
X10684957Y-9765715D02*
X10756385Y-9837143D01*
X10756385Y-9837143D02*
X10899242Y-9908572D01*
X10899242Y-9908572D02*
X11042100Y-9908572D01*
X11042100Y-9908572D02*
X11256385Y-9837143D01*
X11256385Y-9837143D02*
X12113528Y-8980000D01*
X12113528Y-8980000D02*
X12113528Y-9908572D01*
X1953528Y-7622857D02*
X453528Y-7622857D01*
X453528Y-7622857D02*
X453528Y-7980000D01*
X453528Y-7980000D02*
X524957Y-8194286D01*
X524957Y-8194286D02*
X667814Y-8337143D01*
X667814Y-8337143D02*
X810671Y-8408572D01*
X810671Y-8408572D02*
X1096385Y-8480000D01*
X1096385Y-8480000D02*
X1310671Y-8480000D01*
X1310671Y-8480000D02*
X1596385Y-8408572D01*
X1596385Y-8408572D02*
X1739242Y-8337143D01*
X1739242Y-8337143D02*
X1882100Y-8194286D01*
X1882100Y-8194286D02*
X1953528Y-7980000D01*
X1953528Y-7980000D02*
X1953528Y-7622857D01*
X453528Y-9765715D02*
X453528Y-9480000D01*
X453528Y-9480000D02*
X524957Y-9337143D01*
X524957Y-9337143D02*
X596385Y-9265715D01*
X596385Y-9265715D02*
X810671Y-9122857D01*
X810671Y-9122857D02*
X1096385Y-9051429D01*
X1096385Y-9051429D02*
X1667814Y-9051429D01*
X1667814Y-9051429D02*
X1810671Y-9122857D01*
X1810671Y-9122857D02*
X1882100Y-9194286D01*
X1882100Y-9194286D02*
X1953528Y-9337143D01*
X1953528Y-9337143D02*
X1953528Y-9622857D01*
X1953528Y-9622857D02*
X1882100Y-9765715D01*
X1882100Y-9765715D02*
X1810671Y-9837143D01*
X1810671Y-9837143D02*
X1667814Y-9908572D01*
X1667814Y-9908572D02*
X1310671Y-9908572D01*
X1310671Y-9908572D02*
X1167814Y-9837143D01*
X1167814Y-9837143D02*
X1096385Y-9765715D01*
X1096385Y-9765715D02*
X1024957Y-9622857D01*
X1024957Y-9622857D02*
X1024957Y-9337143D01*
X1024957Y-9337143D02*
X1096385Y-9194286D01*
X1096385Y-9194286D02*
X1167814Y-9122857D01*
X1167814Y-9122857D02*
X1310671Y-9051429D01*
X7033528Y-7622857D02*
X5533528Y-7622857D01*
X5533528Y-7622857D02*
X5533528Y-7980000D01*
X5533528Y-7980000D02*
X5604957Y-8194286D01*
X5604957Y-8194286D02*
X5747814Y-8337143D01*
X5747814Y-8337143D02*
X5890671Y-8408572D01*
X5890671Y-8408572D02*
X6176385Y-8480000D01*
X6176385Y-8480000D02*
X6390671Y-8480000D01*
X6390671Y-8480000D02*
X6676385Y-8408572D01*
X6676385Y-8408572D02*
X6819242Y-8337143D01*
X6819242Y-8337143D02*
X6962100Y-8194286D01*
X6962100Y-8194286D02*
X7033528Y-7980000D01*
X7033528Y-7980000D02*
X7033528Y-7622857D01*
X5533528Y-9837143D02*
X5533528Y-9122857D01*
X5533528Y-9122857D02*
X6247814Y-9051429D01*
X6247814Y-9051429D02*
X6176385Y-9122857D01*
X6176385Y-9122857D02*
X6104957Y-9265715D01*
X6104957Y-9265715D02*
X6104957Y-9622857D01*
X6104957Y-9622857D02*
X6176385Y-9765715D01*
X6176385Y-9765715D02*
X6247814Y-9837143D01*
X6247814Y-9837143D02*
X6390671Y-9908572D01*
X6390671Y-9908572D02*
X6747814Y-9908572D01*
X6747814Y-9908572D02*
X6890671Y-9837143D01*
X6890671Y-9837143D02*
X6962100Y-9765715D01*
X6962100Y-9765715D02*
X7033528Y-9622857D01*
X7033528Y-9622857D02*
X7033528Y-9265715D01*
X7033528Y-9265715D02*
X6962100Y-9122857D01*
X6962100Y-9122857D02*
X6890671Y-9051429D01*
X27418332Y-5347126D02*
X26994999Y-6617126D01*
X26994999Y-6617126D02*
X26571665Y-5347126D01*
X25422618Y-6496173D02*
X25483094Y-6556650D01*
X25483094Y-6556650D02*
X25664523Y-6617126D01*
X25664523Y-6617126D02*
X25785475Y-6617126D01*
X25785475Y-6617126D02*
X25966904Y-6556650D01*
X25966904Y-6556650D02*
X26087856Y-6435697D01*
X26087856Y-6435697D02*
X26148333Y-6314745D01*
X26148333Y-6314745D02*
X26208809Y-6072840D01*
X26208809Y-6072840D02*
X26208809Y-5891411D01*
X26208809Y-5891411D02*
X26148333Y-5649507D01*
X26148333Y-5649507D02*
X26087856Y-5528554D01*
X26087856Y-5528554D02*
X25966904Y-5407602D01*
X25966904Y-5407602D02*
X25785475Y-5347126D01*
X25785475Y-5347126D02*
X25664523Y-5347126D01*
X25664523Y-5347126D02*
X25483094Y-5407602D01*
X25483094Y-5407602D02*
X25422618Y-5468078D01*
X24152618Y-6496173D02*
X24213094Y-6556650D01*
X24213094Y-6556650D02*
X24394523Y-6617126D01*
X24394523Y-6617126D02*
X24515475Y-6617126D01*
X24515475Y-6617126D02*
X24696904Y-6556650D01*
X24696904Y-6556650D02*
X24817856Y-6435697D01*
X24817856Y-6435697D02*
X24878333Y-6314745D01*
X24878333Y-6314745D02*
X24938809Y-6072840D01*
X24938809Y-6072840D02*
X24938809Y-5891411D01*
X24938809Y-5891411D02*
X24878333Y-5649507D01*
X24878333Y-5649507D02*
X24817856Y-5528554D01*
X24817856Y-5528554D02*
X24696904Y-5407602D01*
X24696904Y-5407602D02*
X24515475Y-5347126D01*
X24515475Y-5347126D02*
X24394523Y-5347126D01*
X24394523Y-5347126D02*
X24213094Y-5407602D01*
X24213094Y-5407602D02*
X24152618Y-5468078D01*
X29817618Y-342602D02*
X29938571Y-282126D01*
X29938571Y-282126D02*
X30119999Y-282126D01*
X30119999Y-282126D02*
X30301428Y-342602D01*
X30301428Y-342602D02*
X30422380Y-463554D01*
X30422380Y-463554D02*
X30482857Y-584507D01*
X30482857Y-584507D02*
X30543333Y-826411D01*
X30543333Y-826411D02*
X30543333Y-1007840D01*
X30543333Y-1007840D02*
X30482857Y-1249745D01*
X30482857Y-1249745D02*
X30422380Y-1370697D01*
X30422380Y-1370697D02*
X30301428Y-1491650D01*
X30301428Y-1491650D02*
X30119999Y-1552126D01*
X30119999Y-1552126D02*
X29999047Y-1552126D01*
X29999047Y-1552126D02*
X29817618Y-1491650D01*
X29817618Y-1491650D02*
X29757142Y-1431173D01*
X29757142Y-1431173D02*
X29757142Y-1007840D01*
X29757142Y-1007840D02*
X29999047Y-1007840D01*
X29212857Y-1552126D02*
X29212857Y-282126D01*
X29212857Y-282126D02*
X28487142Y-1552126D01*
X28487142Y-1552126D02*
X28487142Y-282126D01*
X27882381Y-1552126D02*
X27882381Y-282126D01*
X27882381Y-282126D02*
X27580000Y-282126D01*
X27580000Y-282126D02*
X27398571Y-342602D01*
X27398571Y-342602D02*
X27277619Y-463554D01*
X27277619Y-463554D02*
X27217142Y-584507D01*
X27217142Y-584507D02*
X27156666Y-826411D01*
X27156666Y-826411D02*
X27156666Y-1007840D01*
X27156666Y-1007840D02*
X27217142Y-1249745D01*
X27217142Y-1249745D02*
X27277619Y-1370697D01*
X27277619Y-1370697D02*
X27398571Y-1491650D01*
X27398571Y-1491650D02*
X27580000Y-1552126D01*
X27580000Y-1552126D02*
X27882381Y-1552126D01*
X26567814Y-8122857D02*
X26639242Y-8337143D01*
X26639242Y-8337143D02*
X26710671Y-8408572D01*
X26710671Y-8408572D02*
X26853528Y-8480000D01*
X26853528Y-8480000D02*
X27067814Y-8480000D01*
X27067814Y-8480000D02*
X27210671Y-8408572D01*
X27210671Y-8408572D02*
X27282100Y-8337143D01*
X27282100Y-8337143D02*
X27353528Y-8194286D01*
X27353528Y-8194286D02*
X27353528Y-7622857D01*
X27353528Y-7622857D02*
X25853528Y-7622857D01*
X25853528Y-7622857D02*
X25853528Y-8122857D01*
X25853528Y-8122857D02*
X25924957Y-8265715D01*
X25924957Y-8265715D02*
X25996385Y-8337143D01*
X25996385Y-8337143D02*
X26139242Y-8408572D01*
X26139242Y-8408572D02*
X26282100Y-8408572D01*
X26282100Y-8408572D02*
X26424957Y-8337143D01*
X26424957Y-8337143D02*
X26496385Y-8265715D01*
X26496385Y-8265715D02*
X26567814Y-8122857D01*
X26567814Y-8122857D02*
X26567814Y-7622857D01*
X27353528Y-9908572D02*
X27353528Y-9051429D01*
X27353528Y-9480000D02*
X25853528Y-9480000D01*
X25853528Y-9480000D02*
X26067814Y-9337143D01*
X26067814Y-9337143D02*
X26210671Y-9194286D01*
X26210671Y-9194286D02*
X26282100Y-9051429D01*
X-13429328Y-8480000D02*
X-13357900Y-8408572D01*
X-13357900Y-8408572D02*
X-13286471Y-8194286D01*
X-13286471Y-8194286D02*
X-13286471Y-8051429D01*
X-13286471Y-8051429D02*
X-13357900Y-7837143D01*
X-13357900Y-7837143D02*
X-13500757Y-7694286D01*
X-13500757Y-7694286D02*
X-13643614Y-7622857D01*
X-13643614Y-7622857D02*
X-13929328Y-7551429D01*
X-13929328Y-7551429D02*
X-14143614Y-7551429D01*
X-14143614Y-7551429D02*
X-14429328Y-7622857D01*
X-14429328Y-7622857D02*
X-14572185Y-7694286D01*
X-14572185Y-7694286D02*
X-14715042Y-7837143D01*
X-14715042Y-7837143D02*
X-14786471Y-8051429D01*
X-14786471Y-8051429D02*
X-14786471Y-8194286D01*
X-14786471Y-8194286D02*
X-14715042Y-8408572D01*
X-14715042Y-8408572D02*
X-14643614Y-8480000D01*
X-14786471Y-8980000D02*
X-14786471Y-9980000D01*
X-14786471Y-9980000D02*
X-13286471Y-9337143D01*
X-19152185Y-8230000D02*
X-19152185Y-7730000D01*
X-18366471Y-7730000D02*
X-19866471Y-7730000D01*
X-19866471Y-7730000D02*
X-19866471Y-8444286D01*
X-19866471Y-9658572D02*
X-19866471Y-9372857D01*
X-19866471Y-9372857D02*
X-19795042Y-9230000D01*
X-19795042Y-9230000D02*
X-19723614Y-9158572D01*
X-19723614Y-9158572D02*
X-19509328Y-9015714D01*
X-19509328Y-9015714D02*
X-19223614Y-8944286D01*
X-19223614Y-8944286D02*
X-18652185Y-8944286D01*
X-18652185Y-8944286D02*
X-18509328Y-9015714D01*
X-18509328Y-9015714D02*
X-18437900Y-9087143D01*
X-18437900Y-9087143D02*
X-18366471Y-9230000D01*
X-18366471Y-9230000D02*
X-18366471Y-9515714D01*
X-18366471Y-9515714D02*
X-18437900Y-9658572D01*
X-18437900Y-9658572D02*
X-18509328Y-9730000D01*
X-18509328Y-9730000D02*
X-18652185Y-9801429D01*
X-18652185Y-9801429D02*
X-19009328Y-9801429D01*
X-19009328Y-9801429D02*
X-19152185Y-9730000D01*
X-19152185Y-9730000D02*
X-19223614Y-9658572D01*
X-19223614Y-9658572D02*
X-19295042Y-9515714D01*
X-19295042Y-9515714D02*
X-19295042Y-9230000D01*
X-19295042Y-9230000D02*
X-19223614Y-9087143D01*
X-19223614Y-9087143D02*
X-19152185Y-9015714D01*
X-19152185Y-9015714D02*
X-19009328Y-8944286D01*
X-24232185Y-8230000D02*
X-24232185Y-7730000D01*
X-23446471Y-7730000D02*
X-24946471Y-7730000D01*
X-24946471Y-7730000D02*
X-24946471Y-8444286D01*
X-24446471Y-9658572D02*
X-23446471Y-9658572D01*
X-25017900Y-9301429D02*
X-23946471Y-8944286D01*
X-23946471Y-8944286D02*
X-23946471Y-9872857D01*
X-8992185Y-8122857D02*
X-8920757Y-8337143D01*
X-8920757Y-8337143D02*
X-8849328Y-8408572D01*
X-8849328Y-8408572D02*
X-8706471Y-8480000D01*
X-8706471Y-8480000D02*
X-8492185Y-8480000D01*
X-8492185Y-8480000D02*
X-8349328Y-8408572D01*
X-8349328Y-8408572D02*
X-8277900Y-8337143D01*
X-8277900Y-8337143D02*
X-8206471Y-8194286D01*
X-8206471Y-8194286D02*
X-8206471Y-7622857D01*
X-8206471Y-7622857D02*
X-9706471Y-7622857D01*
X-9706471Y-7622857D02*
X-9706471Y-8122857D01*
X-9706471Y-8122857D02*
X-9635042Y-8265715D01*
X-9635042Y-8265715D02*
X-9563614Y-8337143D01*
X-9563614Y-8337143D02*
X-9420757Y-8408572D01*
X-9420757Y-8408572D02*
X-9277900Y-8408572D01*
X-9277900Y-8408572D02*
X-9135042Y-8337143D01*
X-9135042Y-8337143D02*
X-9063614Y-8265715D01*
X-9063614Y-8265715D02*
X-8992185Y-8122857D01*
X-8992185Y-8122857D02*
X-8992185Y-7622857D01*
X-9706471Y-9765715D02*
X-9706471Y-9480000D01*
X-9706471Y-9480000D02*
X-9635042Y-9337143D01*
X-9635042Y-9337143D02*
X-9563614Y-9265715D01*
X-9563614Y-9265715D02*
X-9349328Y-9122857D01*
X-9349328Y-9122857D02*
X-9063614Y-9051429D01*
X-9063614Y-9051429D02*
X-8492185Y-9051429D01*
X-8492185Y-9051429D02*
X-8349328Y-9122857D01*
X-8349328Y-9122857D02*
X-8277900Y-9194286D01*
X-8277900Y-9194286D02*
X-8206471Y-9337143D01*
X-8206471Y-9337143D02*
X-8206471Y-9622857D01*
X-8206471Y-9622857D02*
X-8277900Y-9765715D01*
X-8277900Y-9765715D02*
X-8349328Y-9837143D01*
X-8349328Y-9837143D02*
X-8492185Y-9908572D01*
X-8492185Y-9908572D02*
X-8849328Y-9908572D01*
X-8849328Y-9908572D02*
X-8992185Y-9837143D01*
X-8992185Y-9837143D02*
X-9063614Y-9765715D01*
X-9063614Y-9765715D02*
X-9135042Y-9622857D01*
X-9135042Y-9622857D02*
X-9135042Y-9337143D01*
X-9135042Y-9337143D02*
X-9063614Y-9194286D01*
X-9063614Y-9194286D02*
X-8992185Y-9122857D01*
X-8992185Y-9122857D02*
X-8849328Y-9051429D01*
X-10889328Y-8480000D02*
X-10817900Y-8408572D01*
X-10817900Y-8408572D02*
X-10746471Y-8194286D01*
X-10746471Y-8194286D02*
X-10746471Y-8051429D01*
X-10746471Y-8051429D02*
X-10817900Y-7837143D01*
X-10817900Y-7837143D02*
X-10960757Y-7694286D01*
X-10960757Y-7694286D02*
X-11103614Y-7622857D01*
X-11103614Y-7622857D02*
X-11389328Y-7551429D01*
X-11389328Y-7551429D02*
X-11603614Y-7551429D01*
X-11603614Y-7551429D02*
X-11889328Y-7622857D01*
X-11889328Y-7622857D02*
X-12032185Y-7694286D01*
X-12032185Y-7694286D02*
X-12175042Y-7837143D01*
X-12175042Y-7837143D02*
X-12246471Y-8051429D01*
X-12246471Y-8051429D02*
X-12246471Y-8194286D01*
X-12246471Y-8194286D02*
X-12175042Y-8408572D01*
X-12175042Y-8408572D02*
X-12103614Y-8480000D01*
X-12246471Y-9765715D02*
X-12246471Y-9480000D01*
X-12246471Y-9480000D02*
X-12175042Y-9337143D01*
X-12175042Y-9337143D02*
X-12103614Y-9265715D01*
X-12103614Y-9265715D02*
X-11889328Y-9122857D01*
X-11889328Y-9122857D02*
X-11603614Y-9051429D01*
X-11603614Y-9051429D02*
X-11032185Y-9051429D01*
X-11032185Y-9051429D02*
X-10889328Y-9122857D01*
X-10889328Y-9122857D02*
X-10817900Y-9194286D01*
X-10817900Y-9194286D02*
X-10746471Y-9337143D01*
X-10746471Y-9337143D02*
X-10746471Y-9622857D01*
X-10746471Y-9622857D02*
X-10817900Y-9765715D01*
X-10817900Y-9765715D02*
X-10889328Y-9837143D01*
X-10889328Y-9837143D02*
X-11032185Y-9908572D01*
X-11032185Y-9908572D02*
X-11389328Y-9908572D01*
X-11389328Y-9908572D02*
X-11532185Y-9837143D01*
X-11532185Y-9837143D02*
X-11603614Y-9765715D01*
X-11603614Y-9765715D02*
X-11675042Y-9622857D01*
X-11675042Y-9622857D02*
X-11675042Y-9337143D01*
X-11675042Y-9337143D02*
X-11603614Y-9194286D01*
X-11603614Y-9194286D02*
X-11532185Y-9122857D01*
X-11532185Y-9122857D02*
X-11389328Y-9051429D01*
X-21692185Y-8230000D02*
X-21692185Y-7730000D01*
X-20906471Y-7730000D02*
X-22406471Y-7730000D01*
X-22406471Y-7730000D02*
X-22406471Y-8444286D01*
X-22406471Y-9730000D02*
X-22406471Y-9015714D01*
X-22406471Y-9015714D02*
X-21692185Y-8944286D01*
X-21692185Y-8944286D02*
X-21763614Y-9015714D01*
X-21763614Y-9015714D02*
X-21835042Y-9158572D01*
X-21835042Y-9158572D02*
X-21835042Y-9515714D01*
X-21835042Y-9515714D02*
X-21763614Y-9658572D01*
X-21763614Y-9658572D02*
X-21692185Y-9730000D01*
X-21692185Y-9730000D02*
X-21549328Y-9801429D01*
X-21549328Y-9801429D02*
X-21192185Y-9801429D01*
X-21192185Y-9801429D02*
X-21049328Y-9730000D01*
X-21049328Y-9730000D02*
X-20977900Y-9658572D01*
X-20977900Y-9658572D02*
X-20906471Y-9515714D01*
X-20906471Y-9515714D02*
X-20906471Y-9158572D01*
X-20906471Y-9158572D02*
X-20977900Y-9015714D01*
X-20977900Y-9015714D02*
X-21049328Y-8944286D01*
X-6452185Y-8122857D02*
X-6380757Y-8337143D01*
X-6380757Y-8337143D02*
X-6309328Y-8408572D01*
X-6309328Y-8408572D02*
X-6166471Y-8480000D01*
X-6166471Y-8480000D02*
X-5952185Y-8480000D01*
X-5952185Y-8480000D02*
X-5809328Y-8408572D01*
X-5809328Y-8408572D02*
X-5737900Y-8337143D01*
X-5737900Y-8337143D02*
X-5666471Y-8194286D01*
X-5666471Y-8194286D02*
X-5666471Y-7622857D01*
X-5666471Y-7622857D02*
X-7166471Y-7622857D01*
X-7166471Y-7622857D02*
X-7166471Y-8122857D01*
X-7166471Y-8122857D02*
X-7095042Y-8265715D01*
X-7095042Y-8265715D02*
X-7023614Y-8337143D01*
X-7023614Y-8337143D02*
X-6880757Y-8408572D01*
X-6880757Y-8408572D02*
X-6737900Y-8408572D01*
X-6737900Y-8408572D02*
X-6595042Y-8337143D01*
X-6595042Y-8337143D02*
X-6523614Y-8265715D01*
X-6523614Y-8265715D02*
X-6452185Y-8122857D01*
X-6452185Y-8122857D02*
X-6452185Y-7622857D01*
X-7166471Y-9837143D02*
X-7166471Y-9122857D01*
X-7166471Y-9122857D02*
X-6452185Y-9051429D01*
X-6452185Y-9051429D02*
X-6523614Y-9122857D01*
X-6523614Y-9122857D02*
X-6595042Y-9265715D01*
X-6595042Y-9265715D02*
X-6595042Y-9622857D01*
X-6595042Y-9622857D02*
X-6523614Y-9765715D01*
X-6523614Y-9765715D02*
X-6452185Y-9837143D01*
X-6452185Y-9837143D02*
X-6309328Y-9908572D01*
X-6309328Y-9908572D02*
X-5952185Y-9908572D01*
X-5952185Y-9908572D02*
X-5809328Y-9837143D01*
X-5809328Y-9837143D02*
X-5737900Y-9765715D01*
X-5737900Y-9765715D02*
X-5666471Y-9622857D01*
X-5666471Y-9622857D02*
X-5666471Y-9265715D01*
X-5666471Y-9265715D02*
X-5737900Y-9122857D01*
X-5737900Y-9122857D02*
X-5809328Y-9051429D01*
X-16612185Y-8230000D02*
X-16612185Y-7730000D01*
X-15826471Y-7730000D02*
X-17326471Y-7730000D01*
X-17326471Y-7730000D02*
X-17326471Y-8444286D01*
X-17326471Y-8872857D02*
X-17326471Y-9872857D01*
X-17326471Y-9872857D02*
X-15826471Y-9230000D01*
X-26772185Y-8230000D02*
X-26772185Y-7730000D01*
X-25986471Y-7730000D02*
X-27486471Y-7730000D01*
X-27486471Y-7730000D02*
X-27486471Y-8444286D01*
X-25986471Y-9801429D02*
X-25986471Y-8944286D01*
X-25986471Y-9372857D02*
X-27486471Y-9372857D01*
X-27486471Y-9372857D02*
X-27272185Y-9230000D01*
X-27272185Y-9230000D02*
X-27129328Y-9087143D01*
X-27129328Y-9087143D02*
X-27057900Y-8944286D01*
X-29312185Y-8230000D02*
X-29312185Y-7730000D01*
X-28526471Y-7730000D02*
X-30026471Y-7730000D01*
X-30026471Y-7730000D02*
X-30026471Y-8444286D01*
X-30026471Y-9301429D02*
X-30026471Y-9444286D01*
X-30026471Y-9444286D02*
X-29955042Y-9587143D01*
X-29955042Y-9587143D02*
X-29883614Y-9658572D01*
X-29883614Y-9658572D02*
X-29740757Y-9730000D01*
X-29740757Y-9730000D02*
X-29455042Y-9801429D01*
X-29455042Y-9801429D02*
X-29097900Y-9801429D01*
X-29097900Y-9801429D02*
X-28812185Y-9730000D01*
X-28812185Y-9730000D02*
X-28669328Y-9658572D01*
X-28669328Y-9658572D02*
X-28597900Y-9587143D01*
X-28597900Y-9587143D02*
X-28526471Y-9444286D01*
X-28526471Y-9444286D02*
X-28526471Y-9301429D01*
X-28526471Y-9301429D02*
X-28597900Y-9158572D01*
X-28597900Y-9158572D02*
X-28669328Y-9087143D01*
X-28669328Y-9087143D02*
X-28812185Y-9015714D01*
X-28812185Y-9015714D02*
X-29097900Y-8944286D01*
X-29097900Y-8944286D02*
X-29455042Y-8944286D01*
X-29455042Y-8944286D02*
X-29740757Y-9015714D01*
X-29740757Y-9015714D02*
X-29883614Y-9087143D01*
X-29883614Y-9087143D02*
X-29955042Y-9158572D01*
X-29955042Y-9158572D02*
X-30026471Y-9301429D01*
D11*
X15302166Y-6318169D02*
X15635499Y-5841978D01*
X15873594Y-6318169D02*
X15873594Y-5318169D01*
X15873594Y-5318169D02*
X15492642Y-5318169D01*
X15492642Y-5318169D02*
X15397404Y-5365788D01*
X15397404Y-5365788D02*
X15349785Y-5413407D01*
X15349785Y-5413407D02*
X15302166Y-5508645D01*
X15302166Y-5508645D02*
X15302166Y-5651502D01*
X15302166Y-5651502D02*
X15349785Y-5746740D01*
X15349785Y-5746740D02*
X15397404Y-5794359D01*
X15397404Y-5794359D02*
X15492642Y-5841978D01*
X15492642Y-5841978D02*
X15873594Y-5841978D01*
X14921213Y-5413407D02*
X14873594Y-5365788D01*
X14873594Y-5365788D02*
X14778356Y-5318169D01*
X14778356Y-5318169D02*
X14540261Y-5318169D01*
X14540261Y-5318169D02*
X14445023Y-5365788D01*
X14445023Y-5365788D02*
X14397404Y-5413407D01*
X14397404Y-5413407D02*
X14349785Y-5508645D01*
X14349785Y-5508645D02*
X14349785Y-5603883D01*
X14349785Y-5603883D02*
X14397404Y-5746740D01*
X14397404Y-5746740D02*
X14968832Y-6318169D01*
X14968832Y-6318169D02*
X14349785Y-6318169D01*
X25248404Y-3189819D02*
X25248404Y-3999342D01*
X25248404Y-3999342D02*
X25200785Y-4094580D01*
X25200785Y-4094580D02*
X25153166Y-4142200D01*
X25153166Y-4142200D02*
X25057928Y-4189819D01*
X25057928Y-4189819D02*
X24867452Y-4189819D01*
X24867452Y-4189819D02*
X24772214Y-4142200D01*
X24772214Y-4142200D02*
X24724595Y-4094580D01*
X24724595Y-4094580D02*
X24676976Y-3999342D01*
X24676976Y-3999342D02*
X24676976Y-3189819D01*
X24248404Y-3285057D02*
X24200785Y-3237438D01*
X24200785Y-3237438D02*
X24105547Y-3189819D01*
X24105547Y-3189819D02*
X23867452Y-3189819D01*
X23867452Y-3189819D02*
X23772214Y-3237438D01*
X23772214Y-3237438D02*
X23724595Y-3285057D01*
X23724595Y-3285057D02*
X23676976Y-3380295D01*
X23676976Y-3380295D02*
X23676976Y-3475533D01*
X23676976Y-3475533D02*
X23724595Y-3618390D01*
X23724595Y-3618390D02*
X24296023Y-4189819D01*
X24296023Y-4189819D02*
X23676976Y-4189819D01*
X7369080Y-2608333D02*
X7416700Y-2560714D01*
X7416700Y-2560714D02*
X7464319Y-2417857D01*
X7464319Y-2417857D02*
X7464319Y-2322619D01*
X7464319Y-2322619D02*
X7416700Y-2179762D01*
X7416700Y-2179762D02*
X7321461Y-2084524D01*
X7321461Y-2084524D02*
X7226223Y-2036905D01*
X7226223Y-2036905D02*
X7035747Y-1989286D01*
X7035747Y-1989286D02*
X6892890Y-1989286D01*
X6892890Y-1989286D02*
X6702414Y-2036905D01*
X6702414Y-2036905D02*
X6607176Y-2084524D01*
X6607176Y-2084524D02*
X6511938Y-2179762D01*
X6511938Y-2179762D02*
X6464319Y-2322619D01*
X6464319Y-2322619D02*
X6464319Y-2417857D01*
X6464319Y-2417857D02*
X6511938Y-2560714D01*
X6511938Y-2560714D02*
X6559557Y-2608333D01*
X6797652Y-3465476D02*
X7464319Y-3465476D01*
X6416700Y-3227381D02*
X7130985Y-2989286D01*
X7130985Y-2989286D02*
X7130985Y-3608333D01*
X-3046833Y-6216580D02*
X-2999214Y-6264200D01*
X-2999214Y-6264200D02*
X-2856357Y-6311819D01*
X-2856357Y-6311819D02*
X-2761119Y-6311819D01*
X-2761119Y-6311819D02*
X-2618262Y-6264200D01*
X-2618262Y-6264200D02*
X-2523024Y-6168961D01*
X-2523024Y-6168961D02*
X-2475405Y-6073723D01*
X-2475405Y-6073723D02*
X-2427786Y-5883247D01*
X-2427786Y-5883247D02*
X-2427786Y-5740390D01*
X-2427786Y-5740390D02*
X-2475405Y-5549914D01*
X-2475405Y-5549914D02*
X-2523024Y-5454676D01*
X-2523024Y-5454676D02*
X-2618262Y-5359438D01*
X-2618262Y-5359438D02*
X-2761119Y-5311819D01*
X-2761119Y-5311819D02*
X-2856357Y-5311819D01*
X-2856357Y-5311819D02*
X-2999214Y-5359438D01*
X-2999214Y-5359438D02*
X-3046833Y-5407057D01*
X-3380167Y-5311819D02*
X-4046833Y-5311819D01*
X-4046833Y-5311819D02*
X-3618262Y-6311819D01*
X-8253833Y-4311580D02*
X-8206214Y-4359200D01*
X-8206214Y-4359200D02*
X-8063357Y-4406819D01*
X-8063357Y-4406819D02*
X-7968119Y-4406819D01*
X-7968119Y-4406819D02*
X-7825262Y-4359200D01*
X-7825262Y-4359200D02*
X-7730024Y-4263961D01*
X-7730024Y-4263961D02*
X-7682405Y-4168723D01*
X-7682405Y-4168723D02*
X-7634786Y-3978247D01*
X-7634786Y-3978247D02*
X-7634786Y-3835390D01*
X-7634786Y-3835390D02*
X-7682405Y-3644914D01*
X-7682405Y-3644914D02*
X-7730024Y-3549676D01*
X-7730024Y-3549676D02*
X-7825262Y-3454438D01*
X-7825262Y-3454438D02*
X-7968119Y-3406819D01*
X-7968119Y-3406819D02*
X-8063357Y-3406819D01*
X-8063357Y-3406819D02*
X-8206214Y-3454438D01*
X-8206214Y-3454438D02*
X-8253833Y-3502057D01*
X-8587167Y-3406819D02*
X-9206214Y-3406819D01*
X-9206214Y-3406819D02*
X-8872881Y-3787771D01*
X-8872881Y-3787771D02*
X-9015738Y-3787771D01*
X-9015738Y-3787771D02*
X-9110976Y-3835390D01*
X-9110976Y-3835390D02*
X-9158595Y-3883009D01*
X-9158595Y-3883009D02*
X-9206214Y-3978247D01*
X-9206214Y-3978247D02*
X-9206214Y-4216342D01*
X-9206214Y-4216342D02*
X-9158595Y-4311580D01*
X-9158595Y-4311580D02*
X-9110976Y-4359200D01*
X-9110976Y-4359200D02*
X-9015738Y-4406819D01*
X-9015738Y-4406819D02*
X-8730024Y-4406819D01*
X-8730024Y-4406819D02*
X-8634786Y-4359200D01*
X-8634786Y-4359200D02*
X-8587167Y-4311580D01*
X5166666Y-6222930D02*
X5214285Y-6270550D01*
X5214285Y-6270550D02*
X5357142Y-6318169D01*
X5357142Y-6318169D02*
X5452380Y-6318169D01*
X5452380Y-6318169D02*
X5595237Y-6270550D01*
X5595237Y-6270550D02*
X5690475Y-6175311D01*
X5690475Y-6175311D02*
X5738094Y-6080073D01*
X5738094Y-6080073D02*
X5785713Y-5889597D01*
X5785713Y-5889597D02*
X5785713Y-5746740D01*
X5785713Y-5746740D02*
X5738094Y-5556264D01*
X5738094Y-5556264D02*
X5690475Y-5461026D01*
X5690475Y-5461026D02*
X5595237Y-5365788D01*
X5595237Y-5365788D02*
X5452380Y-5318169D01*
X5452380Y-5318169D02*
X5357142Y-5318169D01*
X5357142Y-5318169D02*
X5214285Y-5365788D01*
X5214285Y-5365788D02*
X5166666Y-5413407D01*
X4595237Y-5746740D02*
X4690475Y-5699121D01*
X4690475Y-5699121D02*
X4738094Y-5651502D01*
X4738094Y-5651502D02*
X4785713Y-5556264D01*
X4785713Y-5556264D02*
X4785713Y-5508645D01*
X4785713Y-5508645D02*
X4738094Y-5413407D01*
X4738094Y-5413407D02*
X4690475Y-5365788D01*
X4690475Y-5365788D02*
X4595237Y-5318169D01*
X4595237Y-5318169D02*
X4404761Y-5318169D01*
X4404761Y-5318169D02*
X4309523Y-5365788D01*
X4309523Y-5365788D02*
X4261904Y-5413407D01*
X4261904Y-5413407D02*
X4214285Y-5508645D01*
X4214285Y-5508645D02*
X4214285Y-5556264D01*
X4214285Y-5556264D02*
X4261904Y-5651502D01*
X4261904Y-5651502D02*
X4309523Y-5699121D01*
X4309523Y-5699121D02*
X4404761Y-5746740D01*
X4404761Y-5746740D02*
X4595237Y-5746740D01*
X4595237Y-5746740D02*
X4690475Y-5794359D01*
X4690475Y-5794359D02*
X4738094Y-5841978D01*
X4738094Y-5841978D02*
X4785713Y-5937216D01*
X4785713Y-5937216D02*
X4785713Y-6127692D01*
X4785713Y-6127692D02*
X4738094Y-6222930D01*
X4738094Y-6222930D02*
X4690475Y-6270550D01*
X4690475Y-6270550D02*
X4595237Y-6318169D01*
X4595237Y-6318169D02*
X4404761Y-6318169D01*
X4404761Y-6318169D02*
X4309523Y-6270550D01*
X4309523Y-6270550D02*
X4261904Y-6222930D01*
X4261904Y-6222930D02*
X4214285Y-6127692D01*
X4214285Y-6127692D02*
X4214285Y-5937216D01*
X4214285Y-5937216D02*
X4261904Y-5841978D01*
X4261904Y-5841978D02*
X4309523Y-5794359D01*
X4309523Y-5794359D02*
X4404761Y-5746740D01*
X7869319Y1017166D02*
X7393128Y1350499D01*
X7869319Y1588594D02*
X6869319Y1588594D01*
X6869319Y1588594D02*
X6869319Y1207642D01*
X6869319Y1207642D02*
X6916938Y1112404D01*
X6916938Y1112404D02*
X6964557Y1064785D01*
X6964557Y1064785D02*
X7059795Y1017166D01*
X7059795Y1017166D02*
X7202652Y1017166D01*
X7202652Y1017166D02*
X7297890Y1064785D01*
X7297890Y1064785D02*
X7345509Y1112404D01*
X7345509Y1112404D02*
X7393128Y1207642D01*
X7393128Y1207642D02*
X7393128Y1588594D01*
X6869319Y683832D02*
X6869319Y64785D01*
X6869319Y64785D02*
X7250271Y398118D01*
X7250271Y398118D02*
X7250271Y255261D01*
X7250271Y255261D02*
X7297890Y160023D01*
X7297890Y160023D02*
X7345509Y112404D01*
X7345509Y112404D02*
X7440747Y64785D01*
X7440747Y64785D02*
X7678842Y64785D01*
X7678842Y64785D02*
X7774080Y112404D01*
X7774080Y112404D02*
X7821700Y160023D01*
X7821700Y160023D02*
X7869319Y255261D01*
X7869319Y255261D02*
X7869319Y540975D01*
X7869319Y540975D02*
X7821700Y636213D01*
X7821700Y636213D02*
X7774080Y683832D01*
X-11468833Y-3459580D02*
X-11421214Y-3507200D01*
X-11421214Y-3507200D02*
X-11278357Y-3554819D01*
X-11278357Y-3554819D02*
X-11183119Y-3554819D01*
X-11183119Y-3554819D02*
X-11040262Y-3507200D01*
X-11040262Y-3507200D02*
X-10945024Y-3411961D01*
X-10945024Y-3411961D02*
X-10897405Y-3316723D01*
X-10897405Y-3316723D02*
X-10849786Y-3126247D01*
X-10849786Y-3126247D02*
X-10849786Y-2983390D01*
X-10849786Y-2983390D02*
X-10897405Y-2792914D01*
X-10897405Y-2792914D02*
X-10945024Y-2697676D01*
X-10945024Y-2697676D02*
X-11040262Y-2602438D01*
X-11040262Y-2602438D02*
X-11183119Y-2554819D01*
X-11183119Y-2554819D02*
X-11278357Y-2554819D01*
X-11278357Y-2554819D02*
X-11421214Y-2602438D01*
X-11421214Y-2602438D02*
X-11468833Y-2650057D01*
X-11849786Y-2650057D02*
X-11897405Y-2602438D01*
X-11897405Y-2602438D02*
X-11992643Y-2554819D01*
X-11992643Y-2554819D02*
X-12230738Y-2554819D01*
X-12230738Y-2554819D02*
X-12325976Y-2602438D01*
X-12325976Y-2602438D02*
X-12373595Y-2650057D01*
X-12373595Y-2650057D02*
X-12421214Y-2745295D01*
X-12421214Y-2745295D02*
X-12421214Y-2840533D01*
X-12421214Y-2840533D02*
X-12373595Y-2983390D01*
X-12373595Y-2983390D02*
X-11802167Y-3554819D01*
X-11802167Y-3554819D02*
X-12421214Y-3554819D01*
X-1608333Y5086419D02*
X-1560714Y5038800D01*
X-1560714Y5038800D02*
X-1417857Y4991180D01*
X-1417857Y4991180D02*
X-1322619Y4991180D01*
X-1322619Y4991180D02*
X-1179762Y5038800D01*
X-1179762Y5038800D02*
X-1084524Y5134038D01*
X-1084524Y5134038D02*
X-1036905Y5229276D01*
X-1036905Y5229276D02*
X-989286Y5419752D01*
X-989286Y5419752D02*
X-989286Y5562609D01*
X-989286Y5562609D02*
X-1036905Y5753085D01*
X-1036905Y5753085D02*
X-1084524Y5848323D01*
X-1084524Y5848323D02*
X-1179762Y5943561D01*
X-1179762Y5943561D02*
X-1322619Y5991180D01*
X-1322619Y5991180D02*
X-1417857Y5991180D01*
X-1417857Y5991180D02*
X-1560714Y5943561D01*
X-1560714Y5943561D02*
X-1608333Y5895942D01*
X-2513095Y5991180D02*
X-2036905Y5991180D01*
X-2036905Y5991180D02*
X-1989286Y5514990D01*
X-1989286Y5514990D02*
X-2036905Y5562609D01*
X-2036905Y5562609D02*
X-2132143Y5610228D01*
X-2132143Y5610228D02*
X-2370238Y5610228D01*
X-2370238Y5610228D02*
X-2465476Y5562609D01*
X-2465476Y5562609D02*
X-2513095Y5514990D01*
X-2513095Y5514990D02*
X-2560714Y5419752D01*
X-2560714Y5419752D02*
X-2560714Y5181657D01*
X-2560714Y5181657D02*
X-2513095Y5086419D01*
X-2513095Y5086419D02*
X-2465476Y5038800D01*
X-2465476Y5038800D02*
X-2370238Y4991180D01*
X-2370238Y4991180D02*
X-2132143Y4991180D01*
X-2132143Y4991180D02*
X-2036905Y5038800D01*
X-2036905Y5038800D02*
X-1989286Y5086419D01*
X-11468833Y1740419D02*
X-11421214Y1692800D01*
X-11421214Y1692800D02*
X-11278357Y1645180D01*
X-11278357Y1645180D02*
X-11183119Y1645180D01*
X-11183119Y1645180D02*
X-11040262Y1692800D01*
X-11040262Y1692800D02*
X-10945024Y1788038D01*
X-10945024Y1788038D02*
X-10897405Y1883276D01*
X-10897405Y1883276D02*
X-10849786Y2073752D01*
X-10849786Y2073752D02*
X-10849786Y2216609D01*
X-10849786Y2216609D02*
X-10897405Y2407085D01*
X-10897405Y2407085D02*
X-10945024Y2502323D01*
X-10945024Y2502323D02*
X-11040262Y2597561D01*
X-11040262Y2597561D02*
X-11183119Y2645180D01*
X-11183119Y2645180D02*
X-11278357Y2645180D01*
X-11278357Y2645180D02*
X-11421214Y2597561D01*
X-11421214Y2597561D02*
X-11468833Y2549942D01*
X-12421214Y1645180D02*
X-11849786Y1645180D01*
X-12135500Y1645180D02*
X-12135500Y2645180D01*
X-12135500Y2645180D02*
X-12040262Y2502323D01*
X-12040262Y2502323D02*
X-11945024Y2407085D01*
X-11945024Y2407085D02*
X-11849786Y2359466D01*
X-5513180Y3636154D02*
X-4703657Y3636154D01*
X-4703657Y3636154D02*
X-4608419Y3588535D01*
X-4608419Y3588535D02*
X-4560800Y3540916D01*
X-4560800Y3540916D02*
X-4513180Y3445678D01*
X-4513180Y3445678D02*
X-4513180Y3255202D01*
X-4513180Y3255202D02*
X-4560800Y3159964D01*
X-4560800Y3159964D02*
X-4608419Y3112345D01*
X-4608419Y3112345D02*
X-4703657Y3064726D01*
X-4703657Y3064726D02*
X-5513180Y3064726D01*
X-4513180Y2064726D02*
X-4513180Y2636154D01*
X-4513180Y2350440D02*
X-5513180Y2350440D01*
X-5513180Y2350440D02*
X-5370323Y2445678D01*
X-5370323Y2445678D02*
X-5275085Y2540916D01*
X-5275085Y2540916D02*
X-5227466Y2636154D01*
X-5473871Y-23809D02*
X-4997680Y-23809D01*
X-5997680Y309523D02*
X-5473871Y-23809D01*
X-5473871Y-23809D02*
X-5997680Y-357142D01*
X-4997680Y-1214285D02*
X-4997680Y-642857D01*
X-4997680Y-928571D02*
X-5997680Y-928571D01*
X-5997680Y-928571D02*
X-5854823Y-833333D01*
X-5854823Y-833333D02*
X-5759585Y-738095D01*
X-5759585Y-738095D02*
X-5711966Y-642857D01*
X-19979630Y3295180D02*
X-19646297Y3771371D01*
X-19408202Y3295180D02*
X-19408202Y4295180D01*
X-19408202Y4295180D02*
X-19789154Y4295180D01*
X-19789154Y4295180D02*
X-19884392Y4247561D01*
X-19884392Y4247561D02*
X-19932011Y4199942D01*
X-19932011Y4199942D02*
X-19979630Y4104704D01*
X-19979630Y4104704D02*
X-19979630Y3961847D01*
X-19979630Y3961847D02*
X-19932011Y3866609D01*
X-19932011Y3866609D02*
X-19884392Y3818990D01*
X-19884392Y3818990D02*
X-19789154Y3771371D01*
X-19789154Y3771371D02*
X-19408202Y3771371D01*
X-20360583Y3342800D02*
X-20503440Y3295180D01*
X-20503440Y3295180D02*
X-20741535Y3295180D01*
X-20741535Y3295180D02*
X-20836773Y3342800D01*
X-20836773Y3342800D02*
X-20884392Y3390419D01*
X-20884392Y3390419D02*
X-20932011Y3485657D01*
X-20932011Y3485657D02*
X-20932011Y3580895D01*
X-20932011Y3580895D02*
X-20884392Y3676133D01*
X-20884392Y3676133D02*
X-20836773Y3723752D01*
X-20836773Y3723752D02*
X-20741535Y3771371D01*
X-20741535Y3771371D02*
X-20551059Y3818990D01*
X-20551059Y3818990D02*
X-20455821Y3866609D01*
X-20455821Y3866609D02*
X-20408202Y3914228D01*
X-20408202Y3914228D02*
X-20360583Y4009466D01*
X-20360583Y4009466D02*
X-20360583Y4104704D01*
X-20360583Y4104704D02*
X-20408202Y4199942D01*
X-20408202Y4199942D02*
X-20455821Y4247561D01*
X-20455821Y4247561D02*
X-20551059Y4295180D01*
X-20551059Y4295180D02*
X-20789154Y4295180D01*
X-20789154Y4295180D02*
X-20932011Y4247561D01*
X-21217726Y4295180D02*
X-21789154Y4295180D01*
X-21503440Y3295180D02*
X-21503440Y4295180D01*
X-8253833Y-6311819D02*
X-7920500Y-5835628D01*
X-7682405Y-6311819D02*
X-7682405Y-5311819D01*
X-7682405Y-5311819D02*
X-8063357Y-5311819D01*
X-8063357Y-5311819D02*
X-8158595Y-5359438D01*
X-8158595Y-5359438D02*
X-8206214Y-5407057D01*
X-8206214Y-5407057D02*
X-8253833Y-5502295D01*
X-8253833Y-5502295D02*
X-8253833Y-5645152D01*
X-8253833Y-5645152D02*
X-8206214Y-5740390D01*
X-8206214Y-5740390D02*
X-8158595Y-5788009D01*
X-8158595Y-5788009D02*
X-8063357Y-5835628D01*
X-8063357Y-5835628D02*
X-7682405Y-5835628D01*
X-9110976Y-5645152D02*
X-9110976Y-6311819D01*
X-8872881Y-5264200D02*
X-8634786Y-5978485D01*
X-8634786Y-5978485D02*
X-9253833Y-5978485D01*
X15302166Y-4406819D02*
X15635499Y-3930628D01*
X15873594Y-4406819D02*
X15873594Y-3406819D01*
X15873594Y-3406819D02*
X15492642Y-3406819D01*
X15492642Y-3406819D02*
X15397404Y-3454438D01*
X15397404Y-3454438D02*
X15349785Y-3502057D01*
X15349785Y-3502057D02*
X15302166Y-3597295D01*
X15302166Y-3597295D02*
X15302166Y-3740152D01*
X15302166Y-3740152D02*
X15349785Y-3835390D01*
X15349785Y-3835390D02*
X15397404Y-3883009D01*
X15397404Y-3883009D02*
X15492642Y-3930628D01*
X15492642Y-3930628D02*
X15873594Y-3930628D01*
X14349785Y-4406819D02*
X14921213Y-4406819D01*
X14635499Y-4406819D02*
X14635499Y-3406819D01*
X14635499Y-3406819D02*
X14730737Y-3549676D01*
X14730737Y-3549676D02*
X14825975Y-3644914D01*
X14825975Y-3644914D02*
X14921213Y-3692533D01*
X24153166Y4318169D02*
X24153166Y5032454D01*
X24153166Y5032454D02*
X24105547Y5175311D01*
X24105547Y5175311D02*
X24010309Y5270550D01*
X24010309Y5270550D02*
X23867452Y5318169D01*
X23867452Y5318169D02*
X23772214Y5318169D01*
X25153166Y5318169D02*
X24581738Y5318169D01*
X24867452Y5318169D02*
X24867452Y4318169D01*
X24867452Y4318169D02*
X24772214Y4461026D01*
X24772214Y4461026D02*
X24676976Y4556264D01*
X24676976Y4556264D02*
X24581738Y4603883D01*
X5869080Y1017166D02*
X5916700Y1064785D01*
X5916700Y1064785D02*
X5964319Y1207642D01*
X5964319Y1207642D02*
X5964319Y1302880D01*
X5964319Y1302880D02*
X5916700Y1445737D01*
X5916700Y1445737D02*
X5821461Y1540975D01*
X5821461Y1540975D02*
X5726223Y1588594D01*
X5726223Y1588594D02*
X5535747Y1636213D01*
X5535747Y1636213D02*
X5392890Y1636213D01*
X5392890Y1636213D02*
X5202414Y1588594D01*
X5202414Y1588594D02*
X5107176Y1540975D01*
X5107176Y1540975D02*
X5011938Y1445737D01*
X5011938Y1445737D02*
X4964319Y1302880D01*
X4964319Y1302880D02*
X4964319Y1207642D01*
X4964319Y1207642D02*
X5011938Y1064785D01*
X5011938Y1064785D02*
X5059557Y1017166D01*
X4964319Y160023D02*
X4964319Y350499D01*
X4964319Y350499D02*
X5011938Y445737D01*
X5011938Y445737D02*
X5059557Y493356D01*
X5059557Y493356D02*
X5202414Y588594D01*
X5202414Y588594D02*
X5392890Y636213D01*
X5392890Y636213D02*
X5773842Y636213D01*
X5773842Y636213D02*
X5869080Y588594D01*
X5869080Y588594D02*
X5916700Y540975D01*
X5916700Y540975D02*
X5964319Y445737D01*
X5964319Y445737D02*
X5964319Y255261D01*
X5964319Y255261D02*
X5916700Y160023D01*
X5916700Y160023D02*
X5869080Y112404D01*
X5869080Y112404D02*
X5773842Y64785D01*
X5773842Y64785D02*
X5535747Y64785D01*
X5535747Y64785D02*
X5440509Y112404D01*
X5440509Y112404D02*
X5392890Y160023D01*
X5392890Y160023D02*
X5345271Y255261D01*
X5345271Y255261D02*
X5345271Y445737D01*
X5345271Y445737D02*
X5392890Y540975D01*
X5392890Y540975D02*
X5440509Y588594D01*
X5440509Y588594D02*
X5535747Y636213D01*
D12*
%TO.C,R2*%
X17872758Y-5340850D02*
X17398242Y-5340850D01*
X17872758Y-6385850D02*
X17398242Y-6385850D01*
%TO.C,U2*%
X23686500Y275000D02*
X24486500Y275000D01*
X23686500Y-2845000D02*
X24486500Y-2845000D01*
X25286500Y275000D02*
X24486500Y275000D01*
X25286500Y-2845000D02*
X24486500Y-2845000D01*
X23426500Y-3125000D02*
X22946500Y-3125000D01*
X23186500Y-2795000D01*
X23426500Y-3125000D01*
G36*
X23426500Y-3125000D02*
G01*
X22946500Y-3125000D01*
X23186500Y-2795000D01*
X23426500Y-3125000D01*
G37*
%TO.C,C4*%
X4999500Y-2634420D02*
X4999500Y-2915580D01*
X6019500Y-2634420D02*
X6019500Y-2915580D01*
%TO.C,C7*%
X-572920Y-5347000D02*
X-854080Y-5347000D01*
X-572920Y-6367000D02*
X-854080Y-6367000D01*
%TO.C,C3*%
X-6061080Y-3442000D02*
X-5779920Y-3442000D01*
X-6061080Y-4462000D02*
X-5779920Y-4462000D01*
%TO.C,J3*%
X27880000Y-4770000D02*
X30540000Y-4770000D01*
X27880000Y-7370000D02*
X27880000Y-4770000D01*
X27880000Y-7370000D02*
X30540000Y-7370000D01*
X29210000Y-2170000D02*
X30540000Y-2170000D01*
X30540000Y-2170000D02*
X30540000Y-3500000D01*
X30540000Y-7370000D02*
X30540000Y-4770000D01*
%TO.C,C8*%
X2359420Y-5353350D02*
X2640580Y-5353350D01*
X2359420Y-6373350D02*
X2640580Y-6373350D01*
%TO.C,R3*%
X6892000Y3113242D02*
X6892000Y3587758D01*
X7937000Y3113242D02*
X7937000Y3587758D01*
%TO.C,C2*%
X-11776080Y-1090000D02*
X-11494920Y-1090000D01*
X-11776080Y-2110000D02*
X-11494920Y-2110000D01*
%TO.C,C5*%
X-4415580Y5956000D02*
X-4134420Y5956000D01*
X-4415580Y4936000D02*
X-4134420Y4936000D01*
%TO.C,C1*%
X-11776080Y1110000D02*
X-11494920Y1110000D01*
X-11776080Y90000D02*
X-11494920Y90000D01*
%TO.C,U1*%
X-3610000Y3610000D02*
X-3610000Y2885000D01*
X-3610000Y-3610000D02*
X-3610000Y-2885000D01*
X-2885000Y3610000D02*
X-3610000Y3610000D01*
X-2885000Y-3610000D02*
X-3610000Y-3610000D01*
X2885000Y3610000D02*
X3610000Y3610000D01*
X3370000Y-3610000D02*
X2885000Y-3610000D01*
X3610000Y3610000D02*
X3610000Y2885000D01*
X3610000Y-3310000D02*
X3610000Y-2885000D01*
X3940000Y-3850000D02*
X3610000Y-3610000D01*
X3940000Y-3370000D01*
X3940000Y-3850000D01*
G36*
X3940000Y-3850000D02*
G01*
X3610000Y-3610000D01*
X3940000Y-3370000D01*
X3940000Y-3850000D01*
G37*
%TO.C,Y1*%
X-6302500Y1500000D02*
X-9602500Y1500000D01*
X-6302500Y-2500000D02*
X-6302500Y1500000D01*
%TO.C,RST*%
X-23277250Y-1000000D02*
X-23277250Y1000000D01*
X-21777250Y2750000D02*
X-22227250Y2300000D01*
X-21777250Y2750000D02*
X-19277250Y2750000D01*
X-21777250Y-2750000D02*
X-22227250Y-2300000D01*
X-21777250Y-2750000D02*
X-19277250Y-2750000D01*
X-19277250Y2750000D02*
X-18827250Y2300000D01*
X-19277250Y-2750000D02*
X-18827250Y-2300000D01*
X-17777250Y-1000000D02*
X-17777250Y1000000D01*
%TO.C,R4*%
X-5683242Y-5334500D02*
X-6157758Y-5334500D01*
X-5683242Y-6379500D02*
X-6157758Y-6379500D01*
%TO.C,R1*%
X17872758Y-3429500D02*
X17398242Y-3429500D01*
X17872758Y-4474500D02*
X17398242Y-4474500D01*
%TO.C,J2*%
X-30540000Y-10200000D02*
X-30540000Y-12860000D01*
X-30540000Y-10200000D02*
X27940000Y-10200000D01*
X-30540000Y-12860000D02*
X27940000Y-12860000D01*
X27940000Y-10200000D02*
X27940000Y-12860000D01*
X30540000Y-11530000D02*
X30540000Y-12860000D01*
X30540000Y-12860000D02*
X29210000Y-12860000D01*
%TO.C,J1*%
X19816500Y4063350D02*
X19816500Y5763350D01*
X29156500Y4063350D02*
X29156500Y5763350D01*
%TO.C,C6*%
X4999500Y3209920D02*
X4999500Y3491080D01*
X6019500Y3209920D02*
X6019500Y3491080D01*
%TD*%
M02*
